<?xml version="1.0" encoding="utf-8"?>
<!-- Generator: Adobe Illustrator 23.0.2, SVG Export Plug-In . SVG Version: 6.00 Build 0)  -->
<svg version="1.1" id="Capa_1" xmlns="http://www.w3.org/2000/svg" xmlns:xlink="http://www.w3.org/1999/xlink" x="0px" y="0px"
	 viewBox="0 0 204.1 204.1" style="enable-background:new 0 0 204.1 204.1;" xml:space="preserve">
<style type="text/css">
	.st0{fill:#EA5F3D;}
</style>
<g>
	<g>
		<path class="st0" d="M151,52.2c4.9-6.2,5.7-14,2.5-22.6c-2.3-6.1-6-10.5-6.1-10.7c-1.2-1.4-3.3-1.6-4.8-0.4
			c-1.4,1.2-1.6,3.3-0.4,4.8c0.2,0.2,11.7,14.4,3.5,24.9c-11.8,15,0.8,34.9,1.3,35.7c0.6,1,1.7,1.5,2.8,1.5c0.6,0,1.3-0.2,1.8-0.5
			c1.6-1,2-3.1,1-4.7C152.6,79.9,142.2,63.4,151,52.2z"/>
	</g>
</g>
<g>
	<g>
		<path class="st0" d="M173.7,52.2c4.9-6.2,5.7-14,2.5-22.6c-2.3-6.1-6-10.5-6.1-10.7c-1.2-1.4-3.3-1.6-4.8-0.4
			c-1.4,1.2-1.6,3.3-0.4,4.7c0.1,0.1,11.7,14.4,3.5,24.9c-11.8,15,0.8,34.9,1.3,35.7c0.6,1,1.7,1.5,2.8,1.5c0.6,0,1.3-0.2,1.8-0.5
			c1.6-1,2-3.1,1-4.7C175.3,79.9,164.9,63.4,173.7,52.2z"/>
	</g>
</g>
<g>
	<g>
		<path class="st0" d="M32,53.8c4.9-6.2,5.7-14,2.5-22.6c-2.3-6.1-6-10.5-6.1-10.7C27.1,19,25,18.8,23.6,20
			c-1.4,1.2-1.6,3.3-0.4,4.7c0.1,0.1,11.7,14.4,3.5,24.9c-11.8,15,0.8,34.9,1.3,35.7c0.6,1,1.7,1.5,2.8,1.5c0.6,0,1.3-0.2,1.8-0.5
			c1.6-1,2-3.1,1-4.7C33.5,81.5,23.2,65,32,53.8z"/>
	</g>
</g>
<g>
	<g>
		<path class="st0" d="M54.6,53.8c4.9-6.2,5.7-14,2.5-22.6c-2.3-6.1-6-10.5-6.1-10.7c-1.2-1.4-3.3-1.6-4.8-0.4
			c-1.4,1.2-1.6,3.3-0.4,4.7c0.1,0.1,11.7,14.4,3.5,24.9c-11.8,15,0.8,34.9,1.3,35.7c0.6,1,1.7,1.5,2.8,1.5c0.6,0,1.3-0.2,1.8-0.5
			c1.6-1,2-3.1,1-4.7C56.2,81.5,45.8,65,54.6,53.8z"/>
	</g>
</g>
<g>
	<g>
		<path class="st0" d="M192.9,159.8h-7.2c-1.7-42.1-34.7-76.3-76.2-79.9v-3.4c4.2-2.5,6.8-7.1,6.8-12.1c0-7.8-6.3-14.1-14.1-14.1
			c-0.1,0-0.3,0-0.3,0c-7.8,0-14.1,6.3-14.1,14.1c0,5,2.6,9.6,6.8,12.1v3.4C53,83.5,20,117.7,18.4,159.8h-7.2C5,159.8,0,164.8,0,171
			v4.2c0,6.2,5,11.2,11.2,11.2h181.7c6.2,0,11.2-5,11.2-11.2V171C204.1,164.8,199.1,159.8,192.9,159.8z M94.5,64.4
			c0-4.1,3.3-7.4,7.4-7.4c0.1,0,0.3,0,0.3,0c4.1,0,7.4,3.3,7.4,7.4c0,3-1.8,5.7-4.7,6.9c-1.3,0.5-2.1,1.8-2.1,3.1v5.2h-1.4v-5.2
			c0-1.4-0.8-2.6-2.1-3.1C96.4,70.1,94.5,67.4,94.5,64.4z M192.9,179.7H11.2c-2.5,0-4.5-2-4.5-4.5V171c0-2.5,2-4.5,4.5-4.5h5.5
			c0,0,0.1,0,0.1,0H138c1.9,0,3.4-1.5,3.4-3.4c0-1.9-1.5-3.4-3.4-3.4H25.1c1.8-40.7,35.4-73.3,76.5-73.5h0.9
			c41.1,0.2,74.7,32.8,76.5,73.5h-19.1c-1.9,0-3.4,1.5-3.4,3.4c0,1.9,1.5,3.4,3.4,3.4l26.1,0h6.9c2.5,0,4.5,2,4.5,4.5v4.2h0
			C197.3,177.7,195.3,179.7,192.9,179.7z"/>
	</g>
</g>
</svg>
