<?xml version="1.0" encoding="utf-8"?>
<!-- Generator: Adobe Illustrator 23.0.2, SVG Export Plug-In . SVG Version: 6.00 Build 0)  -->
<svg version="1.1" id="Layer_1" xmlns="http://www.w3.org/2000/svg" xmlns:xlink="http://www.w3.org/1999/xlink" x="0px" y="0px"
	 viewBox="0 0 2000 2000" style="enable-background:new 0 0 2000 2000;" xml:space="preserve">
<g>
	<g>
		<path d="M409.81,506.43c0.37,0.11,0.76-0.06,0.93-0.4c2.85-5.85,5.89-12.74,9.4-19.4c4.58-8.69,11.6-13.64,19.59-17.73
			c18.78-9.6,38.4-11.16,58.63-4.92c12.47,3.84,24.83,8.36,37.56,11c25.11,5.21,35.04-2.34,44.79-20.73
			c5.92-11.18,11.02-22.79,17.01-33.94c10.08-18.77,31.66-27.92,52.55-22.81c22.55,5.51,38.46,17.92,44.34,41.42
			c6.93,27.69-8.65,53.69-37.19,60.2c-3.75,0.86-7.59,1.31-11.29,1.9c-0.43,0.07-0.73,0.47-0.66,0.9c0.83,5.5,2.36,10.9,2.07,16.19
			c-1.09,19.45,3.49,37.84,8.88,56.23c2.56,8.74,4.32,17.76,5.8,26.75c0.83,5.06-2.43,8-7.48,7.6c-6.09-0.49-12.09-2.04-18.17-2.52
			c-38.54-2.99-74.62,5.9-108.23,24.28c-17.93,9.81-34.96,21.27-53.43,32.65c-0.37,0.23-0.84,0.12-1.08-0.24
			c-1.55-2.42-4.28-5.85-5.58-9.76c-7.39-22.27-23.16-37.24-42.1-49.59c-1.46-0.95-2.41-1.71-3.96-2.61c-0.24-0.14-0.64-0.14-0.88,0
			c-36.54,20.95-77.37,5.02-88.55-33.96c-5.08-17.71,5.01-43.25,20.21-54.15c11.15-7.99,23.14-13.81,37.16-12.04
			C396.83,501.59,403.29,504.42,409.81,506.43z M648.94,591.89c0.56,0.06,1-0.45,0.87-0.99c-2.52-9.93-5.28-18.94-6.9-28.14
			c-2.04-11.63-3.49-23.41-4.34-35.18c-0.49-6.75,0.58-13.64,1.22-20.44c0.38-4.08-1.62-5.22-5.05-6.93
			c-5.22-2.6-11.07-5.65-14.1-10.63c-1.1-1.8-1.05-7.22,1.27-8.7c1.4-0.9,5.28-0.39,8.03-0.07c5.41,0.64,11.17,3.21,16.1,2.05
			c14.16-3.34,27.32-9.59,31.56-25.11c3.51-12.86-1.71-24.54-9.75-35.01c-7.84-10.22-20.96-15.11-33.48-12.13
			c-11.07,2.64-18.52,10.46-22.8,21.72c-4.1,10.78-7.56,21.83-12.24,32.34c-3.51,7.87-6.76,15.93-14.66,21.35
			c-17.62,12.1-36.47,12.4-55.91,7.01c-15.09-4.18-29.71-10.16-44.89-13.88c-8.44-2.07-18.05-3.1-26.38-1.23
			c-19.53,4.37-30.16,17.99-33.08,37.77c-1.39,9.41-4.4,11.35-13.83,8.87c-10.35-2.73-20.55-4.12-30.87,0.01
			c-10.38,4.16-19.65,8.48-25.19,19.9c-5.61,11.56-9.23,22.82-1.39,34.75c13.58,20.66,36.24,28.29,61.24,15.74
			c10.4-5.22,19.73-12.56,30.66-20.15c0.75-0.52,1.64,0.43,1.08,1.15c-6.06,7.71-11.5,14.65-16.94,21.57
			c-0.33,0.42-0.16,1.02,0.33,1.22c22.87,9.36,39.03,27,49.36,50.59c0.25,0.57,1.01,0.65,1.38,0.15
			c19.58-27.18,48.9-36.83,77.36-47.07C586.79,591.89,617.28,588.23,648.94,591.89z"/>
		<path d="M848.51,743.39c-0.53-0.39-0.44-1.21,0.15-1.5c10.76-5.28,20.99-9.89,30.76-15.32c13.15-7.31,18.38-20.85,24.25-33.56
			c5.08-11.01,12.28-19.72,22.16-26.93c8.42-6.14,15.98-13.63,23.05-21.32c2.26-2.46,3.29-7.99,2.19-11.19
			c-2.18-6.38-8.6-6.1-13.35-3.75c-10.47,5.16-20.46,11.31-30.62,17.1c-1.52,0.87-2.97,1.86-5.03,3.22
			c-0.62,0.41-1.45-0.1-1.36-0.84c0.79-6.6,5.13-10.45,8.19-14.66c6.44-8.85,13.58-17.18,20.27-25.85c1.85-2.4,3.57-5.09,4.52-7.93
			c0.84-2.5,1.67-6.4,0.41-7.83c-1.35-1.53-5.37-1.73-7.85-1.07c-14.24,3.77-24.09,13.37-32.69,24.85
			c-4.04,5.39-9.18,9.96-14.62,15.56c-0.47,0.48-1.29,0.28-1.48-0.37c-2.03-6.98-3.76-12.12-4.92-17.38
			c-2.77-12.57-21.69-17.31-29.63-6.54c-7.53,10.2-13.67,20.88-10.66,34.17c1.26,5.56,5.08,6.41,9.71,2.96
			c1.75-1.31,3.52-2.59,5.26-3.92c7.97-6.1,9.72-5.58,14.23,3.08c9.51,18.26-2.17,35.62-15.51,43.38
			c-11.79,6.85-23.88,1.01-28.33-12.67c-2.95-9.06-4.83-18.51-8.25-27.37c-3.19-8.27-6.56-8.41-13-2.44
			c-12,11.12-9.02,24.81-6.32,38.15c1.73,8.57,7.16,14.83,15.44,18.4c4.01,1.73,7.89,3.82,11.73,5.92
			c6.31,3.44,8.45,7.04,7.79,14.96c-0.07,0.87-1.25,1.11-1.66,0.33c-7.86-15.25-23.66-18.91-35.97-27.18
			c-14.36-9.65-19.54-34.48-11.07-49.4c5.35-9.43,12.97-15.25,22.85-18.4c9.36-2.99,17.02,1.92,18.25,11.61
			c0.86,6.75,1.2,13.6,1.37,20.41c0.25,9.58,4.8,14.96,14.84,16.87c5.17,0.99,13.41-4.45,15.54-11.22
			c1.76-5.58,2.64-11.43,3.88-17.58c0.15-0.75-0.67-1.33-1.32-0.92c-4.59,2.83-8.26,5.83-12.39,6.76
			c-10.39,2.35-21.34-9.3-18.73-20.24c3.35-14.08,7.92-27.79,19.67-37.77c5.97-5.08,15.06-5.87,21.89-2.1
			c9.24,5.09,14.99,12.61,17.79,21.72c0.21,0.67,1.07,0.85,1.52,0.31c6.44-7.69,12.49-15.63,19.44-22.68
			c8.11-8.23,17.6-14.27,30.08-13.87c13.92,0.45,20.56,9.99,15.36,22.93c-1.35,3.36-2.99,6.6-4.51,9.8
			c-0.28,0.6,0.16,1.28,0.83,1.26c3.71-0.13,7.51-0.63,11.03,0.16c15.55,3.48,18.34,17.2,15.23,30.47
			c-3.51,14.97-14.16,24.3-26.05,32.42c-9.71,6.63-15.56,16.03-19.64,26.51c-8.05,20.72-20.85,36.82-42.97,42.61
			c-8.36,2.19-19.43,1.6-24.89,0.69C853.59,745.9,850.17,744.63,848.51,743.39z"/>
		<path d="M506.31,927.74c-5.36-12.36-7.82-23.96-3.05-36.46c8.55-22.42,23.63-39.68,41.74-54.91
			c15.8-13.28,32.47-25.22,51.25-33.64c13.85-6.21,28.34-11.06,42.76-15.88c3.95-1.32,6.53-2.48,7.54-6.75
			c1.37-5.77,5.21-9.93,11.15-10.37c4.81-0.36,7.91,3.09,10.85,7.09c1.81,2.46,6.25,4.4,9.39,4.25
			c24.11-1.15,46.66,4.04,67.61,15.83c19.11,10.76,35.79,24.52,49.69,41.61c17.77,21.86,32.7,45.27,41.05,72.45
			c2.75,8.97,0.5,16.87-5.8,18.56c-12.8,3.42-19.01,1.09-22.28-9.81c-6.47-21.52-16.39-41.37-29.48-59.55
			c-22.76-31.6-52.6-53.14-91.36-59.94c-26.91-4.72-53.16-0.72-78.45,10.3c-26,11.33-48.65,27.52-68.62,47.16
			c-13.09,12.88-26.47,26.34-30.34,45.61C508.42,910.94,507.63,918.75,506.31,927.74z"/>
		<path d="M767.64,666.41c-11.07,14.63-24.95,20.71-40.03,23.74c-17.09,3.43-34.59,4.91-51.66,8.41
			c-13.62,2.79-24.97,10.47-33.99,21.16c-1.3,1.54-1.91,3.95-2.17,6.04c-1.84,14.94-8.45,17.69-22.53,19.47
			c-2.63,0.33-5.35,1.35-7.64,2.72c-11.94,7.09-18.18,6.76-26.96-0.15c-13.72-10.78-28.84-7.07-42.59-0.65
			c-13.16,6.15-24.97,15.11-37.71,22.25c-20.81,11.67-35.66,16.86-57.92,13.53c4.92-2.31,8.36-4.11,11.94-5.58
			c16.72-6.85,30.13-18.36,43.25-30.36c14.74-13.48,29.76-26.83,50.38-30.37c18.02-3.09,36.15-4.97,54.02,2.73
			c3.68-4.73,7.32-10.15,11.69-14.89c14.27-15.47,31.44-26.7,52.64-28.51c20.72-1.77,41.67-0.69,62.47-1.82
			c9-0.49,17.87-3.35,26.79-5.2C760.38,668.34,763.1,667.55,767.64,666.41z"/>
		<path d="M468.52,945.31c1.83-0.35,3.71,0.88,4.85,1.64c15.24,10.24,33.15,11.39,50.37,14.73c13.06,2.54,26.21,4.66,39.39,6.49
			c12.59,1.75,25.25,3.61,37.92,4.12c24.61,0.98,49.31,2.22,73.88,1.15c22.48-0.98,44.85-4.76,67.25-7.48
			c23.94-2.91,46.89-9.52,69.08-18.88c9.83-4.14,19.67-8.29,29.62-12.13c4.42-1.71,9.11-3.47,13.74-3.65
			c3.17-0.12,7.78,1.63,9.29,4.06c1.5,2.43,1.02,7.34-0.49,10.15c-5.08,9.48-14.91,13.31-24.06,17.17
			c-26.34,11.11-53.97,18.35-81.88,24.05c-13.69,2.79-27.89,3.51-41.91,4.25c-18.37,0.96-36.84,2.07-55.17,1.21
			c-25.88-1.22-51.84-3.08-77.47-6.71c-24.31-3.44-48.42-8.8-72.28-14.7C494.7,966.85,479.32,960.54,468.52,945.31z"/>
		<path d="M798.28,729.87c6.24,20.51,23.74,26.75,41.22,32.49c7.36,2.42,15.34,3.05,23.08,4.18c5.22,0.76,9.32,3.59,9.35,8.48
			c0.03,4.78-2.81,8.39-9,9.08c-22.64,2.51-42.35-3.22-58.57-19.43C794.28,754.58,792.03,741.03,798.28,729.87z"/>
		<path d="M636.39,1011.18c-4.03-2.59-1.17-8.85,3.46-7.62c6.16,1.64,12.26,3.25,18.35,4.9c19.1,5.17,38.7,6.99,58.21,5.14
			c22.61-2.14,44.47-8.05,64.3-19.87c0.94-0.56,1.91-1.34,2.91-1.43c0.09-0.01,0.17-0.02,0.26-0.02c3.11-0.22,5.48,2.94,4.24,5.8
			c-0.22,0.51-0.5,0.92-0.89,1.19c-12.99,9.02-27.38,15.54-42.84,18.34c-15.88,2.88-32.11,5.14-48.2,5.26
			c-19.43,0.16-38.54-4.05-57.02-10.4C638.16,1012.12,637.21,1011.71,636.39,1011.18z"/>
		<path d="M551.02,677.77c-17.94-0.91-26.61,5.24-27.92,19.77c-7.07-2.61-10.66-10.6-8.99-19.99c1.16-6.51,10.7-14.87,17.21-15.09
			C540.1,662.16,548.89,668.99,551.02,677.77z"/>
		<path d="M567.16,697.47c-0.7-1.79,1-3.59,2.83-3c5.89,1.92,11.8,4.03,17.89,5.06c7.41,1.25,13.08-2.66,16.6-9.38
			c0.6-1.15,1.14-2.48,2.09-3.29c1.2-1.02,2.52-1.91,3.85-2.79c1.07-0.71,2.51-0.39,3.19,0.7c1.52,2.41,3.34,4.87,2.97,6.95
			c-1.93,11.07-12.22,19.43-21.96,18.66c-4.36-0.34-8.88-0.11-13.03-1.25C573.5,706.9,569.59,703.64,567.16,697.47z"/>
		<path d="M675.77,627.94c16.72-3.05,41.3,12.99,47.06,29.83c0.42,1.22,1.24,2.6,0.97,3.68c-0.15,0.62-0.34,1.22-0.55,1.83
			c-1.08,3.15-5.28,3.9-7.3,1.25c-0.01-0.02-0.03-0.03-0.04-0.05c-4.82-6.44-8.73-13.7-14.25-19.45c-5.77-6.01-13.54-9.4-22.2-9.46
			c-3.63-0.02-7.3-0.53-7.23-4.63C672.25,629.76,674.28,628.21,675.77,627.94z"/>
		<path d="M480.42,699.19c-13.98,9.67-16.05,28.41-15.44,45.27c2.09,10.51,4.22,11.82,5.18,12.39c0.54,0.33,1.11,0.62,1.68,0.9
			c2.99,1.46,6.49-0.98,6.05-4.28c0-0.02,0-0.04-0.01-0.07c-2.03-7.36-3.21-9.47-3.21-23.52c0-7.49,2.45-16.52,8.54-22.69
			c2.55-2.59,4.78-5.54,1.84-8.38C484.2,698,481.67,698.33,480.42,699.19z"/>
		<path d="M617.53,656.53c-7.23-8.87-4.55-16.96,0.32-22.39c5.53-6.17,13.61-6.93,20.87-2.47c7.46,4.58,9.83,12.85,6.25,21.75
			C633.94,642.88,628.19,643.54,617.53,656.53z"/>
		<path d="M600.96,766.08c12.04,2.65,21.37-1.49,30.37-7.45c0.53,8.31-2.28,13.49-7.99,15.53
			C616.46,776.6,606.57,773.4,600.96,766.08z"/>
	</g>
	<g>
		<path d="M1031.55,843.26c3-4.31,5.91-8.72,8.72-13.22s5.06-9.19,6.75-14.07c0.56-1.69,1.08-3.75,1.55-6.19
			c0.47-2.44-0.05-4.41-1.55-5.91c1.87,0,3.8,0.84,5.77,2.53c1.97,1.69,2.77,3.66,2.39,5.91l6.75-8.72
			c5.06-6.56,10.41-13.27,16.04-20.12c5.63-6.85,10.31-14.11,14.07-21.81c3-6.19,1.69-11.07-3.94-14.63
			c-11.25-3.38-22.75-5.11-34.47-5.21c-11.73-0.09-23.4,1.17-35.03,3.8c1.5,2.44,2.63,4.78,3.38,7.03
			c1.87,5.25,2.86,10.6,2.95,16.04c0.09,5.44-0.42,10.88-1.55,16.32c-1.13,5.44-2.67,10.79-4.64,16.04
			c-1.97,5.25-4.18,10.23-6.61,14.91c-5.44,10.13-11.73,19.6-18.85,28.42c-7.13,8.82-14.91,17.07-23.35,24.76
			c-8.44,7.69-17.26,14.87-26.45,21.53c-9.19,6.66-19.04,12.14-29.54,16.46c-4.69,2.06-9.66,3.84-14.91,5.35
			c-5.25,1.5-10.55,2.39-15.9,2.67c-5.35,0.28-10.55-0.24-15.62-1.55c-5.06-1.31-9.66-3.85-13.79-7.6
			c-4.32-3.75-7.27-8.02-8.86-12.8c-1.6-4.78-2.35-9.71-2.25-14.77c0.09-5.06,0.98-10.17,2.67-15.33c1.69-5.16,3.66-9.89,5.91-14.21
			c4.69-9,10.59-17.21,17.73-24.62c7.13-7.41,14.63-14.3,22.51-20.68c2.06-1.69,4.17-3.33,6.33-4.92c2.15-1.59,4.26-3.14,6.33-4.64
			c0.56-9,2.91-17.63,7.03-25.89c4.12-8.25,9.29-15.57,15.48-21.95c3.56-3.75,7.5-7.22,11.82-10.41c4.31-3.19,8.91-5.91,13.79-8.16
			c4.88-2.25,9.89-3.84,15.05-4.78c5.16-0.94,10.46-1.03,15.9-0.28c6.38,0.94,12.42,3,18.15,6.19c5.72,3.19,10.55,7.32,14.49,12.38
			c8.63-2.25,17.45-3.89,26.45-4.92c9-1.03,18.01-1.36,27.01-0.98c6.38,0.38,12.57,1.13,18.57,2.25c6,1.13,12.1,2.35,18.29,3.66
			c6.56,1.5,13.18,2.91,19.84,4.22c6.66,1.32,13.37,2.44,20.12,3.38c3.75,0.75,8.48,1.55,14.21,2.39c5.72,0.84,11.3,1.03,16.74,0.56
			c5.44-0.47,10.13-1.97,14.07-4.5s6.09-6.8,6.47-12.8c1.5,1.88,2.25,3.8,2.25,5.77s-0.47,3.94-1.41,5.91
			c-0.94,1.97-2.21,3.75-3.8,5.35c-1.6,1.6-3.14,2.96-4.64,4.08c-4.88,3.19-10.23,5.39-16.04,6.61c-5.82,1.22-11.54,1.83-17.16,1.83
			c-9.19,0.19-18.25-0.8-27.15-2.95c-8.91-2.15-17.59-4.92-26.03-8.3c3,2.44,4.5,5.06,4.5,7.88c-0.19,1.88-0.66,3.71-1.41,5.49
			c-0.75,1.79-1.6,3.42-2.53,4.92c-4.5,8.26-9.85,15.95-16.04,23.07c-6.19,7.13-12.29,14.26-18.29,21.38
			c-10.32,12.2-20.45,24.34-30.39,36.44c-9.95,12.1-19.42,24.72-28.42,37.85c-3,4.32-6.1,8.86-9.29,13.65
			c-3.19,4.78-6.19,9.71-9,14.77c-2.81,5.06-5.3,10.27-7.46,15.62c-2.16,5.35-3.52,10.74-4.08,16.18
			c-1.69-5.25-1.97-10.74-0.84-16.46c1.13-5.72,2.86-11.4,5.21-17.02c2.34-5.63,5.06-11.02,8.16-16.18
			c3.09-5.16,5.95-9.8,8.58-13.93c4.5-7.32,9.19-14.54,14.07-21.67C1021.23,857.51,1026.29,850.39,1031.55,843.26z M943.48,845.79
			c-5.06,0.38-9.76-0.56-14.07-2.81c-4.32-2.25-8.16-5.21-11.54-8.86c-3.38-3.66-6.19-7.78-8.44-12.38
			c-2.25-4.59-3.75-9.14-4.5-13.65c-6.01,5.25-11.73,10.65-17.16,16.18c-5.44,5.54-10.6,11.3-15.48,17.3
			c-3,3.75-6.33,8.02-9.99,12.8c-3.66,4.78-6.71,9.8-9.14,15.05c-2.44,5.25-3.8,10.6-4.08,16.04c-0.28,5.44,1.55,10.51,5.49,15.19
			c3.38,4.31,7.36,7.27,11.96,8.86c4.59,1.59,9.38,2.29,14.35,2.11c4.97-0.19,9.94-0.99,14.91-2.39c4.97-1.41,9.61-3.05,13.93-4.92
			c16.5-7.5,31.7-17.77,45.58-30.81c13.88-13.04,25.79-27.06,35.74-42.07c3.56-5.44,7.13-11.63,10.69-18.57
			c3.56-6.94,6.42-14.11,8.58-21.52c2.15-7.41,3.14-14.82,2.96-22.23c-0.19-7.41-2.16-14.21-5.91-20.4
			c-4.32,1.31-8.63,2.77-12.94,4.36c-4.32,1.6-8.54,3.33-12.66,5.21c-25.14,11.44-48.68,26.26-70.63,44.46c0,3,0.28,5.72,0.84,8.16
			c0.75,3.75,2.01,7.6,3.8,11.54c1.78,3.94,4.03,7.55,6.75,10.83c2.72,3.28,5.81,6.05,9.29,8.3
			C935.27,843.82,939.16,845.23,943.48,845.79z M913.09,787.83c14.07-9.57,28.84-17.96,44.32-25.18
			c15.48-7.22,31.18-13.27,47.13-18.15l-3.1-3.66c-6.38-6.19-13.6-10.13-21.67-11.82c-8.07-1.69-16.23-1.13-24.48,1.69
			c-3.94,1.5-7.74,3.24-11.4,5.21s-7.08,4.36-10.27,7.17c-1.13,0.94-2.39,2.07-3.8,3.38c-1.41,1.31-2.77,2.67-4.08,4.08
			c-1.31,1.41-2.53,2.91-3.66,4.5c-1.13,1.6-1.79,3.14-1.97,4.64c-0.19,1.13-0.19,2.16,0,3.09c0.18,0.94,0.37,1.79,0.56,2.53
			c0.19,0.75,0.23,1.6,0.14,2.53c-0.1,0.94-0.42,1.97-0.98,3.09c-1.13,1.88-2.11,3.85-2.95,5.91c-0.84,2.07-1.64,4.13-2.39,6.19
			c-0.38,0.94-0.66,1.74-0.84,2.39C913.46,786.09,913.27,786.89,913.09,787.83z"/>
		<path d="M1130.03,810.05c2.25,2.63,2.67,7.46,1.27,14.49c-1.41,7.03-5.77,15.62-13.08,25.75l-5.63,7.6
			c2.25,0.75,4.36,0.66,6.33-0.28c1.97-0.94,3.7-2.39,5.21-4.36c1.5-1.97,2.67-4.36,3.52-7.17c0.84-2.81,1.27-5.91,1.27-9.29
			c3.38,2.44,5.02,5.35,4.92,8.72c-0.1,3.38-1.17,6.43-3.24,9.14c-2.07,2.72-4.92,4.69-8.58,5.91c-3.66,1.22-7.36,0.99-11.11-0.7
			c-2.25,2.81-4.74,5.68-7.46,8.58c-2.72,2.91-5.54,5.63-8.44,8.16c-2.91,2.53-5.96,4.74-9.14,6.61c-3.19,1.88-6.38,3.19-9.57,3.94
			c-2.25,0.56-4.5,0.28-6.75-0.84c-2.25-1.13-3.66-3.38-4.22-6.75c-0.56-3.38,0.1-8.06,1.97-14.07c1.88-6,5.72-13.79,11.54-23.35
			c4.69-7.5,9.66-13.79,14.91-18.85c5.25-5.06,10.27-8.91,15.05-11.54c4.78-2.63,9.1-4.03,12.94-4.22
			C1125.57,807.34,1128.34,808.18,1130.03,810.05z M1077.13,883.49c3.75-2.44,8.02-6.42,12.8-11.96
			c4.78-5.53,9.43-11.58,13.93-18.15c-0.38-1.87-0.19-4.03,0.56-6.47c0.75-2.44,1.87-4.88,3.38-7.32c1.5-2.44,3.33-4.78,5.49-7.04
			c2.15-2.25,4.45-4.31,6.89-6.19c3.56-6.75,5.35-11.35,5.35-13.79c-0.19-1.13-1.08-1.73-2.67-1.83c-1.6-0.09-3.52,0.89-5.77,2.96
			c-3.19,2.63-6.75,6.43-10.69,11.4c-3.94,4.97-7.79,10.27-11.54,15.9c-3.75,5.63-7.22,11.25-10.41,16.88
			c-3.19,5.63-5.68,10.6-7.46,14.91c-1.78,4.32-2.77,7.55-2.96,9.71C1073.85,884.67,1074.88,885,1077.13,883.49z"/>
		<path d="M1153.66,805.27c-0.94,1.69-0.19,2.72,2.25,3.09c2.44,0.38,5.49,0.33,9.14-0.14c3.66-0.47,7.22-1.03,10.69-1.69
			c3.47-0.65,5.77-1.08,6.89-1.27c2.06-0.18,3.28,0,3.66,0.56c0.75,0.38,1.31,1.13,1.69,2.25c0.37,1.13,0.61,2.3,0.7,3.52
			c0.09,1.22,0,2.25-0.28,3.09c-0.28,0.84-0.61,1.27-0.98,1.27c-1.13-0.18-3,0.8-5.63,2.95c-2.63,2.16-5.54,4.83-8.72,8.02
			c-3.19,3.19-6.43,6.61-9.71,10.27c-3.28,3.66-6.24,6.89-8.86,9.71c-6.01,6.94-11.77,13.51-17.3,19.7
			c-5.53,6.19-10.36,11.35-14.49,15.48c3.38-1.5,6.29-3,8.72-4.5c2.44-1.5,4.55-2.91,6.33-4.22c1.78-1.31,3.33-2.34,4.64-3.09
			c1.31-0.75,2.63-1.03,3.94-0.84c1.5,0.19,2.58,1.08,3.24,2.67c0.66,1.6,0.61,3.43-0.14,5.49c3-2.44,6.38-5.21,10.13-8.3
			c3.75-3.09,6.94-6.33,9.57-9.71c2.63-3.38,4.69-6.99,6.19-10.83c1.5-3.84,2.34-7.83,2.53-11.96c4.31,3.19,5.91,6.99,4.78,11.4
			c-1.13,4.41-3.75,8.86-7.88,13.37c-2.25,2.63-5.07,5.11-8.44,7.46c-3.38,2.35-6.61,4.64-9.71,6.89c-3.09,2.25-5.72,4.36-7.88,6.33
			c-2.16,1.97-3.24,3.8-3.24,5.49c-1.31,0-2.07-0.37-2.25-1.13c-0.56-2.44-1.74-3.98-3.52-4.64c-1.79-0.66-3.94-0.7-6.47-0.14
			s-5.35,1.46-8.44,2.67c-3.09,1.22-6.23,2.39-9.43,3.52c-0.18,0.19-0.37,0.28-0.56,0.28c-2.44,1.13-4.45,1.41-6.05,0.84
			c-1.59-0.56-2.2-1.59-1.83-3.09c1.5,0.56,3.75-0.61,6.75-3.52c3-2.91,6.43-6.7,10.27-11.4c3.85-4.69,8.02-9.99,12.52-15.9
			c4.5-5.91,9-11.72,13.51-17.45c4.5-5.72,8.91-11.02,13.23-15.9c4.31-4.88,8.25-8.63,11.82-11.26c-3.94,1.5-7.65,3.05-11.11,4.64
			c-3.47,1.6-6.52,2.96-9.14,4.08c-2.63,1.13-4.88,1.97-6.75,2.53c-1.88,0.56-3.28,0.47-4.22-0.28c-0.94-0.56-1.22-1.83-0.84-3.8
			c0.37-1.97,1.13-3.98,2.25-6.05c1.13-2.06,2.44-3.8,3.94-5.21C1150.66,805.13,1152.16,804.71,1153.66,805.27z"/>
		<path d="M1204.31,810.62c0.56-0.75,1.03-1.87,1.41-3.38c0.18-0.75,0.28-1.41,0.28-1.97c0.56-0.56,1.31-0.28,2.25,0.84
			c0.94,1.13,1.83,2.53,2.67,4.22s1.45,3.52,1.83,5.49c0.37,1.97,0.18,3.52-0.56,4.64c-3.57,4.88-7.88,11.02-12.94,18.43
			c-5.07,7.41-9.85,14.54-14.35,21.38c-4.5,6.85-8.2,12.66-11.11,17.45c-2.91,4.78-3.89,6.99-2.95,6.61
			c4.13-1.5,8.26-3.66,12.38-6.47s7.88-6.19,11.26-10.13c3.38-3.94,6.14-8.44,8.3-13.51c2.15-5.06,3.33-10.6,3.52-16.6
			c3.56,2.81,5.39,5.91,5.49,9.29c0.09,3.38-0.94,6.85-3.09,10.41c-2.16,3.57-5.06,7.03-8.72,10.41c-3.66,3.38-7.41,6.47-11.25,9.29
			c-3.85,2.81-7.5,5.21-10.97,7.17c-3.47,1.97-5.95,3.33-7.46,4.08c-1.31,0.56-2.76,0.75-4.36,0.56c-1.59-0.18-2.58-0.75-2.95-1.69
			c-0.75-1.5-0.33-4.45,1.27-8.86c1.6-4.41,4.18-9.99,7.74-16.74c3.57-6.75,8.07-14.44,13.51-23.07
			C1190.89,829.85,1197.18,820.56,1204.31,810.62z M1226.54,772.63c1.31-0.18,2.58,0.33,3.8,1.55c1.22,1.22,2.2,2.77,2.95,4.64
			c0.75,1.88,1.22,3.75,1.41,5.63c0.18,1.88,0.09,3.38-0.28,4.5c-0.38,0.94-1.22,2.07-2.53,3.38c-1.31,1.31-2.81,2.72-4.5,4.22
			c-1.69,1.5-3.33,3.14-4.92,4.92c-1.6,1.79-2.77,3.52-3.52,5.21c-3.94-2.25-5.68-4.88-5.21-7.88c0.47-3,1.73-6.09,3.8-9.29
			c2.06-3.19,4.17-6.23,6.33-9.14C1226.02,777.46,1226.91,774.88,1226.54,772.63z"/>
		<path d="M1237.79,823.84c-0.56,0.56-1.83,1.97-3.8,4.22c-1.97,2.25-4.27,5.07-6.89,8.44c-2.63,3.38-5.44,7.08-8.44,11.11
			c-3,4.04-5.82,8.12-8.44,12.24c-0.18,0.38-0.23,0.61-0.14,0.7c0.1,0.1,0.14,0.24,0.14,0.42c4.88-7.32,10.08-14.25,15.62-20.82
			c5.53-6.56,10.74-12.38,15.62-17.45c4.88-5.06,9.19-9.1,12.94-12.1c3.75-3,6.28-4.5,7.6-4.5c0.75,0,1.55,0.52,2.39,1.55
			c0.84,1.03,1.55,2.25,2.11,3.66c0.56,1.41,0.89,2.86,0.99,4.36c0.09,1.5-0.24,2.72-0.99,3.66c-3.38,5.07-7.74,11.3-13.08,18.71
			c-5.35,7.41-10.46,14.54-15.33,21.38c-4.88,6.85-8.86,12.66-11.96,17.45c-3.1,4.78-4.18,6.99-3.24,6.61
			c4.12-1.69,8.34-3.89,12.66-6.61c4.31-2.72,8.3-6.05,11.96-9.99c3.66-3.94,6.7-8.44,9.14-13.51c2.44-5.06,3.75-10.6,3.94-16.6
			c3.56,2.81,5.35,5.91,5.35,9.29c0,3.38-1.17,6.8-3.52,10.27c-2.35,3.47-5.44,6.94-9.29,10.41c-3.85,3.47-7.79,6.61-11.82,9.43
			c-4.04,2.81-7.83,5.21-11.4,7.18c-3.57,1.97-6.1,3.33-7.6,4.08c-1.31,0.56-2.81,0.75-4.5,0.56c-1.69-0.18-2.72-0.75-3.09-1.69
			c-0.38-1.69,0.23-4.45,1.83-8.3c1.59-3.84,3.8-8.16,6.61-12.94c2.81-4.78,5.86-9.75,9.14-14.91c3.28-5.16,6.33-9.85,9.14-14.07
			s5.06-7.69,6.75-10.41c1.69-2.72,2.34-4.08,1.97-4.08c-2.44,0.94-5.82,3.57-10.13,7.88c-4.32,4.32-8.86,9.33-13.65,15.05
			c-4.78,5.72-9.43,11.63-13.93,17.73c-4.5,6.1-8.16,11.4-10.97,15.9c-1.87,4.32-2.53,7.13-1.97,8.44c0.38,0.75,0.28,1.17-0.28,1.27
			c-0.56,0.1-1.03,0.14-1.41,0.14c-3-0.75-4.41-2.81-4.22-6.19c0.19-3.38,1.27-7.5,3.24-12.38c1.97-4.88,4.64-10.17,8.02-15.9
			c3.38-5.72,6.75-11.21,10.13-16.46c3.38-5.25,6.56-9.99,9.57-14.21c3-4.22,5.25-7.27,6.75-9.14c0.37-0.75,0.75-1.87,1.13-3.38
			c0.18-0.56,0.28-1.13,0.28-1.69c0.56-0.56,1.27-0.28,2.11,0.84c0.84,1.13,1.64,2.53,2.39,4.22c0.75,1.69,1.22,3.52,1.41,5.49
			C1238.82,821.17,1238.54,822.72,1237.79,823.84z"/>
		<path d="M1415.61,832.56c7.88-2.44,15.85-2.44,23.92,0c3.19-3,6.19-6.09,9-9.29c2.81-3.19,5.53-6.38,8.16-9.57
			c0.94-1.13,1.78-2.34,2.53-3.66c0.75-1.31,1.59-2.63,2.53-3.94l-0.28-0.28c-7.5-3.19-14.49-7.83-20.96-13.93
			c-6.47-6.09-11.49-12.9-15.05-20.4c-2.25-4.69-3.61-9.61-4.08-14.77c-0.47-5.16,0.09-9.94,1.69-14.35
			c1.59-4.41,4.17-8.2,7.74-11.4c3.56-3.19,8.34-5.25,14.35-6.19c6-0.94,11.35-0.51,16.04,1.27c4.69,1.78,8.58,4.5,11.68,8.16
			c3.09,3.66,5.39,8.02,6.89,13.08c1.5,5.07,1.97,10.32,1.41,15.76c-0.75,7.13-2.25,14.07-4.5,20.82s-5.07,13.32-8.44,19.7
			c3.56,0.94,7.17,1.41,10.83,1.41c3.66,0,7.36-0.28,11.11-0.84c0-0.56,0-1.17,0-1.83c0-0.66,0.09-1.36,0.28-2.11
			c0.37-5.25,1.08-10.69,2.11-16.32c1.03-5.63,2.63-11.07,4.78-16.32c2.15-5.25,4.83-10.17,8.02-14.77
			c3.19-4.59,7.13-8.49,11.82-11.68c3.38-2.25,7.13-4.03,11.25-5.35c4.12-1.31,8.11-1.83,11.96-1.55c3.84,0.28,7.27,1.6,10.27,3.94
			c3,2.35,5.25,5.87,6.75,10.55c1.5,5.44,1.5,10.69,0,15.76c-1.5,5.07-3.85,9.85-7.04,14.35c-3.19,4.5-6.94,8.58-11.25,12.24
			c-4.32,3.66-8.54,6.71-12.66,9.15c-7.88,5.06-16.42,8.44-25.6,10.13c0.37,5.44,0.94,10.69,1.69,15.76
			c0.75,5.07,1.41,10.04,1.97,14.91c1.31,11.82,1.45,23.59,0.42,35.31c-1.03,11.73-4.27,22.93-9.71,33.63
			c-4.88,9.75-11.49,18.01-19.84,24.76c-8.35,6.75-17.96,11.16-28.84,13.22c-8.07,1.5-15.85,1.59-23.35,0.28
			c-7.5-1.31-14.35-3.85-20.54-7.6c-6.19-3.75-11.54-8.68-16.04-14.77c-4.5-6.1-7.79-13.18-9.85-21.24c-2.25-9.38-2.25-18.94,0-28.7
			l-3.66,0.84c-8.26,1.69-16.65,2.3-25.18,1.83c-8.54-0.47-16.37-3.14-23.5-8.02c-7.32-4.88-12.38-11.3-15.19-19.27
			c-2.81-7.97-3.09-16.18-0.84-24.62c1.87-7.5,5.06-14.49,9.57-20.96s9.85-12.14,16.04-17.02c6.19-4.88,12.9-8.91,20.12-12.1
			c7.22-3.19,14.58-5.35,22.09-6.47c3.94-0.75,8.06-1.08,12.38-0.99c4.31,0.1,8.49,0.61,12.52,1.55c4.03,0.94,7.92,2.39,11.68,4.36
			c3.75,1.97,7.04,4.46,9.85,7.46c3,3.38,4.92,6.99,5.77,10.83c0.84,3.85,0.79,7.69-0.14,11.54c-0.94,3.85-2.53,7.5-4.78,10.97
			c-2.25,3.47-4.88,6.61-7.88,9.43c2.62-3.94,4.92-8.16,6.89-12.66s2.48-9.19,1.55-14.07c-0.94-4.88-3.28-8.77-7.04-11.68
			c-3.75-2.91-7.79-5.02-12.1-6.33c-5.06-1.5-10.23-2.06-15.48-1.69c-2.25,0-3.75-0.47-4.5-1.41c-0.75-0.94-2.16-1.87-4.22-2.81
			c-1.69-0.94-3.94-1.03-6.75-0.28c-2.81,0.75-5.16,1.31-7.04,1.69c-2.81,0.75-5.63,1.6-8.44,2.53c-2.81,0.94-5.54,2.16-8.16,3.66
			c-4.32,2.25-8.54,4.97-12.66,8.16c-4.13,3.19-7.88,6.71-11.25,10.55c-3.38,3.85-6.24,8.02-8.58,12.52
			c-2.35,4.5-4.08,9.19-5.21,14.07c-1.31,5.63-1.31,10.74,0,15.33c1.31,4.6,3.47,8.68,6.47,12.24c3,3.57,6.75,6.52,11.25,8.86
			c4.5,2.35,9.29,3.9,14.35,4.64c5.81,0.94,11.63,1.27,17.45,0.98c5.81-0.28,11.63-1.17,17.45-2.67
			c3.19-8.06,7.88-15.15,14.07-21.24C1399.85,839.55,1407.17,835.19,1415.61,832.56z M1421.52,924.57
			c9.19-3.94,17.54-9.47,25.04-16.6c7.5-7.13,12.66-15.66,15.48-25.61c1.31-4.5,1.73-8.96,1.27-13.37
			c-0.47-4.41-1.64-8.58-3.52-12.52c-1.88-3.94-4.41-7.5-7.6-10.69c-3.19-3.19-6.85-5.72-10.97-7.6
			c-8.44,8.44-17.87,15.9-28.28,22.37c-10.41,6.47-21.43,11.3-33.06,14.49c-2.07,8.07-2.35,16.13-0.84,24.2
			c1.5,8.06,4.69,15.66,9.57,22.79c6.56,9.94,15.19,16.27,25.89,18.99c10.69,2.72,21.57,2.2,32.64-1.55
			c9.94-3.38,18.15-8.82,24.62-16.32c6.47-7.5,11.3-16.14,14.49-25.89c1.5-4.69,2.63-9.38,3.38-14.07
			c0.75-4.69,1.31-9.47,1.69-14.35c0-2.81-0.19-6.19-0.56-10.13c-0.38-3.94-1.08-7.69-2.11-11.25c-1.03-3.56-2.49-6.7-4.36-9.43
			c-1.88-2.72-4.41-4.26-7.6-4.64c0.75-0.56,1.78-0.99,3.09-1.27c1.31-0.28,2.67-0.42,4.08-0.42s2.72,0.19,3.94,0.56
			c1.22,0.38,2.2,1.03,2.95,1.97c-0.19-3.75-0.33-7.55-0.42-11.4c-0.1-3.84-0.14-7.64-0.14-11.4c-8.63,0.38-16.79-0.84-24.48-3.66
			c-1.5,2.63-3.14,5.16-4.92,7.6c-1.78,2.44-3.61,4.88-5.49,7.32c-3.38,4.32-6.85,8.35-10.41,12.1c8.06,3.75,14.82,9.47,20.26,17.16
			c5.44,7.69,8.34,16.14,8.72,25.32c0.18,6.01-1.13,12.48-3.94,19.42c-2.81,6.94-6.61,12.99-11.4,18.15
			c-4.78,5.16-10.41,8.86-16.88,11.11S1428.46,927.76,1421.52,924.57z M1382.97,865.77c9.57-2.63,18.8-6.56,27.71-11.82
			c8.91-5.25,17.12-11.16,24.62-17.73c-5.07-1.31-10.13-1.5-15.19-0.56c-5.07,0.94-9.8,2.67-14.21,5.21
			c-4.41,2.53-8.44,5.68-12.1,9.43c-3.66,3.75-6.71,7.79-9.14,12.1L1382.97,865.77z M1446,791.76c5.06,4.69,11.16,8.26,18.29,10.69
			c4.12-7.13,7.46-14.77,9.99-22.93c2.53-8.16,3.05-16.18,1.55-24.06c-0.94-4.69-3.19-8.72-6.75-12.1c-3.57-3.38-7.6-5.67-12.1-6.89
			c-4.5-1.22-9.05-1.17-13.65,0.14c-4.6,1.32-8.3,4.22-11.11,8.72c-2.25,3.75-3.33,7.79-3.24,12.1c0.09,4.32,0.94,8.63,2.53,12.94
			c1.59,4.32,3.7,8.35,6.33,12.1C1440.46,786.23,1443.19,789.33,1446,791.76z M1514.66,749.56c-6.57,7.32-10.74,15.48-12.52,24.48
			c-1.79,9-2.49,18.29-2.11,27.86c3.38-1.31,6.28-2.53,8.72-3.66c3.94-2.06,8.16-4.59,12.66-7.6c4.5-3,8.72-6.42,12.66-10.27
			c3.94-3.84,7.32-7.92,10.13-12.24c2.81-4.31,4.5-8.91,5.06-13.79c0.37-2.81,0-5.67-1.13-8.58c-1.13-2.91-3.09-4.92-5.91-6.05
			c-2.44-1.13-4.92-1.55-7.46-1.27s-5.02,0.94-7.46,1.97c-2.44,1.03-4.74,2.39-6.89,4.08
			C1518.26,746.18,1516.34,747.87,1514.66,749.56z"/>
		<path d="M1583.31,810.05c2.25,2.63,2.67,7.46,1.27,14.49c-1.41,7.03-5.77,15.62-13.08,25.75l-5.63,7.6
			c2.25,0.75,4.36,0.66,6.33-0.28c1.97-0.94,3.7-2.39,5.21-4.36c1.5-1.97,2.67-4.36,3.52-7.17c0.84-2.81,1.27-5.91,1.27-9.29
			c3.38,2.44,5.02,5.35,4.92,8.72c-0.1,3.38-1.17,6.43-3.24,9.14c-2.07,2.72-4.92,4.69-8.58,5.91c-3.66,1.22-7.36,0.99-11.11-0.7
			c-2.25,2.81-4.74,5.68-7.46,8.58c-2.72,2.91-5.54,5.63-8.44,8.16c-2.91,2.53-5.96,4.74-9.14,6.61c-3.19,1.88-6.38,3.19-9.57,3.94
			c-2.25,0.56-4.5,0.28-6.75-0.84c-2.25-1.13-3.66-3.38-4.22-6.75c-0.56-3.38,0.1-8.06,1.97-14.07c1.88-6,5.72-13.79,11.54-23.35
			c4.69-7.5,9.66-13.79,14.91-18.85c5.25-5.06,10.27-8.91,15.05-11.54c4.78-2.63,9.1-4.03,12.94-4.22
			C1578.85,807.34,1581.62,808.18,1583.31,810.05z M1530.41,883.49c3.75-2.44,8.02-6.42,12.8-11.96
			c4.78-5.53,9.43-11.58,13.93-18.15c-0.38-1.87-0.19-4.03,0.56-6.47c0.75-2.44,1.87-4.88,3.38-7.32c1.5-2.44,3.33-4.78,5.49-7.04
			c2.15-2.25,4.45-4.31,6.89-6.19c3.56-6.75,5.35-11.35,5.35-13.79c-0.19-1.13-1.08-1.73-2.67-1.83c-1.6-0.09-3.52,0.89-5.77,2.96
			c-3.19,2.63-6.75,6.43-10.69,11.4c-3.94,4.97-7.79,10.27-11.54,15.9c-3.75,5.63-7.22,11.25-10.41,16.88
			c-3.19,5.63-5.68,10.6-7.46,14.91c-1.78,4.32-2.77,7.55-2.96,9.71C1527.13,884.67,1528.16,885,1530.41,883.49z"/>
		<path d="M1592.03,884.06c-0.38-3.38-0.38-6.8,0-10.27c0.37-3.47,0.99-6.75,1.83-9.85c0.84-3.1,1.73-5.91,2.67-8.44
			c0.94-2.53,1.87-4.45,2.81-5.77l-9,4.5c-3,4.5-5.67,8.77-8.02,12.8c-2.34,4.04-4.22,7.55-5.63,10.55c-1.41,3-2.2,5.44-2.39,7.32
			c-0.18,1.88,0.28,3,1.41,3.38c-1.5,0.75-3.19,0.84-5.06,0.28c-1.87-0.56-3-1.31-3.38-2.25c-0.37-2.06,0.47-5.63,2.53-10.69
			c2.07-5.06,5.02-10.97,8.86-17.73c3.85-6.75,8.3-14.21,13.37-22.37c5.07-8.16,10.36-16.36,15.9-24.62
			c5.53-8.25,11.02-16.36,16.46-24.34c5.44-7.97,10.5-15.33,15.19-22.09c0.56-0.75,1.03-1.87,1.41-3.38
			c0.18-0.56,0.28-1.13,0.28-1.69c0.56-0.56,1.31-0.33,2.25,0.7c0.94,1.03,1.83,2.44,2.67,4.22c0.84,1.79,1.45,3.61,1.83,5.49
			c0.37,1.88,0.18,3.38-0.56,4.5c-2.07,2.81-5.07,6.89-9,12.24c-3.94,5.35-8.4,11.35-13.37,18.01
			c-4.97,6.66-10.13,13.74-15.48,21.24c-5.35,7.5-10.37,14.73-15.05,21.67c5.63-3.56,11.12-7.55,16.46-11.96
			c5.35-4.41,9.99-8.63,13.93-12.66c3.94-4.03,7.04-7.55,9.29-10.55c2.25-3,3.09-5.06,2.53-6.19c0.94-0.56,1.97-0.33,3.09,0.7
			c1.13,1.03,2.11,2.3,2.96,3.8c0.84,1.5,1.41,3.1,1.69,4.78c0.28,1.69,0.14,3-0.42,3.94c-0.75,1.13-2.16,2.53-4.22,4.22
			c-2.07,1.69-4.6,3.57-7.6,5.63c-3,2.07-6.29,4.27-9.85,6.61c-3.57,2.35-7.22,4.64-10.97,6.89c2.44,0,3.94,1.13,4.5,3.38
			c-2.44-0.94-4.69-0.19-6.75,2.25c-2.07,2.44-3.85,5.63-5.35,9.57c-1.5,3.94-2.58,8.16-3.24,12.66c-0.66,4.5-0.8,8.35-0.42,11.54
			c3.38-2.44,7.03-5.25,10.97-8.44c3.94-3.19,7.55-6.7,10.83-10.55c3.28-3.84,6-7.97,8.16-12.38c2.15-4.41,3.33-9.05,3.52-13.93
			c3.38,2.81,5.02,5.82,4.92,9c-0.1,3.19-1.27,6.52-3.52,9.99c-2.25,3.47-5.21,6.89-8.86,10.27c-3.66,3.38-7.36,6.47-11.11,9.29
			c-3.75,2.81-7.17,5.35-10.27,7.6c-3.09,2.25-5.11,3.94-6.05,5.07c-0.75,0.94-2.02,0.89-3.8-0.14
			C1593.2,886.83,1592.22,885.56,1592.03,884.06z"/>
		<path d="M1687.98,810.62c0.75-1.5,1.22-2.62,1.41-3.38c0.18-0.75,0.28-1.41,0.28-1.97c0.37-0.56,1.08-0.28,2.11,0.84
			c1.03,1.13,1.97,2.53,2.81,4.22c0.84,1.69,1.45,3.52,1.83,5.49c0.37,1.97,0.18,3.52-0.56,4.64c-3.57,4.88-7.88,11.02-12.94,18.43
			c-5.06,7.41-9.85,14.54-14.35,21.38c-4.5,6.85-8.21,12.66-11.11,17.45c-2.91,4.78-3.9,6.99-2.96,6.61
			c4.12-1.5,8.11-3.66,11.96-6.47c3.84-2.81,7.27-6.19,10.27-10.13c3-3.94,5.49-8.44,7.46-13.51c1.97-5.06,3.05-10.6,3.24-16.6
			c3.56,2.81,5.44,5.91,5.63,9.29c0.18,3.38-0.7,6.85-2.67,10.41c-1.97,3.57-4.69,7.03-8.16,10.41c-3.47,3.38-7.03,6.47-10.69,9.29
			c-3.66,2.81-7.13,5.21-10.41,7.17c-3.28,1.97-5.68,3.33-7.17,4.08c-1.31,0.56-2.77,0.75-4.36,0.56c-1.6-0.18-2.58-0.75-2.95-1.69
			c-1.13-1.69-0.38-5.53,2.25-11.54c-3.19,2.63-6.29,4.97-9.29,7.03c-3,2.07-5.72,3.66-8.16,4.78c-0.94,0.56-2.01,0.99-3.24,1.27
			c-1.22,0.28-2.29,0.33-3.24,0.14c-0.94-0.18-1.69-0.75-2.25-1.69c-0.56-0.94-0.56-2.44,0-4.5c1.69-7.88,4.32-15.9,7.88-24.06
			c3.57-8.16,7.5-15.8,11.82-22.93c4.31-7.13,8.77-13.37,13.37-18.71c4.59-5.35,8.86-9.19,12.8-11.54
			c3.94-2.34,7.32-2.77,10.13-1.27c2.81,1.5,4.59,5.54,5.35,12.1L1687.98,810.62z M1667.44,841.29c2.06-3.38,4.26-6.84,6.61-10.41
			c2.34-3.56,4.83-7.32,7.46-11.26c-0.56-5.25-2.3-7.27-5.21-6.05c-2.91,1.22-6.43,4.18-10.55,8.86
			c-4.13,4.69-8.44,10.55-12.94,17.59s-8.54,13.84-12.1,20.4c-3.56,6.57-6.33,12.15-8.3,16.74c-1.97,4.6-2.39,6.89-1.27,6.89
			c1.31,0,3.66-1.59,7.03-4.78c3.38-3.19,6.85-7.13,10.41-11.82c3.56-4.69,6.66-9.75,9.29-15.19c2.63-5.44,3.84-10.31,3.66-14.63
			C1664.16,838.75,1666.13,839.98,1667.44,841.29z"/>
		<path d="M1697.26,884.06c-0.38-3.38-0.38-6.8,0-10.27c0.37-3.47,0.99-6.75,1.83-9.85c0.84-3.1,1.73-5.91,2.67-8.44
			c0.94-2.53,1.87-4.45,2.81-5.77l-9,4.5c-3,4.5-5.67,8.77-8.02,12.8c-2.34,4.04-4.22,7.55-5.63,10.55c-1.41,3-2.2,5.44-2.39,7.32
			c-0.18,1.88,0.28,3,1.41,3.38c-1.5,0.75-3.19,0.84-5.06,0.28c-1.87-0.56-3-1.31-3.38-2.25c-0.37-2.06,0.47-5.63,2.53-10.69
			c2.07-5.06,5.02-10.97,8.86-17.73c3.85-6.75,8.3-14.21,13.37-22.37c5.07-8.16,10.36-16.36,15.9-24.62
			c5.53-8.25,11.02-16.36,16.46-24.34c5.44-7.97,10.5-15.33,15.19-22.09c0.56-0.75,1.03-1.87,1.41-3.38
			c0.18-0.56,0.28-1.13,0.28-1.69c0.56-0.56,1.31-0.33,2.25,0.7c0.94,1.03,1.83,2.44,2.67,4.22c0.84,1.79,1.45,3.61,1.83,5.49
			c0.37,1.88,0.18,3.38-0.56,4.5c-2.07,2.81-5.07,6.89-9,12.24c-3.94,5.35-8.4,11.35-13.37,18.01
			c-4.97,6.66-10.13,13.74-15.48,21.24c-5.35,7.5-10.37,14.73-15.05,21.67c5.63-3.56,11.12-7.55,16.46-11.96
			c5.35-4.41,9.99-8.63,13.93-12.66c3.94-4.03,7.04-7.55,9.29-10.55c2.25-3,3.09-5.06,2.53-6.19c0.94-0.56,1.97-0.33,3.09,0.7
			c1.13,1.03,2.11,2.3,2.96,3.8c0.84,1.5,1.41,3.1,1.69,4.78c0.28,1.69,0.14,3-0.42,3.94c-0.75,1.13-2.16,2.53-4.22,4.22
			c-2.07,1.69-4.6,3.57-7.6,5.63c-3,2.07-6.29,4.27-9.85,6.61c-3.57,2.35-7.22,4.64-10.97,6.89c2.44,0,3.94,1.13,4.5,3.38
			c-2.44-0.94-4.69-0.19-6.75,2.25c-2.07,2.44-3.85,5.63-5.35,9.57c-1.5,3.94-2.58,8.16-3.24,12.66c-0.66,4.5-0.8,8.35-0.42,11.54
			c3.38-2.44,7.03-5.25,10.97-8.44c3.94-3.19,7.55-6.7,10.83-10.55c3.28-3.84,6-7.97,8.16-12.38c2.15-4.41,3.33-9.05,3.52-13.93
			c3.38,2.81,5.02,5.82,4.92,9c-0.1,3.19-1.27,6.52-3.52,9.99c-2.25,3.47-5.21,6.89-8.86,10.27c-3.66,3.38-7.36,6.47-11.11,9.29
			c-3.75,2.81-7.17,5.35-10.27,7.6c-3.09,2.25-5.11,3.94-6.05,5.07c-0.75,0.94-2.02,0.89-3.8-0.14
			C1698.43,886.83,1697.45,885.56,1697.26,884.06z"/>
	</g>
</g>
</svg>
