<svg id="logo" data-name="logo" xmlns="http://www.w3.org/2000/svg" viewBox="0 0 1422.01 626.78"><defs><style>.cls-1{font-size:281.38px;fill:#231f20;font-family:BillionStarsPersonalUse, Billion Stars Personal Use ;}</style></defs><title>Logo</title><path d="M409.81,506.43a.78.78,0,0,0,.93-.41c2.86-5.85,5.9-12.74,9.4-19.4,4.58-8.69,11.6-13.64,19.59-17.73,18.79-9.6,38.4-11.15,58.63-4.92,12.48,3.85,24.83,8.36,37.57,11,25.1,5.21,35-2.34,44.78-20.73,5.93-11.17,11-22.79,17-33.94,10.08-18.77,31.66-27.92,52.55-22.81,22.55,5.52,38.47,17.93,44.35,41.42,6.93,27.69-8.65,53.69-37.19,60.2-3.75.86-7.59,1.32-11.3,1.91a.8.8,0,0,0-.66.9c.84,5.5,2.37,10.89,2.07,16.19-1.09,19.45,3.49,37.83,8.88,56.23a220.78,220.78,0,0,1,5.8,26.75c.83,5.06-2.43,8-7.48,7.59-6.08-.49-12.08-2-18.17-2.51-38.54-3-74.62,5.9-108.24,24.28-17.93,9.81-35,21.27-53.42,32.65a.79.79,0,0,1-1.08-.24c-1.55-2.42-4.28-5.85-5.58-9.76-7.39-22.27-23.16-37.24-42.1-49.59-1.46-1-2.41-1.72-4-2.61a1,1,0,0,0-.88,0c-36.54,21-77.37,5-88.55-34-5.09-17.71,5-43.25,20.21-54.15,11.15-8,23.14-13.81,37.16-12C396.83,501.59,403.29,504.42,409.81,506.43Zm239.13,85.46a.8.8,0,0,0,.87-1c-2.53-9.94-5.28-18.94-6.9-28.15a349.06,349.06,0,0,1-4.34-35.18c-.49-6.75.58-13.64,1.22-20.44.38-4.07-1.63-5.22-5-6.93-5.22-2.6-11.07-5.65-14.1-10.63-1.1-1.8-1-7.22,1.27-8.7,1.39-.9,5.27-.39,8-.07,5.41.64,11.17,3.21,16.09,2.05,14.16-3.35,27.32-9.59,31.56-25.12,3.51-12.86-1.71-24.53-9.75-35a32.78,32.78,0,0,0-33.48-12.13c-11.07,2.63-18.52,10.45-22.8,21.72-4.1,10.78-7.56,21.83-12.25,32.34-3.5,7.86-6.76,15.92-14.66,21.35-17.62,12.1-36.48,12.4-55.91,7-15.09-4.19-29.71-10.16-44.89-13.89-8.45-2.07-18.05-3.09-26.38-1.23-19.53,4.37-30.16,18-33.08,37.77-1.39,9.41-4.4,11.35-13.83,8.87-10.35-2.73-20.55-4.13-30.87,0S360,533,354.5,544.45s-9.23,22.81-1.39,34.75c13.58,20.66,36.24,28.28,61.24,15.74,10.4-5.22,19.73-12.56,30.66-20.16a.8.8,0,0,1,1.08,1.15L429.15,597.5a.8.8,0,0,0,.33,1.23c22.87,9.36,39,27,49.36,50.59a.79.79,0,0,0,1.37.15c19.58-27.18,48.9-36.83,77.36-47.07A199.09,199.09,0,0,1,648.94,591.89Z" transform="translate(-331.43 -396.09)"/><path d="M848.51,743.39a.89.89,0,0,1,.14-1.5c10.76-5.27,21-9.88,30.76-15.32,13.15-7.31,18.39-20.85,24.26-33.56a67.44,67.44,0,0,1,22.15-26.93c8.42-6.14,16-13.63,23.06-21.31,2.26-2.46,3.28-8,2.19-11.2-2.18-6.38-8.6-6.09-13.35-3.75-10.47,5.16-20.46,11.31-30.62,17.09-1.52.87-3,1.87-5,3.22a.88.88,0,0,1-1.36-.84c.8-6.6,5.13-10.45,8.19-14.66,6.44-8.85,13.59-17.18,20.27-25.85a28.29,28.29,0,0,0,4.53-7.94c.84-2.5,1.67-6.39.41-7.82s-5.38-1.73-7.85-1.07c-14.25,3.76-24.09,13.36-32.7,24.85-4,5.39-9.18,10-14.62,15.56a.88.88,0,0,1-1.48-.37c-2-7-3.75-12.12-4.91-17.38-2.78-12.57-21.69-17.31-29.64-6.54-7.52,10.2-13.66,20.88-10.66,34.17,1.26,5.57,5.08,6.41,9.71,3,1.76-1.31,3.52-2.6,5.26-3.92,8-6.1,9.73-5.58,14.24,3.07,9.51,18.27-2.17,35.63-15.51,43.38-11.8,6.85-23.88,1-28.34-12.66-3-9.07-4.82-18.51-8.24-27.38-3.19-8.26-6.56-8.41-13-2.44-12,11.13-9,24.81-6.32,38.15,1.74,8.57,7.16,14.83,15.44,18.41,4,1.73,7.89,3.82,11.73,5.92,6.31,3.44,8.46,7,7.79,15a.88.88,0,0,1-1.65.33c-7.87-15.25-23.66-18.91-36-27.18-14.37-9.64-19.54-34.48-11.07-49.4A38.55,38.55,0,0,1,799.15,628c9.35-3,17,1.92,18.25,11.61a201.56,201.56,0,0,1,1.37,20.41c.25,9.58,4.8,15,14.84,16.87,5.17,1,13.41-4.45,15.54-11.22,1.76-5.58,2.65-11.43,3.88-17.58a.88.88,0,0,0-1.32-.92c-4.6,2.83-8.26,5.82-12.4,6.76-10.39,2.35-21.34-9.3-18.73-20.24,3.35-14.08,7.92-27.78,19.67-37.77a19.83,19.83,0,0,1,21.89-2.1,36.29,36.29,0,0,1,17.79,21.72.88.88,0,0,0,1.52.31c6.44-7.68,12.48-15.62,19.43-22.67C909,585,918.48,579,931,579.35c13.92.44,20.56,10,15.37,22.92-1.35,3.36-3,6.61-4.51,9.81a.88.88,0,0,0,.82,1.26c3.71-.12,7.51-.63,11,.16C969.22,617,972,630.7,968.9,644c-3.51,15-14.16,24.3-26,32.42-9.71,6.63-15.56,16-19.63,26.51-8.05,20.71-20.86,36.81-43,42.61-8.35,2.19-19.42,1.6-24.89.69A20.24,20.24,0,0,1,848.51,743.39Z" transform="translate(-331.43 -396.09)"/><path d="M506.31,927.74c-5.36-12.36-7.82-24-3.05-36.46,8.55-22.42,23.62-39.68,41.74-54.91,15.79-13.28,32.46-25.21,51.25-33.64,13.85-6.21,28.34-11.06,42.76-15.88,4-1.32,6.53-2.48,7.55-6.75,1.36-5.77,5.2-9.93,11.14-10.37,4.81-.36,7.91,3.09,10.85,7.09,1.81,2.46,6.25,4.4,9.39,4.25a123.16,123.16,0,0,1,67.61,15.83,172.33,172.33,0,0,1,49.69,41.61c17.77,21.86,32.7,45.27,41,72.46,2.75,9,.5,16.87-5.8,18.55-12.81,3.42-19,1.1-22.29-9.8a199.65,199.65,0,0,0-29.48-59.55c-22.76-31.6-52.6-53.14-91.36-59.94-26.91-4.72-53.16-.72-78.44,10.3-26,11.32-48.65,27.51-68.62,47.16C527.21,870.56,513.82,884,510,903.29,508.42,910.94,507.63,918.75,506.31,927.74Z" transform="translate(-331.43 -396.09)"/><path d="M767.64,666.41c-11.07,14.63-24.95,20.71-40,23.74-17.09,3.43-34.58,4.91-51.66,8.41-13.62,2.79-25,10.47-34,21.15a12,12,0,0,0-2.17,6c-1.84,14.94-8.44,17.7-22.53,19.47a20.6,20.6,0,0,0-7.64,2.72c-12,7.09-18.18,6.75-27-.15-13.72-10.78-28.84-7.07-42.58-.65-13.16,6.15-25,15.11-37.71,22.26-20.81,11.67-35.66,16.86-57.92,13.53,4.92-2.31,8.36-4.12,11.95-5.58C473.1,770.49,486.5,759,499.62,747c14.74-13.48,29.76-26.82,50.38-30.36,18-3.1,36.14-5,54,2.72,3.68-4.73,7.32-10.15,11.69-14.89,14.27-15.47,31.44-26.7,52.64-28.51,20.73-1.77,41.67-.69,62.47-1.82,9-.49,17.88-3.35,26.8-5.2C760.38,668.34,763.1,667.55,767.64,666.41Z" transform="translate(-331.43 -396.09)"/><path d="M468.52,945.31c1.83-.35,3.71.88,4.85,1.64,15.24,10.24,33.15,11.39,50.37,14.74,13.06,2.54,26.21,4.66,39.39,6.49,12.6,1.75,25.25,3.61,37.93,4.12,24.61,1,49.31,2.22,73.88,1.15,22.48-1,44.84-4.76,67.24-7.48,23.94-2.9,46.89-9.52,69.08-18.88,9.84-4.14,19.67-8.29,29.63-12.12,4.42-1.71,9.11-3.48,13.74-3.65,3.16-.12,7.78,1.63,9.28,4.06s1,7.34-.49,10.15c-5.08,9.48-14.91,13.31-24.06,17.17-26.34,11.11-54,18.35-81.88,24-13.69,2.79-27.89,3.51-41.91,4.25-18.37,1-36.83,2.07-55.17,1.21-25.88-1.22-51.84-3.08-77.47-6.71-24.31-3.45-48.43-8.8-72.28-14.7C494.7,966.85,479.32,960.54,468.52,945.31Z" transform="translate(-331.43 -396.09)"/><path d="M798.28,729.87c6.24,20.5,23.74,26.75,41.22,32.48,7.36,2.42,15.34,3,23.08,4.18,5.22.76,9.32,3.59,9.36,8.48s-2.81,8.39-9,9.07c-22.64,2.52-42.35-3.22-58.56-19.42C794.28,754.58,792,741,798.28,729.87Z" transform="translate(-331.43 -396.09)"/><path d="M636.39,1011.18c-4-2.59-1.17-8.85,3.46-7.62,6.16,1.63,12.26,3.25,18.34,4.9a163.25,163.25,0,0,0,58.21,5.13c22.61-2.14,44.47-8.05,64.3-19.86a8,8,0,0,1,2.92-1.44l.26,0a4.23,4.23,0,0,1,4.24,5.8,2.75,2.75,0,0,1-.89,1.19c-13,9-27.39,15.54-42.85,18.34-15.88,2.88-32.11,5.14-48.2,5.27-19.43.15-38.54-4-57-10.4A13.05,13.05,0,0,1,636.39,1011.18Z" transform="translate(-331.43 -396.09)"/><path d="M551,677.77c-17.94-.91-26.61,5.24-27.92,19.77-7.07-2.6-10.67-10.6-9-20,1.16-6.5,10.7-14.87,17.21-15.09C540.1,662.16,548.89,669,551,677.77Z" transform="translate(-331.43 -396.09)"/><path d="M567.16,697.47a2.28,2.28,0,0,1,2.83-3c5.89,1.92,11.8,4,17.89,5.06,7.41,1.25,13.08-2.66,16.6-9.38a10.45,10.45,0,0,1,2.09-3.29,38.14,38.14,0,0,1,3.85-2.79,2.28,2.28,0,0,1,3.19.7c1.52,2.41,3.33,4.87,3,7-1.93,11.07-12.22,19.43-22,18.66-4.36-.35-8.88-.11-13-1.25C573.5,706.9,569.59,703.64,567.16,697.47Z" transform="translate(-331.43 -396.09)"/><path d="M675.77,627.94c16.73-3.06,41.3,13,47.06,29.83.42,1.22,1.24,2.6,1,3.68-.16.62-.34,1.23-.55,1.83a4.21,4.21,0,0,1-7.3,1.25l0,0c-4.83-6.44-8.74-13.71-14.25-19.45a30.6,30.6,0,0,0-22.2-9.46c-3.64,0-7.3-.53-7.23-4.63C672.25,629.76,674.28,628.21,675.77,627.94Z" transform="translate(-331.43 -396.09)"/><path d="M480.42,699.19c-14,9.67-16.05,28.41-15.44,45.27,2.09,10.51,4.22,11.82,5.18,12.39.54.33,1.11.63,1.68.91a4.22,4.22,0,0,0,6.05-4.28.17.17,0,0,1,0-.07c-2-7.36-3.21-9.47-3.21-23.52,0-7.49,2.46-16.52,8.54-22.69,2.56-2.58,4.79-5.54,1.84-8.38C484.2,698,481.67,698.33,480.42,699.19Z" transform="translate(-331.43 -396.09)"/><path d="M617.53,656.53c-7.24-8.88-4.55-17,.31-22.39,5.54-6.17,13.62-6.93,20.87-2.47,7.46,4.58,9.84,12.85,6.25,21.74C633.94,642.88,628.19,643.54,617.53,656.53Z" transform="translate(-331.43 -396.09)"/><path d="M601,766.08c12,2.64,21.37-1.49,30.37-7.46.53,8.31-2.29,13.49-8,15.53C616.46,776.6,606.57,773.4,601,766.08Z" transform="translate(-331.43 -396.09)"/><text class="cls-1" transform="translate(509.63 501.19)">Tozin Sokak</text></svg>