<?xml version="1.0" encoding="utf-8"?>
<!-- Generator: Adobe Illustrator 23.0.2, SVG Export Plug-In . SVG Version: 6.00 Build 0)  -->
<svg version="1.1" id="logo" xmlns="http://www.w3.org/2000/svg" xmlns:xlink="http://www.w3.org/1999/xlink" x="0px" y="0px"
	 viewBox="0 0 1422 626.8" style="enable-background:new 0 0 1422 626.8;" xml:space="preserve">
<style type="text/css">
	.st0{enable-background:new    ;}
	.st1{fill:#231F20;}
</style>
<title>Logo</title>
<path d="M78.4,110.3c0.4,0.1,0.8-0.1,0.9-0.4c2.9-5.9,5.9-12.7,9.4-19.4c4.6-8.7,11.6-13.6,19.6-17.7c18.8-9.6,38.4-11.1,58.6-4.9
	c12.5,3.9,24.8,8.4,37.6,11c25.1,5.2,35-2.3,44.8-20.7c5.9-11.2,11-22.8,17-33.9c10.1-18.8,31.7-27.9,52.5-22.8
	c22.5,5.5,38.5,17.9,44.3,41.4c6.9,27.7-8.7,53.7-37.2,60.2c-3.8,0.9-7.6,1.3-11.3,1.9c-0.4,0.1-0.7,0.5-0.7,0.9
	c0.8,5.5,2.4,10.9,2.1,16.2c-1.1,19.5,3.5,37.8,8.9,56.2c2.5,8.8,4.4,17.7,5.8,26.8c0.8,5.1-2.4,8-7.5,7.6c-6.1-0.5-12.1-2-18.2-2.5
	c-38.5-3-74.6,5.9-108.2,24.3c-17.9,9.8-35,21.3-53.4,32.7c-0.4,0.2-0.8,0.1-1.1-0.2c-1.5-2.4-4.3-5.8-5.6-9.8
	c-7.4-22.3-23.2-37.2-42.1-49.6c-1.5-1-2.4-1.7-4-2.6c-0.3-0.1-0.6-0.1-0.9,0c-36.5,21-77.4,5-88.6-34c-5.1-17.7,5-43.3,20.2-54.2
	c11.1-8,23.1-13.8,37.2-12C65.4,105.5,71.9,108.3,78.4,110.3z M317.5,195.8c0.4,0.1,0.8-0.3,0.9-0.7c0-0.1,0-0.2,0-0.3
	c-2.5-9.9-5.3-18.9-6.9-28.2c-2-11.6-3.5-23.4-4.3-35.2c-0.5-6.8,0.6-13.6,1.2-20.4c0.4-4.1-1.6-5.2-5-6.9
	c-5.2-2.6-11.1-5.6-14.1-10.6c-1.1-1.8-1-7.2,1.3-8.7c1.4-0.9,5.3-0.4,8-0.1c5.4,0.6,11.2,3.2,16.1,2c14.2-3.4,27.3-9.6,31.6-25.1
	c3.5-12.9-1.7-24.5-9.8-35c-7.8-10.3-20.9-15-33.5-12.1c-11.1,2.6-18.5,10.5-22.8,21.7c-4.1,10.8-7.6,21.8-12.3,32.3
	c-3.5,7.9-6.8,15.9-14.7,21.4c-17.6,12.1-36.5,12.4-55.9,7c-15.1-4.2-29.7-10.2-44.9-13.9c-8.5-2.1-18-3.1-26.4-1.2
	c-19.5,4.4-30.2,18-33.1,37.8c-1.4,9.4-4.4,11.3-13.8,8.9c-10.4-2.7-20.5-4.1-30.9,0s-19.7,8.5-25.2,19.9s-9.2,22.8-1.4,34.8
	c13.6,20.7,36.2,28.3,61.2,15.7c10.4-5.2,19.7-12.6,30.7-20.2c0.4-0.2,0.9-0.1,1.1,0.2c0.2,0.3,0.2,0.7,0,0.9l-16.9,21.6
	c-0.3,0.3-0.2,0.9,0.1,1.1c0.1,0,0.1,0.1,0.2,0.1c22.9,9.4,39,27,49.4,50.6c0.2,0.4,0.6,0.6,1,0.4c0.1-0.1,0.2-0.1,0.3-0.3
	c19.6-27.2,48.9-36.8,77.4-47.1C255.4,195.7,286.7,192.1,317.5,195.8z"/>
<path d="M517.1,347.3c-0.4-0.3-0.5-0.9-0.2-1.2c0.1-0.1,0.2-0.2,0.3-0.3c10.8-5.3,21-9.9,30.8-15.3c13.2-7.3,18.4-20.8,24.3-33.6
	c4.9-10.8,12.5-20.1,22.2-26.9c8.4-6.1,16-13.6,23.1-21.3c2.3-2.5,3.3-8,2.2-11.2c-2.2-6.4-8.6-6.1-13.3-3.8
	c-10.5,5.2-20.5,11.3-30.6,17.1c-1.5,0.9-3,1.9-5,3.2c-0.4,0.3-1,0.2-1.2-0.2c-0.1-0.2-0.2-0.4-0.1-0.6c0.8-6.6,5.1-10.5,8.2-14.7
	c6.4-8.8,13.6-17.2,20.3-25.8c1.9-2.4,3.5-5.1,4.5-7.9c0.8-2.5,1.7-6.4,0.4-7.8s-5.4-1.7-7.8-1.1c-14.3,3.8-24.1,13.4-32.7,24.8
	c-4,5.4-9.2,10-14.6,15.6c-0.3,0.3-0.9,0.4-1.2,0c-0.1-0.1-0.2-0.2-0.2-0.4c-2-7-3.8-12.1-4.9-17.4c-2.8-12.6-21.7-17.3-29.6-6.5
	c-7.5,10.2-13.7,20.9-10.7,34.2c1.3,5.6,5.1,6.4,9.7,3c1.8-1.3,3.5-2.6,5.3-3.9c8-6.1,9.7-5.6,14.2,3.1c9.5,18.3-2.2,35.6-15.5,43.4
	c-11.8,6.8-23.9,1-28.3-12.7c-3-9.1-4.8-18.5-8.2-27.4c-3.2-8.3-6.6-8.4-13-2.4c-12,11.1-9,24.8-6.3,38.2
	c1.7,8.6,7.2,14.8,15.4,18.4c4,1.7,7.9,3.8,11.7,5.9c6.3,3.4,8.5,7,7.8,15c0,0.5-0.5,0.8-1,0.8c-0.3,0-0.5-0.2-0.7-0.5
	c-7.9-15.3-23.7-18.9-36-27.2c-14.4-9.6-19.5-34.5-11.1-49.4c4.9-8.9,13.1-15.6,22.8-18.5c9.3-3,17,1.9,18.3,11.6
	c0.8,6.8,1.3,13.6,1.4,20.4c0.3,9.6,4.8,15,14.8,16.9c5.2,1,13.4-4.5,15.5-11.2c1.8-5.6,2.7-11.4,3.9-17.6c0.1-0.5-0.2-0.9-0.7-1
	c-0.2,0-0.4,0-0.6,0.1c-4.6,2.8-8.3,5.8-12.4,6.8c-10.4,2.3-21.3-9.3-18.7-20.2c3.3-14.1,7.9-27.8,19.7-37.8
	c6.2-5.1,14.8-5.9,21.9-2.1c8.6,4.6,15,12.4,17.8,21.7c0.1,0.5,0.6,0.7,1.1,0.6c0.2,0,0.3-0.1,0.4-0.3c6.4-7.7,12.5-15.6,19.4-22.7
	c8.1-8.2,17.6-14.2,30.1-13.8c13.9,0.4,20.6,10,15.4,22.9c-1.3,3.4-3,6.6-4.5,9.8c-0.2,0.4,0,1,0.4,1.2c0.1,0.1,0.3,0.1,0.4,0.1
	c3.7-0.1,7.5-0.6,11,0.2c15.5,3.5,18.3,17.2,15.2,30.5c-3.5,15-14.2,24.3-26,32.4c-9.7,6.6-15.6,16-19.6,26.5
	c-8,20.7-20.9,36.8-43,42.6c-8.3,2.2-19.4,1.6-24.9,0.7C521.5,349.6,519.2,348.7,517.1,347.3z"/>
<path d="M174.9,531.7c-5.4-12.4-7.8-24-3-36.5c8.5-22.4,23.6-39.7,41.7-54.9c15.8-13.3,32.5-25.2,51.3-33.6
	c13.8-6.2,28.3-11.1,42.8-15.9c4-1.3,6.5-2.5,7.5-6.8c1.4-5.8,5.2-9.9,11.1-10.4c4.8-0.4,7.9,3.1,10.8,7.1c1.8,2.5,6.3,4.4,9.4,4.3
	c23.6-1.3,47.1,4.2,67.6,15.8c19,10.6,35.9,24.7,49.7,41.6c17.8,21.9,32.7,45.3,41,72.5c2.8,9,0.5,16.9-5.8,18.6
	c-12.8,3.4-19,1.1-22.3-9.8c-6.4-21.4-16.4-41.5-29.5-59.5c-22.8-31.6-52.6-53.1-91.4-59.9c-26.9-4.7-53.2-0.7-78.4,10.3
	c-26,11.3-48.7,27.5-68.6,47.2c-13,12.9-26.4,26.3-30.3,45.6C177,514.8,176.2,522.7,174.9,531.7z"/>
<path d="M436.2,270.3c-11.1,14.6-25,20.7-40,23.7c-17.1,3.4-34.6,4.9-51.7,8.4c-13.6,2.8-25,10.5-34,21.2c-1.3,1.8-2,3.8-2.2,6
	c-1.8,14.9-8.4,17.7-22.5,19.5c-2.7,0.4-5.3,1.3-7.6,2.7c-12,7.1-18.2,6.8-27-0.2c-13.7-10.8-28.8-7.1-42.6-0.7
	c-13.2,6.2-25,15.1-37.7,22.3c-20.8,11.7-35.7,16.9-57.9,13.5c4.9-2.3,8.4-4.1,12-5.6c16.7-6.8,30.1-18.3,43.2-30.3
	c14.7-13.5,29.8-26.8,50.4-30.4c18-3.1,36.1-5,54,2.7c3.7-4.7,7.3-10.2,11.7-14.9c14.3-15.5,31.4-26.7,52.6-28.5
	c20.7-1.8,41.7-0.7,62.5-1.8c9-0.5,17.9-3.3,26.8-5.2C429,272.3,431.7,271.5,436.2,270.3z"/>
<path d="M137.1,549.2c1.8-0.3,3.7,0.9,4.9,1.6c15.2,10.2,33.1,11.4,50.4,14.7c13.1,2.5,26.2,4.7,39.4,6.5
	c12.6,1.8,25.3,3.6,37.9,4.1c24.6,1,49.3,2.2,73.9,1.2c22.5-1,44.8-4.8,67.2-7.5c23.9-2.9,46.9-9.5,69.1-18.9
	c9.8-4.1,19.7-8.3,29.6-12.1c4.4-1.7,9.1-3.5,13.7-3.7c3.2-0.1,7.8,1.6,9.3,4.1c1.5,2.4,1,7.3-0.5,10.2
	c-5.1,9.5-14.9,13.3-24.1,17.2c-26.3,11.1-54,18.3-81.9,24c-13.7,2.8-27.9,3.5-41.9,4.3c-18.4,1-36.8,2.1-55.2,1.2
	c-25.9-1.2-51.8-3.1-77.5-6.7c-24.3-3.4-48.4-8.8-72.3-14.7C163.3,570.8,147.9,564.4,137.1,549.2z"/>
<path d="M466.9,333.8c6.2,20.5,23.7,26.8,41.2,32.5c7.4,2.4,15.3,3,23.1,4.2c5.2,0.8,9.3,3.6,9.4,8.5s-2.8,8.4-9,9.1
	c-22.6,2.5-42.3-3.2-58.6-19.4C462.9,358.5,460.6,344.9,466.9,333.8z"/>
<path d="M305,615.1c-4-2.6-1.2-8.8,3.5-7.6c6.2,1.6,12.3,3.3,18.3,4.9c18.9,5.2,38.7,6.9,58.2,5.1c22.6-2.1,44.5-8,64.3-19.9
	c0.9-0.7,1.9-1.2,2.9-1.4h0.3c2.3-0.2,4.4,1.6,4.5,3.9c0,0.6-0.1,1.3-0.3,1.9c-0.2,0.5-0.5,0.9-0.9,1.2c-13,9-27.4,15.5-42.8,18.3
	c-15.9,2.9-32.1,5.1-48.2,5.3c-19.4,0.2-38.5-4-57-10.4C306.8,616.1,305.8,615.6,305,615.1z"/>
<path d="M219.6,281.7c-17.9-0.9-26.6,5.2-27.9,19.8c-7.1-2.6-10.7-10.6-9-20c1.2-6.5,10.7-14.9,17.2-15.1
	C208.7,266.1,217.5,272.9,219.6,281.7z"/>
<path d="M235.7,301.4c-0.5-1.2,0.1-2.5,1.3-3c0.5-0.2,1-0.2,1.5,0c5.9,1.9,11.8,4,17.9,5.1c7.4,1.3,13.1-2.7,16.6-9.4
	c0.5-1.2,1.2-2.3,2.1-3.3c1.2-1,2.5-1.9,3.8-2.8c1.1-0.7,2.5-0.4,3.2,0.7c0,0,0,0,0,0c1.5,2.4,3.3,4.9,3,7
	c-1.9,11.1-12.2,19.4-22,18.7c-4.4-0.3-8.9-0.1-13-1.3C242.1,310.8,238.2,307.6,235.7,301.4z"/>
<path d="M344.3,231.9c16.7-3.1,41.3,13,47.1,29.8c0.4,1.2,1.2,2.6,1,3.7c-0.2,0.6-0.3,1.2-0.5,1.8c-0.7,2.2-3.1,3.4-5.3,2.6
	c-0.8-0.3-1.5-0.7-2-1.4l0,0c-4.8-6.4-8.7-13.7-14.3-19.5c-5.8-6.1-13.8-9.5-22.2-9.5c-3.6,0-7.3-0.5-7.2-4.6
	C340.8,233.7,342.9,232.1,344.3,231.9z"/>
<path d="M149,303.1c-14,9.7-16,28.4-15.4,45.3c2.1,10.5,4.2,11.8,5.2,12.4c0.5,0.3,1.1,0.6,1.7,0.9c2.1,1,4.6,0.2,5.6-1.9
	c0.4-0.7,0.5-1.5,0.4-2.4c0,0,0,0,0-0.1c-2-7.4-3.2-9.5-3.2-23.5c0-7.5,2.5-16.5,8.5-22.7c2.6-2.6,4.8-5.5,1.8-8.4
	C152.8,301.9,150.2,302.2,149,303.1z"/>
<path d="M286.1,260.4c-7.2-8.9-4.5-17,0.3-22.4c5.5-6.2,13.6-6.9,20.9-2.5c7.5,4.6,9.8,12.8,6.3,21.7
	C302.5,246.8,296.8,247.4,286.1,260.4z"/>
<path d="M269.6,370c12,2.6,21.4-1.5,30.4-7.5c0.5,8.3-2.3,13.5-8,15.5C285,380.5,275.1,377.3,269.6,370z"/>
<g class="st0">
	<path class="st1" d="M700.1,447.2c3-4.3,5.9-8.7,8.7-13.2c2.8-4.5,5.1-9.2,6.8-14.1c0.6-1.7,1.1-3.8,1.5-6.2c0.5-2.4,0-4.4-1.5-5.9
		c1.9,0,3.8,0.8,5.8,2.5c2,1.7,2.8,3.7,2.4,5.9l6.8-8.7c5.1-6.6,10.4-13.3,16-20.1c5.6-6.8,10.3-14.1,14.1-21.8
		c3-6.2,1.7-11.1-3.9-14.6c-11.3-3.4-22.7-5.1-34.5-5.2c-11.7-0.1-23.4,1.2-35,3.8c1.5,2.4,2.6,4.8,3.4,7c1.9,5.3,2.9,10.6,3,16
		c0.1,5.4-0.4,10.9-1.5,16.3c-1.1,5.4-2.7,10.8-4.6,16c-2,5.3-4.2,10.2-6.6,14.9c-5.4,10.1-11.7,19.6-18.9,28.4
		c-7.1,8.8-14.9,17.1-23.4,24.8c-8.4,7.7-17.3,14.9-26.4,21.5c-9.2,6.7-19,12.1-29.5,16.5c-4.7,2.1-9.7,3.8-14.9,5.3
		c-5.3,1.5-10.6,2.4-15.9,2.7c-5.3,0.3-10.6-0.2-15.6-1.5c-5.1-1.3-9.7-3.8-13.8-7.6c-4.3-3.8-7.3-8-8.9-12.8
		c-1.6-4.8-2.3-9.7-2.3-14.8c0.1-5.1,1-10.2,2.7-15.3c1.7-5.2,3.7-9.9,5.9-14.2c4.7-9,10.6-17.2,17.7-24.6
		c7.1-7.4,14.6-14.3,22.5-20.7c2.1-1.7,4.2-3.3,6.3-4.9c2.2-1.6,4.3-3.1,6.3-4.6c0.6-9,2.9-17.6,7-25.9c4.1-8.3,9.3-15.6,15.5-21.9
		c3.6-3.8,7.5-7.2,11.8-10.4c4.3-3.2,8.9-5.9,13.8-8.2c4.9-2.3,9.9-3.8,15.1-4.8c5.2-0.9,10.5-1,15.9-0.3c6.4,0.9,12.4,3,18.1,6.2
		c5.7,3.2,10.6,7.3,14.5,12.4c8.6-2.3,17.4-3.9,26.4-4.9c9-1,18-1.4,27-1c6.4,0.4,12.6,1.1,18.6,2.3c6,1.1,12.1,2.3,18.3,3.7
		c6.6,1.5,13.2,2.9,19.8,4.2c6.7,1.3,13.4,2.4,20.1,3.4c3.8,0.8,8.5,1.5,14.2,2.4c5.7,0.8,11.3,1,16.7,0.6c5.4-0.5,10.1-2,14.1-4.5
		c3.9-2.5,6.1-6.8,6.5-12.8c1.5,1.9,2.3,3.8,2.3,5.8c0,2-0.5,3.9-1.4,5.9c-0.9,2-2.2,3.8-3.8,5.3c-1.6,1.6-3.1,3-4.6,4.1
		c-4.9,3.2-10.2,5.4-16,6.6c-5.8,1.2-11.5,1.8-17.2,1.8c-9.2,0.2-18.2-0.8-27.2-3c-8.9-2.2-17.6-4.9-26-8.3c3,2.4,4.5,5.1,4.5,7.9
		c-0.2,1.9-0.7,3.7-1.4,5.5c-0.8,1.8-1.6,3.4-2.5,4.9c-4.5,8.3-9.8,15.9-16,23.1c-6.2,7.1-12.3,14.3-18.3,21.4
		c-10.3,12.2-20.4,24.3-30.4,36.4c-9.9,12.1-19.4,24.7-28.4,37.8c-3,4.3-6.1,8.9-9.3,13.6c-3.2,4.8-6.2,9.7-9,14.8
		c-2.8,5.1-5.3,10.3-7.5,15.6c-2.2,5.3-3.5,10.7-4.1,16.2c-1.7-5.3-2-10.7-0.8-16.5c1.1-5.7,2.9-11.4,5.2-17
		c2.3-5.6,5.1-11,8.2-16.2c3.1-5.2,6-9.8,8.6-13.9c4.5-7.3,9.2-14.5,14.1-21.7C689.8,461.4,694.9,454.3,700.1,447.2z M612.1,449.7
		c-5.1,0.4-9.8-0.6-14.1-2.8c-4.3-2.3-8.2-5.2-11.5-8.9c-3.4-3.7-6.2-7.8-8.4-12.4c-2.3-4.6-3.8-9.1-4.5-13.6
		c-6,5.3-11.7,10.6-17.2,16.2c-5.4,5.5-10.6,11.3-15.5,17.3c-3,3.8-6.3,8-10,12.8c-3.7,4.8-6.7,9.8-9.1,15.1
		c-2.4,5.3-3.8,10.6-4.1,16c-0.3,5.4,1.5,10.5,5.5,15.2c3.4,4.3,7.4,7.3,12,8.9c4.6,1.6,9.4,2.3,14.4,2.1c5-0.2,9.9-1,14.9-2.4
		c5-1.4,9.6-3.1,13.9-4.9c16.5-7.5,31.7-17.8,45.6-30.8c13.9-13,25.8-27.1,35.7-42.1c3.6-5.4,7.1-11.6,10.7-18.6
		c3.6-6.9,6.4-14.1,8.6-21.5c2.2-7.4,3.1-14.8,3-22.2c-0.2-7.4-2.2-14.2-5.9-20.4c-4.3,1.3-8.6,2.8-12.9,4.4
		c-4.3,1.6-8.5,3.3-12.7,5.2c-25.1,11.4-48.7,26.3-70.6,44.5c0,3,0.3,5.7,0.8,8.2c0.7,3.8,2,7.6,3.8,11.5c1.8,3.9,4,7.6,6.8,10.8
		c2.7,3.3,5.8,6.1,9.3,8.3C603.8,447.7,607.7,449.1,612.1,449.7z M581.7,391.7c14.1-9.6,28.8-18,44.3-25.2
		c15.5-7.2,31.2-13.3,47.1-18.1l-3.1-3.7c-6.4-6.2-13.6-10.1-21.7-11.8c-8.1-1.7-16.2-1.1-24.5,1.7c-3.9,1.5-7.7,3.2-11.4,5.2
		c-3.7,2-7.1,4.4-10.3,7.2c-1.1,0.9-2.4,2.1-3.8,3.4c-1.4,1.3-2.8,2.7-4.1,4.1c-1.3,1.4-2.5,2.9-3.7,4.5c-1.1,1.6-1.8,3.1-2,4.6
		c-0.2,1.1-0.2,2.2,0,3.1c0.2,0.9,0.4,1.8,0.6,2.5c0.2,0.8,0.2,1.6,0.1,2.5c-0.1,0.9-0.4,2-1,3.1c-1.1,1.9-2.1,3.8-3,5.9
		c-0.8,2.1-1.6,4.1-2.4,6.2c-0.4,0.9-0.7,1.7-0.8,2.4C582,390,581.8,390.8,581.7,391.7z"/>
	<path class="st1" d="M798.6,414c2.3,2.6,2.7,7.5,1.3,14.5s-5.8,15.6-13.1,25.7l-5.6,7.6c2.3,0.8,4.4,0.7,6.3-0.3
		c2-0.9,3.7-2.4,5.2-4.4c1.5-2,2.7-4.4,3.5-7.2c0.8-2.8,1.3-5.9,1.3-9.3c3.4,2.4,5,5.3,4.9,8.7c-0.1,3.4-1.2,6.4-3.2,9.1
		c-2.1,2.7-4.9,4.7-8.6,5.9c-3.7,1.2-7.4,1-11.1-0.7c-2.3,2.8-4.7,5.7-7.5,8.6c-2.7,2.9-5.5,5.6-8.4,8.2c-2.9,2.5-6,4.7-9.1,6.6
		c-3.2,1.9-6.4,3.2-9.6,3.9c-2.3,0.6-4.5,0.3-6.8-0.8c-2.3-1.1-3.7-3.4-4.2-6.8c-0.6-3.4,0.1-8.1,2-14.1c1.9-6,5.7-13.8,11.5-23.4
		c4.7-7.5,9.7-13.8,14.9-18.9c5.3-5.1,10.3-8.9,15.1-11.5c4.8-2.6,9.1-4,12.9-4.2C794.1,411.2,796.9,412.1,798.6,414z M745.7,487.4
		c3.8-2.4,8-6.4,12.8-12c4.8-5.5,9.4-11.6,13.9-18.1c-0.4-1.9-0.2-4,0.6-6.5c0.7-2.4,1.9-4.9,3.4-7.3c1.5-2.4,3.3-4.8,5.5-7
		c2.2-2.3,4.5-4.3,6.9-6.2c3.6-6.8,5.3-11.3,5.3-13.8c-0.2-1.1-1.1-1.7-2.7-1.8c-1.6-0.1-3.5,0.9-5.8,3c-3.2,2.6-6.8,6.4-10.7,11.4
		c-3.9,5-7.8,10.3-11.5,15.9c-3.8,5.6-7.2,11.3-10.4,16.9c-3.2,5.6-5.7,10.6-7.5,14.9c-1.8,4.3-2.8,7.6-3,9.7
		C742.4,488.6,743.5,488.9,745.7,487.4z"/>
	<path class="st1" d="M822.2,409.2c-0.9,1.7-0.2,2.7,2.3,3.1c2.4,0.4,5.5,0.3,9.1-0.1c3.7-0.5,7.2-1,10.7-1.7
		c3.5-0.7,5.8-1.1,6.9-1.3c2.1-0.2,3.3,0,3.7,0.6c0.7,0.4,1.3,1.1,1.7,2.3c0.4,1.1,0.6,2.3,0.7,3.5c0.1,1.2,0,2.3-0.3,3.1
		s-0.6,1.3-1,1.3c-1.1-0.2-3,0.8-5.6,3c-2.6,2.2-5.5,4.8-8.7,8c-3.2,3.2-6.4,6.6-9.7,10.3c-3.3,3.7-6.2,6.9-8.9,9.7
		c-6,6.9-11.8,13.5-17.3,19.7c-5.5,6.2-10.4,11.4-14.5,15.5c3.4-1.5,6.3-3,8.7-4.5c2.4-1.5,4.5-2.9,6.3-4.2c1.8-1.3,3.3-2.3,4.6-3.1
		c1.3-0.7,2.6-1,3.9-0.8c1.5,0.2,2.6,1.1,3.2,2.7c0.7,1.6,0.6,3.4-0.1,5.5c3-2.4,6.4-5.2,10.1-8.3c3.8-3.1,6.9-6.3,9.6-9.7
		c2.6-3.4,4.7-7,6.2-10.8c1.5-3.8,2.3-7.8,2.5-12c4.3,3.2,5.9,7,4.8,11.4c-1.1,4.4-3.8,8.9-7.9,13.4c-2.3,2.6-5.1,5.1-8.4,7.5
		c-3.4,2.3-6.6,4.6-9.7,6.9c-3.1,2.3-5.7,4.4-7.9,6.3c-2.2,2-3.2,3.8-3.2,5.5c-1.3,0-2.1-0.4-2.3-1.1c-0.6-2.4-1.7-4-3.5-4.6
		c-1.8-0.7-3.9-0.7-6.5-0.1c-2.5,0.6-5.3,1.5-8.4,2.7c-3.1,1.2-6.2,2.4-9.4,3.5c-0.2,0.2-0.4,0.3-0.6,0.3c-2.4,1.1-4.5,1.4-6,0.8
		c-1.6-0.6-2.2-1.6-1.8-3.1c1.5,0.6,3.8-0.6,6.8-3.5c3-2.9,6.4-6.7,10.3-11.4c3.8-4.7,8-10,12.5-15.9c4.5-5.9,9-11.7,13.5-17.4
		c4.5-5.7,8.9-11,13.2-15.9c4.3-4.9,8.3-8.6,11.8-11.3c-3.9,1.5-7.6,3.1-11.1,4.6c-3.5,1.6-6.5,3-9.1,4.1c-2.6,1.1-4.9,2-6.8,2.5
		c-1.9,0.6-3.3,0.5-4.2-0.3c-0.9-0.6-1.2-1.8-0.8-3.8c0.4-2,1.1-4,2.3-6c1.1-2.1,2.4-3.8,3.9-5.2C819.2,409,820.7,408.6,822.2,409.2
		z"/>
	<path class="st1" d="M872.9,414.5c0.6-0.7,1-1.9,1.4-3.4c0.2-0.7,0.3-1.4,0.3-2c0.6-0.6,1.3-0.3,2.3,0.8c0.9,1.1,1.8,2.5,2.7,4.2
		c0.8,1.7,1.5,3.5,1.8,5.5c0.4,2,0.2,3.5-0.6,4.6c-3.6,4.9-7.9,11-12.9,18.4c-5.1,7.4-9.8,14.5-14.4,21.4
		c-4.5,6.9-8.2,12.7-11.1,17.4c-2.9,4.8-3.9,7-3,6.6c4.1-1.5,8.3-3.7,12.4-6.5c4.1-2.8,7.9-6.2,11.3-10.1c3.4-3.9,6.1-8.4,8.3-13.5
		c2.2-5.1,3.3-10.6,3.5-16.6c3.6,2.8,5.4,5.9,5.5,9.3c0.1,3.4-0.9,6.8-3.1,10.4c-2.2,3.6-5.1,7-8.7,10.4s-7.4,6.5-11.3,9.3
		c-3.8,2.8-7.5,5.2-11,7.2c-3.5,2-6,3.3-7.5,4.1c-1.3,0.6-2.8,0.8-4.4,0.6c-1.6-0.2-2.6-0.7-3-1.7c-0.7-1.5-0.3-4.5,1.3-8.9
		c1.6-4.4,4.2-10,7.7-16.7c3.6-6.8,8.1-14.4,13.5-23.1C859.5,433.8,865.8,424.5,872.9,414.5z M895.1,376.5c1.3-0.2,2.6,0.3,3.8,1.5
		c1.2,1.2,2.2,2.8,3,4.6c0.7,1.9,1.2,3.8,1.4,5.6c0.2,1.9,0.1,3.4-0.3,4.5c-0.4,0.9-1.2,2.1-2.5,3.4c-1.3,1.3-2.8,2.7-4.5,4.2
		c-1.7,1.5-3.3,3.1-4.9,4.9c-1.6,1.8-2.8,3.5-3.5,5.2c-3.9-2.3-5.7-4.9-5.2-7.9c0.5-3,1.7-6.1,3.8-9.3c2.1-3.2,4.2-6.2,6.3-9.1
		C894.6,381.4,895.5,378.8,895.1,376.5z"/>
	<path class="st1" d="M906.4,427.8c-0.6,0.6-1.8,2-3.8,4.2c-2,2.3-4.3,5.1-6.9,8.4c-2.6,3.4-5.4,7.1-8.4,11.1c-3,4-5.8,8.1-8.4,12.2
		c-0.2,0.4-0.2,0.6-0.1,0.7c0.1,0.1,0.1,0.2,0.1,0.4c4.9-7.3,10.1-14.3,15.6-20.8c5.5-6.6,10.7-12.4,15.6-17.4
		c4.9-5.1,9.2-9.1,12.9-12.1c3.8-3,6.3-4.5,7.6-4.5c0.7,0,1.5,0.5,2.4,1.5c0.8,1,1.5,2.3,2.1,3.7c0.6,1.4,0.9,2.9,1,4.4
		c0.1,1.5-0.2,2.7-1,3.7c-3.4,5.1-7.7,11.3-13.1,18.7c-5.3,7.4-10.5,14.5-15.3,21.4c-4.9,6.8-8.9,12.7-12,17.4
		c-3.1,4.8-4.2,7-3.2,6.6c4.1-1.7,8.3-3.9,12.7-6.6c4.3-2.7,8.3-6,12-10c3.7-3.9,6.7-8.4,9.1-13.5c2.4-5.1,3.8-10.6,3.9-16.6
		c3.6,2.8,5.3,5.9,5.3,9.3s-1.2,6.8-3.5,10.3c-2.3,3.5-5.4,6.9-9.3,10.4c-3.8,3.5-7.8,6.6-11.8,9.4c-4,2.8-7.8,5.2-11.4,7.2
		c-3.6,2-6.1,3.3-7.6,4.1c-1.3,0.6-2.8,0.8-4.5,0.6c-1.7-0.2-2.7-0.7-3.1-1.7c-0.4-1.7,0.2-4.5,1.8-8.3c1.6-3.8,3.8-8.2,6.6-12.9
		c2.8-4.8,5.9-9.8,9.1-14.9c3.3-5.2,6.3-9.8,9.1-14.1c2.8-4.2,5.1-7.7,6.8-10.4c1.7-2.7,2.3-4.1,2-4.1c-2.4,0.9-5.8,3.6-10.1,7.9
		c-4.3,4.3-8.9,9.3-13.6,15.1c-4.8,5.7-9.4,11.6-13.9,17.7c-4.5,6.1-8.2,11.4-11,15.9c-1.9,4.3-2.5,7.1-2,8.4
		c0.4,0.8,0.3,1.2-0.3,1.3c-0.6,0.1-1,0.1-1.4,0.1c-3-0.7-4.4-2.8-4.2-6.2c0.2-3.4,1.3-7.5,3.2-12.4c2-4.9,4.6-10.2,8-15.9
		c3.4-5.7,6.8-11.2,10.1-16.5c3.4-5.3,6.6-10,9.6-14.2c3-4.2,5.2-7.3,6.8-9.1c0.4-0.7,0.7-1.9,1.1-3.4c0.2-0.6,0.3-1.1,0.3-1.7
		c0.6-0.6,1.3-0.3,2.1,0.8c0.8,1.1,1.6,2.5,2.4,4.2c0.7,1.7,1.2,3.5,1.4,5.5C907.4,425.1,907.1,426.6,906.4,427.8z"/>
	<path class="st1" d="M1084.2,436.5c7.9-2.4,15.8-2.4,23.9,0c3.2-3,6.2-6.1,9-9.3c2.8-3.2,5.5-6.4,8.2-9.6c0.9-1.1,1.8-2.3,2.5-3.7
		c0.7-1.3,1.6-2.6,2.5-3.9l-0.3-0.3c-7.5-3.2-14.5-7.8-21-13.9c-6.5-6.1-11.5-12.9-15.1-20.4c-2.3-4.7-3.6-9.6-4.1-14.8
		c-0.5-5.2,0.1-9.9,1.7-14.3c1.6-4.4,4.2-8.2,7.7-11.4c3.6-3.2,8.3-5.3,14.4-6.2c6-0.9,11.3-0.5,16,1.3c4.7,1.8,8.6,4.5,11.7,8.2
		c3.1,3.7,5.4,8,6.9,13.1c1.5,5.1,2,10.3,1.4,15.8c-0.8,7.1-2.3,14.1-4.5,20.8c-2.3,6.8-5.1,13.3-8.4,19.7c3.6,0.9,7.2,1.4,10.8,1.4
		s7.4-0.3,11.1-0.8c0-0.6,0-1.2,0-1.8c0-0.7,0.1-1.4,0.3-2.1c0.4-5.2,1.1-10.7,2.1-16.3c1-5.6,2.6-11.1,4.8-16.3
		c2.2-5.3,4.8-10.2,8-14.8c3.2-4.6,7.1-8.5,11.8-11.7c3.4-2.3,7.1-4,11.3-5.3c4.1-1.3,8.1-1.8,12-1.5c3.8,0.3,7.3,1.6,10.3,3.9
		c3,2.3,5.3,5.9,6.8,10.6c1.5,5.4,1.5,10.7,0,15.8c-1.5,5.1-3.8,9.8-7,14.3c-3.2,4.5-6.9,8.6-11.3,12.2c-4.3,3.7-8.5,6.7-12.7,9.1
		c-7.9,5.1-16.4,8.4-25.6,10.1c0.4,5.4,0.9,10.7,1.7,15.8c0.7,5.1,1.4,10,2,14.9c1.3,11.8,1.5,23.6,0.4,35.3
		c-1,11.7-4.3,22.9-9.7,33.6c-4.9,9.8-11.5,18-19.8,24.8c-8.3,6.8-18,11.2-28.8,13.2c-8.1,1.5-15.9,1.6-23.4,0.3
		c-7.5-1.3-14.4-3.8-20.5-7.6c-6.2-3.8-11.5-8.7-16-14.8c-4.5-6.1-7.8-13.2-9.8-21.2c-2.3-9.4-2.3-18.9,0-28.7l-3.7,0.8
		c-8.3,1.7-16.6,2.3-25.2,1.8c-8.5-0.5-16.4-3.1-23.5-8c-7.3-4.9-12.4-11.3-15.2-19.3c-2.8-8-3.1-16.2-0.8-24.6
		c1.9-7.5,5.1-14.5,9.6-21c4.5-6.5,9.8-12.1,16-17c6.2-4.9,12.9-8.9,20.1-12.1c7.2-3.2,14.6-5.3,22.1-6.5c3.9-0.7,8.1-1.1,12.4-1
		c4.3,0.1,8.5,0.6,12.5,1.5c4,0.9,7.9,2.4,11.7,4.4c3.8,2,7,4.5,9.8,7.5c3,3.4,4.9,7,5.8,10.8c0.8,3.8,0.8,7.7-0.1,11.5
		c-0.9,3.8-2.5,7.5-4.8,11c-2.3,3.5-4.9,6.6-7.9,9.4c2.6-3.9,4.9-8.2,6.9-12.7c2-4.5,2.5-9.2,1.5-14.1c-0.9-4.9-3.3-8.8-7-11.7
		c-3.8-2.9-7.8-5-12.1-6.3c-5.1-1.5-10.2-2.1-15.5-1.7c-2.3,0-3.8-0.5-4.5-1.4c-0.8-0.9-2.2-1.9-4.2-2.8c-1.7-0.9-3.9-1-6.8-0.3
		c-2.8,0.8-5.2,1.3-7,1.7c-2.8,0.8-5.6,1.6-8.4,2.5c-2.8,0.9-5.5,2.2-8.2,3.7c-4.3,2.3-8.5,5-12.7,8.2c-4.1,3.2-7.9,6.7-11.3,10.6
		c-3.4,3.8-6.2,8-8.6,12.5c-2.3,4.5-4.1,9.2-5.2,14.1c-1.3,5.6-1.3,10.7,0,15.3c1.3,4.6,3.5,8.7,6.5,12.2c3,3.6,6.8,6.5,11.3,8.9
		c4.5,2.3,9.3,3.9,14.4,4.6c5.8,0.9,11.6,1.3,17.4,1c5.8-0.3,11.6-1.2,17.4-2.7c3.2-8.1,7.9-15.1,14.1-21.2
		C1068.4,443.5,1075.8,439.1,1084.2,436.5z M1090.1,528.5c9.2-3.9,17.5-9.5,25-16.6c7.5-7.1,12.7-15.7,15.5-25.6
		c1.3-4.5,1.7-9,1.3-13.4c-0.5-4.4-1.6-8.6-3.5-12.5c-1.9-3.9-4.4-7.5-7.6-10.7c-3.2-3.2-6.9-5.7-11-7.6
		c-8.4,8.4-17.9,15.9-28.3,22.4c-10.4,6.5-21.4,11.3-33.1,14.5c-2.1,8.1-2.3,16.1-0.8,24.2c1.5,8.1,4.7,15.7,9.6,22.8
		c6.6,9.9,15.2,16.3,25.9,19c10.7,2.7,21.6,2.2,32.6-1.5c9.9-3.4,18.1-8.8,24.6-16.3c6.5-7.5,11.3-16.1,14.5-25.9
		c1.5-4.7,2.6-9.4,3.4-14.1c0.7-4.7,1.3-9.5,1.7-14.3c0-2.8-0.2-6.2-0.6-10.1c-0.4-3.9-1.1-7.7-2.1-11.3c-1-3.6-2.5-6.7-4.4-9.4
		c-1.9-2.7-4.4-4.3-7.6-4.6c0.7-0.6,1.8-1,3.1-1.3c1.3-0.3,2.7-0.4,4.1-0.4c1.4,0,2.7,0.2,3.9,0.6c1.2,0.4,2.2,1,3,2
		c-0.2-3.8-0.3-7.5-0.4-11.4c-0.1-3.8-0.1-7.6-0.1-11.4c-8.6,0.4-16.8-0.8-24.5-3.7c-1.5,2.6-3.1,5.2-4.9,7.6
		c-1.8,2.4-3.6,4.9-5.5,7.3c-3.4,4.3-6.8,8.3-10.4,12.1c8.1,3.8,14.8,9.5,20.3,17.2c5.4,7.7,8.3,16.1,8.7,25.3
		c0.2,6-1.1,12.5-3.9,19.4s-6.6,13-11.4,18.1c-4.8,5.2-10.4,8.9-16.9,11.1C1103.7,532.1,1097,531.7,1090.1,528.5z M1051.6,469.7
		c9.6-2.6,18.8-6.6,27.7-11.8c8.9-5.3,17.1-11.2,24.6-17.7c-5.1-1.3-10.1-1.5-15.2-0.6c-5.1,0.9-9.8,2.7-14.2,5.2
		c-4.4,2.5-8.4,5.7-12.1,9.4c-3.7,3.8-6.7,7.8-9.1,12.1L1051.6,469.7z M1114.6,395.7c5.1,4.7,11.2,8.3,18.3,10.7
		c4.1-7.1,7.5-14.8,10-22.9s3-16.2,1.5-24.1c-0.9-4.7-3.2-8.7-6.8-12.1c-3.6-3.4-7.6-5.7-12.1-6.9c-4.5-1.2-9.1-1.2-13.6,0.1
		c-4.6,1.3-8.3,4.2-11.1,8.7c-2.3,3.8-3.3,7.8-3.2,12.1c0.1,4.3,0.9,8.6,2.5,12.9c1.6,4.3,3.7,8.3,6.3,12.1
		C1109,390.1,1111.8,393.2,1114.6,395.7z M1183.2,353.5c-6.6,7.3-10.7,15.5-12.5,24.5c-1.8,9-2.5,18.3-2.1,27.9
		c3.4-1.3,6.3-2.5,8.7-3.7c3.9-2.1,8.2-4.6,12.7-7.6c4.5-3,8.7-6.4,12.7-10.3c3.9-3.8,7.3-7.9,10.1-12.2c2.8-4.3,4.5-8.9,5.1-13.8
		c0.4-2.8,0-5.7-1.1-8.6c-1.1-2.9-3.1-4.9-5.9-6c-2.4-1.1-4.9-1.5-7.5-1.3c-2.5,0.3-5,0.9-7.5,2c-2.4,1-4.7,2.4-6.9,4.1
		C1186.8,350.1,1184.9,351.8,1183.2,353.5z"/>
	<path class="st1" d="M1251.9,414c2.3,2.6,2.7,7.5,1.3,14.5c-1.4,7-5.8,15.6-13.1,25.7l-5.6,7.6c2.3,0.8,4.4,0.7,6.3-0.3
		c2-0.9,3.7-2.4,5.2-4.4c1.5-2,2.7-4.4,3.5-7.2c0.8-2.8,1.3-5.9,1.3-9.3c3.4,2.4,5,5.3,4.9,8.7c-0.1,3.4-1.2,6.4-3.2,9.1
		c-2.1,2.7-4.9,4.7-8.6,5.9c-3.7,1.2-7.4,1-11.1-0.7c-2.3,2.8-4.7,5.7-7.5,8.6c-2.7,2.9-5.5,5.6-8.4,8.2c-2.9,2.5-6,4.7-9.1,6.6
		c-3.2,1.9-6.4,3.2-9.6,3.9c-2.3,0.6-4.5,0.3-6.8-0.8c-2.3-1.1-3.7-3.4-4.2-6.8c-0.6-3.4,0.1-8.1,2-14.1c1.9-6,5.7-13.8,11.5-23.4
		c4.7-7.5,9.7-13.8,14.9-18.9c5.2-5.1,10.3-8.9,15.1-11.5c4.8-2.6,9.1-4,12.9-4.2C1247.4,411.2,1250.2,412.1,1251.9,414z
		 M1199,487.4c3.8-2.4,8-6.4,12.8-12c4.8-5.5,9.4-11.6,13.9-18.1c-0.4-1.9-0.2-4,0.6-6.5c0.7-2.4,1.9-4.9,3.4-7.3
		c1.5-2.4,3.3-4.8,5.5-7c2.2-2.3,4.5-4.3,6.9-6.2c3.6-6.8,5.3-11.3,5.3-13.8c-0.2-1.1-1.1-1.7-2.7-1.8c-1.6-0.1-3.5,0.9-5.8,3
		c-3.2,2.6-6.8,6.4-10.7,11.4c-3.9,5-7.8,10.3-11.5,15.9c-3.8,5.6-7.2,11.3-10.4,16.9c-3.2,5.6-5.7,10.6-7.5,14.9
		c-1.8,4.3-2.8,7.6-3,9.7C1195.7,488.6,1196.7,488.9,1199,487.4z"/>
	<path class="st1" d="M1260.6,488c-0.4-3.4-0.4-6.8,0-10.3c0.4-3.5,1-6.8,1.8-9.8c0.8-3.1,1.7-5.9,2.7-8.4c0.9-2.5,1.9-4.5,2.8-5.8
		l-9,4.5c-3,4.5-5.7,8.8-8,12.8c-2.3,4-4.2,7.6-5.6,10.6c-1.4,3-2.2,5.4-2.4,7.3c-0.2,1.9,0.3,3,1.4,3.4c-1.5,0.8-3.2,0.8-5.1,0.3
		c-1.9-0.6-3-1.3-3.4-2.3c-0.4-2.1,0.5-5.6,2.5-10.7c2.1-5.1,5-11,8.9-17.7c3.8-6.8,8.3-14.2,13.4-22.4c5.1-8.2,10.4-16.4,15.9-24.6
		c5.5-8.3,11-16.4,16.5-24.3c5.4-8,10.5-15.3,15.2-22.1c0.6-0.7,1-1.9,1.4-3.4c0.2-0.6,0.3-1.1,0.3-1.7c0.6-0.6,1.3-0.3,2.3,0.7
		c0.9,1,1.8,2.4,2.7,4.2c0.8,1.8,1.5,3.6,1.8,5.5c0.4,1.9,0.2,3.4-0.6,4.5c-2.1,2.8-5.1,6.9-9,12.2s-8.4,11.4-13.4,18
		c-5,6.7-10.1,13.7-15.5,21.2c-5.3,7.5-10.4,14.7-15.1,21.7c5.6-3.6,11.1-7.5,16.5-12c5.3-4.4,10-8.6,13.9-12.7
		c3.9-4,7-7.5,9.3-10.6c2.3-3,3.1-5.1,2.5-6.2c0.9-0.6,2-0.3,3.1,0.7c1.1,1,2.1,2.3,3,3.8c0.8,1.5,1.4,3.1,1.7,4.8
		c0.3,1.7,0.1,3-0.4,3.9c-0.8,1.1-2.2,2.5-4.2,4.2c-2.1,1.7-4.6,3.6-7.6,5.6c-3,2.1-6.3,4.3-9.8,6.6c-3.6,2.3-7.2,4.6-11,6.9
		c2.4,0,3.9,1.1,4.5,3.4c-2.4-0.9-4.7-0.2-6.8,2.3c-2.1,2.4-3.8,5.6-5.3,9.6c-1.5,3.9-2.6,8.2-3.2,12.7c-0.7,4.5-0.8,8.3-0.4,11.5
		c3.4-2.4,7-5.3,11-8.4c3.9-3.2,7.5-6.7,10.8-10.6c3.3-3.8,6-8,8.2-12.4c2.2-4.4,3.3-9,3.5-13.9c3.4,2.8,5,5.8,4.9,9
		c-0.1,3.2-1.3,6.5-3.5,10c-2.3,3.5-5.2,6.9-8.9,10.3c-3.7,3.4-7.4,6.5-11.1,9.3c-3.8,2.8-7.2,5.3-10.3,7.6c-3.1,2.3-5.1,3.9-6,5.1
		c-0.8,0.9-2,0.9-3.8-0.1C1261.8,490.7,1260.8,489.5,1260.6,488z"/>
	<path class="st1" d="M1356.6,414.5c0.7-1.5,1.2-2.6,1.4-3.4c0.2-0.7,0.3-1.4,0.3-2c0.4-0.6,1.1-0.3,2.1,0.8c1,1.1,2,2.5,2.8,4.2
		c0.8,1.7,1.5,3.5,1.8,5.5c0.4,2,0.2,3.5-0.6,4.6c-3.6,4.9-7.9,11-12.9,18.4c-5.1,7.4-9.8,14.5-14.4,21.4
		c-4.5,6.9-8.2,12.7-11.1,17.4c-2.9,4.8-3.9,7-3,6.6c4.1-1.5,8.1-3.7,12-6.5c3.8-2.8,7.3-6.2,10.3-10.1c3-3.9,5.5-8.4,7.5-13.5
		s3-10.6,3.2-16.6c3.6,2.8,5.4,5.9,5.6,9.3c0.2,3.4-0.7,6.8-2.7,10.4c-2,3.6-4.7,7-8.2,10.4c-3.5,3.4-7,6.5-10.7,9.3
		c-3.7,2.8-7.1,5.2-10.4,7.2c-3.3,2-5.7,3.3-7.2,4.1c-1.3,0.6-2.8,0.8-4.4,0.6c-1.6-0.2-2.6-0.7-3-1.7c-1.1-1.7-0.4-5.5,2.3-11.5
		c-3.2,2.6-6.3,5-9.3,7c-3,2.1-5.7,3.7-8.2,4.8c-0.9,0.6-2,1-3.2,1.3c-1.2,0.3-2.3,0.3-3.2,0.1c-0.9-0.2-1.7-0.7-2.3-1.7
		c-0.6-0.9-0.6-2.4,0-4.5c1.7-7.9,4.3-15.9,7.9-24.1c3.6-8.2,7.5-15.8,11.8-22.9c4.3-7.1,8.8-13.4,13.4-18.7
		c4.6-5.3,8.9-9.2,12.8-11.5c3.9-2.3,7.3-2.8,10.1-1.3c2.8,1.5,4.6,5.5,5.3,12.1L1356.6,414.5z M1336,445.2
		c2.1-3.4,4.3-6.8,6.6-10.4c2.3-3.6,4.8-7.3,7.5-11.3c-0.6-5.3-2.3-7.3-5.2-6.1c-2.9,1.2-6.4,4.2-10.6,8.9
		c-4.1,4.7-8.4,10.6-12.9,17.6c-4.5,7-8.5,13.8-12.1,20.4c-3.6,6.6-6.3,12.1-8.3,16.7c-2,4.6-2.4,6.9-1.3,6.9c1.3,0,3.7-1.6,7-4.8
		c3.4-3.2,6.8-7.1,10.4-11.8c3.6-4.7,6.7-9.8,9.3-15.2c2.6-5.4,3.8-10.3,3.7-14.6C1332.7,442.7,1334.7,443.9,1336,445.2z"/>
	<path class="st1" d="M1365.9,488c-0.4-3.4-0.4-6.8,0-10.3c0.4-3.5,1-6.8,1.8-9.8c0.8-3.1,1.7-5.9,2.7-8.4c0.9-2.5,1.9-4.5,2.8-5.8
		l-9,4.5c-3,4.5-5.7,8.8-8,12.8c-2.3,4-4.2,7.6-5.6,10.6c-1.4,3-2.2,5.4-2.4,7.3c-0.2,1.9,0.3,3,1.4,3.4c-1.5,0.8-3.2,0.8-5.1,0.3
		c-1.9-0.6-3-1.3-3.4-2.3c-0.4-2.1,0.5-5.6,2.5-10.7c2.1-5.1,5-11,8.9-17.7c3.8-6.8,8.3-14.2,13.4-22.4c5.1-8.2,10.4-16.4,15.9-24.6
		c5.5-8.3,11-16.4,16.5-24.3c5.4-8,10.5-15.3,15.2-22.1c0.6-0.7,1-1.9,1.4-3.4c0.2-0.6,0.3-1.1,0.3-1.7c0.6-0.6,1.3-0.3,2.3,0.7
		c0.9,1,1.8,2.4,2.7,4.2c0.8,1.8,1.5,3.6,1.8,5.5c0.4,1.9,0.2,3.4-0.6,4.5c-2.1,2.8-5.1,6.9-9,12.2c-3.9,5.3-8.4,11.4-13.4,18
		c-5,6.7-10.1,13.7-15.5,21.2c-5.3,7.5-10.4,14.7-15.1,21.7c5.6-3.6,11.1-7.5,16.5-12c5.3-4.4,10-8.6,13.9-12.7
		c3.9-4,7-7.5,9.3-10.6c2.3-3,3.1-5.1,2.5-6.2c0.9-0.6,2-0.3,3.1,0.7c1.1,1,2.1,2.3,3,3.8c0.8,1.5,1.4,3.1,1.7,4.8
		c0.3,1.7,0.1,3-0.4,3.9c-0.8,1.1-2.2,2.5-4.2,4.2c-2.1,1.7-4.6,3.6-7.6,5.6c-3,2.1-6.3,4.3-9.8,6.6c-3.6,2.3-7.2,4.6-11,6.9
		c2.4,0,3.9,1.1,4.5,3.4c-2.4-0.9-4.7-0.2-6.8,2.3c-2.1,2.4-3.8,5.6-5.3,9.6c-1.5,3.9-2.6,8.2-3.2,12.7c-0.7,4.5-0.8,8.3-0.4,11.5
		c3.4-2.4,7-5.3,11-8.4c3.9-3.2,7.5-6.7,10.8-10.6c3.3-3.8,6-8,8.2-12.4c2.2-4.4,3.3-9,3.5-13.9c3.4,2.8,5,5.8,4.9,9
		c-0.1,3.2-1.3,6.5-3.5,10c-2.3,3.5-5.2,6.9-8.9,10.3s-7.4,6.5-11.1,9.3c-3.8,2.8-7.2,5.3-10.3,7.6c-3.1,2.3-5.1,3.9-6,5.1
		c-0.8,0.9-2,0.9-3.8-0.1C1367,490.7,1366,489.5,1365.9,488z"/>
</g>
</svg>
