<?xml version="1.0" encoding="utf-8"?>
<!-- Generator: Adobe Illustrator 23.0.2, SVG Export Plug-In . SVG Version: 6.00 Build 0)  -->
<svg version="1.1" id="Layer_1" xmlns="http://www.w3.org/2000/svg" xmlns:xlink="http://www.w3.org/1999/xlink" x="0px" y="0px"
	 viewBox="0 0 512 512" style="enable-background:new 0 0 512 512;" xml:space="preserve">
<style type="text/css">
	.st0{fill:#FFFFFF;}
</style>
<path class="st0" d="M432.2,0H79.5C75.4,0,72,3.4,72,7.5v120.6c0,4.2,3.4,7.5,7.5,7.5c4.1,0,7.5-3.4,7.5-7.5V15h305.6v377.7H87
	V163.5c0-4.1-3.4-7.5-7.5-7.5c-4.2,0-7.5,3.4-7.5,7.5v341c0,4.2,3.4,7.5,7.5,7.5h32.1c4.1,0,7.5-3.4,7.5-7.5v-56.6h241.5v56.6
	c0,4.2,3.4,7.5,7.5,7.5h64.1c4.2,0,7.5-3.4,7.5-7.5V7.5C439.7,3.4,436.4,0,432.2,0z M368.1,432.8H111.6c-4.2,0-7.5,3.4-7.5,7.5V497
	H87v-89.2h305.6V497h-17v-56.6C375.6,436.2,372.2,432.8,368.1,432.8z M424.7,497h-17V15h17V497z"/>
<path class="st0" d="M159.7,183.4c4.2,0,7.5-3.4,7.5-7.5v-64.1c0-3.2-2.2-6.2-5.2-7.2c-3.3-1-6.9,0.3-8.7,3.3l-17.6,29.3L118,107.9
	c-1.7-2.9-5.2-4.3-8.5-3.4c-3.3,0.9-5.5,3.9-5.5,7.2v64.1c0,4.2,3.4,7.5,7.5,7.5c4.1,0,7.5-3.4,7.5-7.5v-37l10.1,16.8
	c2.9,4.8,10,4.8,12.9,0l10.1-16.8v37C152.2,180,155.5,183.4,159.7,183.4z"/>
<path class="st0" d="M223.8,119.2c4.2,0,7.5-3.4,7.5-7.5s-3.4-7.5-7.5-7.5h-40.1c-4.2,0-7.5,3.4-7.5,7.5v64.1c0,4.2,3.4,7.5,7.5,7.5
	h40.1c4.2,0,7.5-3.4,7.5-7.5s-3.4-7.5-7.5-7.5h-32.6v-17h16.5c4.2,0,7.5-3.4,7.5-7.5s-3.4-7.5-7.5-7.5h-16.5v-17H223.8z"/>
<path class="st0" d="M245.5,104.6c-3.1,1-5.1,3.9-5.1,7.1v64.1c0,4.2,3.4,7.5,7.5,7.5s7.5-3.4,7.5-7.5v-41.6l34.6,46.1
	c2,2.7,5.8,3.7,8.9,2.4c2.8-1.2,4.6-3.9,4.6-6.9v-64.1c0-4.2-3.4-7.5-7.5-7.5s-7.5,3.4-7.5,7.5v41.6l-34.6-46.1
	C251.9,104.6,248.5,103.6,245.5,104.6z"/>
<path class="st0" d="M320,104.2c-4.2,0-7.5,3.4-7.5,7.5v40.1c0,17.4,14.2,31.6,31.6,31.6s31.6-14.2,31.6-31.6v-40.1
	c0-4.2-3.4-7.5-7.5-7.5s-7.5,3.4-7.5,7.5v40.1c0,9.1-7.4,16.5-16.5,16.5s-16.5-7.4-16.5-16.5v-40.1
	C327.5,107.6,324.1,104.2,320,104.2z"/>
<path class="st0" d="M383.6,71.6c0-4.2-3.4-7.5-7.5-7.5s-7.5,3.4-7.5,7.5c0,1.3,0,3.1-1.2,4.5c-2.1,2.5-7.7,4-15.3,4
	c-13.5,0-21.8-8.4-31.3-18c-10.2-10.3-21.8-22-40.8-22c-23.2,0-31.6,18.9-31.6,31.6c0,4.2,3.4,7.5,7.5,7.5c4.1,0,7.5-3.3,7.5-7.5
	c0-2.8,1-16.6,16.5-16.6c12.8,0,20.8,8.1,30.1,17.6c10.4,10.5,22.2,22.5,42,22.5C379.5,95.2,383.6,80.4,383.6,71.6z"/>
<path class="st0" d="M199.8,40.1c-19.1,0-30.6,11.7-40.8,22c-9.6,9.7-17.8,18-31.3,18c-7.6,0-13.2-1.5-15.3-4
	c-1.2-1.4-1.2-3.2-1.2-4.5c0-4.2-3.4-7.5-7.5-7.5c-4.2,0-7.5,3.4-7.5,7.5c0,8.8,4.1,23.5,31.6,23.5c19.8,0,31.6-12,42-22.5
	c9.3-9.4,17.4-17.6,30.1-17.6c15.5,0,16.5,13.8,16.5,16.6c0,4.2,3.4,7.5,7.5,7.5s7.5-3.4,7.5-7.5C231.3,59,222.9,40.1,199.8,40.1z"
	/>
<path class="st0" d="M104.1,207.9c0,4.2,3.4,7.5,7.5,7.5h256.5c4.2,0,7.5-3.4,7.5-7.5s-3.4-7.5-7.5-7.5H111.6
	C107.4,200.4,104.1,203.8,104.1,207.9z"/>
<path class="st0" d="M368.1,224.4H111.6c-4.2,0-7.5,3.4-7.5,7.5s3.4,7.5,7.5,7.5h256.5c4.2,0,7.5-3.4,7.5-7.5
	S372.2,224.4,368.1,224.4z"/>
<path class="st0" d="M215.8,272.5H111.6c-4.2,0-7.5,3.4-7.5,7.5s3.4,7.5,7.5,7.5h104.2c4.2,0,7.5-3.4,7.5-7.5
	S219.9,272.5,215.8,272.5z"/>
<path class="st0" d="M111.6,327.6h32.1c4.2,0,7.5-3.4,7.5-7.5s-3.4-7.5-7.5-7.5h-32.1c-4.2,0-7.5,3.4-7.5,7.5
	S107.4,327.6,111.6,327.6z"/>
<path class="st0" d="M111.6,367.7h104.2c4.2,0,7.5-3.4,7.5-7.5s-3.4-7.5-7.5-7.5H111.6c-4.2,0-7.5,3.4-7.5,7.5
	S107.4,367.7,111.6,367.7z"/>
<path class="st0" d="M215.8,312.6h-48.1c-4.2,0-7.5,3.4-7.5,7.5s3.4,7.5,7.5,7.5h48.1c4.2,0,7.5-3.4,7.5-7.5
	S219.9,312.6,215.8,312.6z"/>
<path class="st0" d="M263.9,287.6H320c4.2,0,7.5-3.4,7.5-7.5s-3.4-7.5-7.5-7.5h-56.1c-4.2,0-7.5,3.4-7.5,7.5
	S259.7,287.6,263.9,287.6z"/>
<path class="st0" d="M368.1,312.6H263.9c-4.2,0-7.5,3.4-7.5,7.5s3.4,7.5,7.5,7.5h104.2c4.2,0,7.5-3.4,7.5-7.5
	S372.2,312.6,368.1,312.6z"/>
<path class="st0" d="M368.1,352.7H263.9c-4.2,0-7.5,3.4-7.5,7.5s3.4,7.5,7.5,7.5h104.2c4.2,0,7.5-3.4,7.5-7.5
	S372.2,352.7,368.1,352.7z"/>
<path class="st0" d="M368.1,272.5h-24c-4.2,0-7.5,3.4-7.5,7.5s3.4,7.5,7.5,7.5h24c4.2,0,7.5-3.4,7.5-7.5S372.2,272.5,368.1,272.5z"
	/>
</svg>
