<svg xmlns="http://www.w3.org/2000/svg" viewBox="0 0 34.5 34.5"><path d="M29.3 19.3c-2.3-.5-5.3-2-6.4-3.7-.6-1-.7-2.1-.2-3 0-.1.1-.1.1-.2 0-.2 0-.5.2-.8H11c.3.4.5.8.6 1 .5 1 .4 2.1-.2 3.1-1.1 1.8-4.1 3.2-6.4 3.7l-.4 10.7c-.1 1.2.7 2.1 1.7 2.1h22c1 0 1.8-1 1.7-2.1l-.7-10.8zm-15.6 7.5h-2.1c-.4 0-.7-.3-.7-.7s.3-.7.7-.7h2.1c.4 0 .7.3.7.7s-.3.7-.7.7zm0-2.7h-2.1c-.4 0-.7-.3-.7-.7 0-.4.3-.7.7-.7h2.1c.4 0 .7.3.7.7 0 .4-.3.7-.7.7zm0-2.6h-2.1c-.4 0-.7-.3-.7-.7 0-.4.3-.7.7-.7h2.1c.4 0 .7.3.7.7s-.3.7-.7.7zm4.6 5.3h-2.1c-.4 0-.7-.3-.7-.7s.3-.7.7-.7h2.1c.4 0 .7.3.7.7s-.3.7-.7.7zm0-2.7h-2.1c-.4 0-.7-.3-.7-.7 0-.4.3-.7.7-.7h2.1c.4 0 .7.3.7.7 0 .4-.3.7-.7.7zm0-2.6h-2.1c-.4 0-.7-.3-.7-.7 0-.4.3-.7.7-.7h2.1c.4 0 .7.3.7.7s-.3.7-.7.7zm4.6 5.3h-2.1c-.4 0-.7-.3-.7-.7s.3-.7.7-.7h2.1c.4 0 .7.3.7.7s-.3.7-.7.7zm0-2.7h-2.1c-.4 0-.7-.3-.7-.7 0-.4.3-.7.7-.7h2.1c.4 0 .7.3.7.7 0 .4-.3.7-.7.7zm0-2.6h-2.1c-.4 0-.7-.3-.7-.7 0-.4.3-.7.7-.7h2.1c.4 0 .7.3.7.7s-.3.7-.7.7zm11.5-8.4c0 .2 0 .4-.1.6-.5 1.2-1.4 2.2-2.1 3.3-.9 1.4-8.4-1.6-7.4-3.5.4-.7 1.8-2.6 1.9-3.4.1-.7-.8-1.2-1.7-1.3-2.2-.2-5.1 0-7.5 0h-.4c-2.4 0-5.2-.2-7.5 0-.8.1-1.7.7-1.6 1.3.1.8 1.5 2.7 1.9 3.4 1 1.9-6.6 4.9-7.4 3.5-.8-1-1.7-2-2.2-3.2-.1-.2-.1-.4-.1-.6-1.1-4.9 3.1-10 9.6-10.5 2.4-.2 4.9-.3 7.4-.4h.4c2.5 0 4.9.2 7.4.4 6.2.5 10.5 5.5 9.4 10.4z" fill="#f4f5f7"/></svg>