<?xml version="1.0" encoding="utf-8"?>
<!-- Generator: Adobe Illustrator 23.0.2, SVG Export Plug-In . SVG Version: 6.00 Build 0)  -->
<svg version="1.1" id="Capa_1" xmlns="http://www.w3.org/2000/svg" xmlns:xlink="http://www.w3.org/1999/xlink" x="0px" y="0px"
	 viewBox="0 0 34.5 34.5" style="enable-background:new 0 0 34.5 34.5;" xml:space="preserve">
<style type="text/css">
	.st0{fill:#F4F5F7;}
</style>
<g>
	<path class="st0" d="M29.3,19.3c-2.3-0.5-5.3-2-6.4-3.7c-0.6-1-0.7-2.1-0.2-3c0-0.1,0.1-0.1,0.1-0.2c0-0.2,0-0.5,0.2-0.8l0,0H11
		l0,0l0,0c0.3,0.4,0.5,0.8,0.6,1c0.5,1,0.4,2.1-0.2,3.1c-1.1,1.8-4.1,3.2-6.4,3.7L4.6,30.1c-0.1,1.2,0.7,2.1,1.7,2.1h22
		c1,0,1.8-1,1.7-2.1L29.3,19.3z M13.7,26.8h-2.1c-0.4,0-0.7-0.3-0.7-0.7s0.3-0.7,0.7-0.7h2.1c0.4,0,0.7,0.3,0.7,0.7
		S14.1,26.8,13.7,26.8z M13.7,24.1h-2.1c-0.4,0-0.7-0.3-0.7-0.7c0-0.4,0.3-0.7,0.7-0.7h2.1c0.4,0,0.7,0.3,0.7,0.7
		C14.4,23.8,14.1,24.1,13.7,24.1z M13.7,21.5h-2.1c-0.4,0-0.7-0.3-0.7-0.7c0-0.4,0.3-0.7,0.7-0.7h2.1c0.4,0,0.7,0.3,0.7,0.7
		S14.1,21.5,13.7,21.5z M18.3,26.8h-2.1c-0.4,0-0.7-0.3-0.7-0.7s0.3-0.7,0.7-0.7h2.1c0.4,0,0.7,0.3,0.7,0.7S18.7,26.8,18.3,26.8z
		 M18.3,24.1h-2.1c-0.4,0-0.7-0.3-0.7-0.7c0-0.4,0.3-0.7,0.7-0.7h2.1c0.4,0,0.7,0.3,0.7,0.7C19,23.8,18.7,24.1,18.3,24.1z
		 M18.3,21.5h-2.1c-0.4,0-0.7-0.3-0.7-0.7c0-0.4,0.3-0.7,0.7-0.7h2.1c0.4,0,0.7,0.3,0.7,0.7S18.7,21.5,18.3,21.5z M22.9,26.8h-2.1
		c-0.4,0-0.7-0.3-0.7-0.7s0.3-0.7,0.7-0.7h2.1c0.4,0,0.7,0.3,0.7,0.7S23.3,26.8,22.9,26.8z M22.9,24.1h-2.1c-0.4,0-0.7-0.3-0.7-0.7
		c0-0.4,0.3-0.7,0.7-0.7h2.1c0.4,0,0.7,0.3,0.7,0.7C23.6,23.8,23.3,24.1,22.9,24.1z M22.9,21.5h-2.1c-0.4,0-0.7-0.3-0.7-0.7
		c0-0.4,0.3-0.7,0.7-0.7h2.1c0.4,0,0.7,0.3,0.7,0.7S23.3,21.5,22.9,21.5z M34.4,13.1c0,0.2,0,0.4-0.1,0.6c-0.5,1.2-1.4,2.2-2.1,3.3
		c-0.9,1.4-8.4-1.6-7.4-3.5c0.4-0.7,1.8-2.6,1.9-3.4c0.1-0.7-0.8-1.2-1.7-1.3c-2.2-0.2-5.1,0-7.5,0l0,0c-0.1,0-0.1,0-0.2,0
		s-0.1,0-0.2,0l0,0c-2.4,0-5.2-0.2-7.5,0C8.8,8.9,7.9,9.5,8,10.1c0.1,0.8,1.5,2.7,1.9,3.4c1,1.9-6.6,4.9-7.4,3.5
		c-0.8-1-1.7-2-2.2-3.2c-0.1-0.2-0.1-0.4-0.1-0.6c-1.1-4.9,3.1-10,9.6-10.5c2.4-0.2,4.9-0.3,7.4-0.4l0,0c0.1,0,0.1,0,0.2,0
		s0.1,0,0.2,0l0,0c2.5,0,4.9,0.2,7.4,0.4C31.2,3.2,35.5,8.2,34.4,13.1z"/>
</g>
</svg>
