<svg version="1.1" id="Capa_1" xmlns="http://www.w3.org/2000/svg" x="0" y="0" viewBox="0 0 512 512" xml:space="preserve"><style>.st0{fill:#ea5f3d}</style><path class="st0" d="M198 198.9c-4.3-4.7-10.5-7.5-16.8-7.6-12.9-.2-23.5 10.1-23.7 22.9-.1 4.1 3.2 7.6 7.4 7.6h.1c4.1 0 7.4-3.3 7.5-7.4.1-4.6 3.8-8.3 8.5-8.2 2.3 0 4.4 1 6 2.7 2.8 3.1 7.5 3.3 10.6.5 2.9-2.7 3.2-7.5.4-10.5zm39.9 24.4c-2.3-5.4-6.8-9.7-12.3-11.7-11.1-4.1-23.4 1.6-27.5 12.7-1.4 3.9.5 8.2 4.4 9.6.9.3 1.7.5 2.6.5 3 0 5.9-1.9 7-4.9 1.2-3.3 4.9-5 8.3-3.8 1.7.6 3 1.9 3.7 3.5 1.6 3.8 6 5.6 9.8 4 3.8-1.7 5.6-6.1 4-9.9zm48.3-66.4c-2.9-2.9-7.7-2.9-10.6 0l-7.1 7.1c-2.9 2.9-2.9 7.7 0 10.6 1.5 1.5 3.4 2.2 5.3 2.2s3.8-.7 5.3-2.2l7.1-7.1c2.9-2.9 2.9-7.7 0-10.6zm-46.7 96.8h-10c-4.1 0-7.5 3.4-7.5 7.5s3.4 7.5 7.5 7.5h10c4.1 0 7.5-3.4 7.5-7.5s-3.3-7.5-7.5-7.5zm76.7 0h-10c-4.1 0-7.5 3.4-7.5 7.5s3.4 7.5 7.5 7.5h10c4.1 0 7.5-3.4 7.5-7.5s-3.4-7.5-7.5-7.5z"/><path class="st0" d="M511.8 388.9l-2-10.5c-1.2-6.7-7.1-11.6-14-11.6-.9 0-1.7.1-2.6.2l-39.8 7.3 18-12c4.7-3.2 7.1-8.8 6.1-14.4-.3-1.5-.8-3-1.6-4.4l-5.4-9.6c-1.9-3.3-5.1-5.8-8.7-6.8-1.8-.5-3.7-.6-5.5-.3 2-11.1 3-22.4 3-33.9 0-5.1-3.1-9.5-7.5-11.4 5.7-13.6 6.1-29.2.5-43.5-.5-1.2-1.1-2.2-2-3.1-.9-.9-1.9-1.6-3.1-2-6.8-2.7-13.9-4.1-21.2-4.1-.9 0-1.9 0-2.8.1-1-20.9-18.4-37.6-39.5-37.6-2.8 0-5.5.3-8.1.8 1.8-10.9.7-22.3-3.5-33-.5-1.2-1.1-2.2-2.1-3.2-.9-.9-1.9-1.6-3.1-2.1-7.3-2.9-15-4.4-22.8-4.4-11.8 0-23.1 3.3-32.9 9.5-3.6-10.3-9.4-20-17.7-28.3-2.4-2.4-5.6-3.7-9-3.7s-6.6 1.3-9 3.7L239.2 167c-6.7-6-15.6-9.6-25.2-9.6-2.2 0-4.4.2-6.5.6-7.8 1.4-15 5.2-20.5 10.8-7.1-3.4-15.2-4.6-23-3.2-1.7.3-3.4.7-5 1.2v-28c0-19.3-15.5-35.1-34.7-35.4V87.5c5.9-1 10.4-6.1 10.4-12.3v-36c0-6.9-5.6-12.5-12.5-12.5h-61c-6.9 0-12.5 5.6-12.5 12.5v36c0 6.2 4.5 11.3 10.4 12.3v15.9c-19.2.3-34.7 16.1-34.7 35.4v218.9C9.3 371.2 0 390.1 0 410.9c0 41 36 74.4 80.3 74.4l300.2-.1c10.2 0 19.9-4.5 26.4-12.4 6.4-7.6 9.1-17.6 7.5-27.3l60 10.8c.8.1 1.7.2 2.5.2 3 0 5.9-.9 8.3-2.7 3.1-2.2 5.2-5.7 5.8-9.5l1.6-10.9c.2-1.6.2-3.1-.1-4.7-1-5.6-5.3-10-10.8-11.3l-21.1-4.8 39.7-7.3c3.7-.7 7-2.8 9.2-5.9 2.1-3 3-6.7 2.3-10.5zM426 243.7c4.5 0 9 .7 13.2 2.1 3.8 11.6 2.4 24.1-3.6 34.5h-20.2l6.4-6.5c2.9-2.9 2.9-7.7 0-10.6s-7.7-2.9-10.6 0l-3.4 3.4c-1.6-5.3-4.4-10-8.1-13.8 7.6-5.8 16.7-9.1 26.3-9.1zm-42.3-37.5c13.5 0 24.6 11.1 24.6 24.6v.8c-7.9 2.6-15.2 6.9-21.4 12.7-1-.4-2-.7-3-1-2.2-11.9-10.2-21.4-20.7-25.8 4.3-6.8 11.9-11.3 20.5-11.3zm-39.6-41.8c5.1 0 10.1.8 14.9 2.5 3.9 11.5 3.1 23.9-1.9 34.6-4.1 3.7-7.4 8.2-9.6 13.3-1.3.1-2.7.2-4 .5-5.9 1-11.4 3.6-15.9 7.3-1.6-2.9-3.5-5.5-5.7-7.9l17.2-17.2c2.9-2.9 2.9-7.7 0-10.6-2.9-2.9-7.7-2.9-10.6 0l-18.8 18.8c-3.6-1.7-7.4-2.9-11.5-3.4 1.8-8.9 6.1-17.4 12.8-24.1 8.9-8.9 20.6-13.8 33.1-13.8zm-57.5 115.9h-6.5c-1.1-2.8-3.8-4.8-7-4.8s-5.9 2-7 4.8h-7.6c1.8-2.9 1.4-6.7-1.1-9.2-2.9-2.9-7.7-2.9-10.6 0l-7.1 7.1c-.6.6-1.1 1.4-1.5 2.1H223c-5.7-8.8-9.2-19.1-9.6-30.3h119c-.4 11.1-3.9 21.5-9.6 30.3h-15.9c-.4-.8-.8-1.5-1.5-2.1l-7.1-7.1c-2.9-2.9-7.7-2.9-10.6 0-2.5 2.5-2.9 6.4-1.1 9.2zm-17.4-45.2c2.8-10.5 12.4-18.2 23.7-18.2 11.3 0 20.9 7.7 23.7 18.2h-47.4zm15.3-92.2c7.1 7.7 11.9 16.9 14.2 26.5-3.8 4.2-7 8.8-9.5 13.7-1.1-.7-2.5-1.1-3.9-1.1h-10c-4.1 0-7.5 3.4-7.5 7.5s3.4 7.5 7.5 7.5h8.8c-.5 2.1-.9 4.2-1.2 6.3-3 .8-5.8 1.9-8.5 3.3-5-8.6-13.3-15.1-23.1-17.6v-.1c-.6-3.4-1.6-6.6-3-9.6l36.2-36.4zm-135.6 67.6c-.4-1.2-.8-2.5-1-3.8-2.2-12.4 6.2-24.2 18.6-26.4 1.3-.2 2.6-.3 4-.3 4.9 0 9.7 1.6 13.7 4.6 1.7 1.2 3.7 1.7 5.8 1.4 2-.4 3.8-1.5 5-3.2 3.5-5.3 8.9-8.8 15.2-9.9 1.3-.2 2.6-.3 4-.3 11.1 0 20.6 7.9 22.5 18.9.2 1.3.3 2.6.3 3.9 0 3.9 3 7.1 6.8 7.5 8.4.7 15.5 6 18.8 13.4-4.4 5.3-7.5 11.8-8.7 18.9h-42.8c-5.3 0-9.9 3.3-11.8 7.9-9.4-6.4-20.5-9.9-32.1-9.9-7.3 0-14.4 1.4-21.2 4.1-1.2.5-2.2 1.1-3.1 2-.9.9-1.6 1.9-2 3.1-1.7 4.4-2.9 8.8-3.5 13.3-2.7-3.1-4.6-6.9-5.3-11.1-1.8-10.2 3.6-20.3 12.9-24.6 3.5-1.8 5.2-5.8 3.9-9.5zm22.4 67.8l2 2.1h-18c-4-9.4-4.7-20.1-1.4-30.1 4.3-1.4 8.7-2.1 13.2-2.1 11.3 0 21.9 4.4 29.9 12.4 1.1 1.1 2.1 2.2 3 3.3 1.3 5.8 3.2 11.3 5.7 16.4h-11.3l-12.6-12.6c-2.9-2.9-7.7-2.9-10.6 0-2.8 2.9-2.8 7.7.1 10.6zm-32 2h-26.7c1.2-7.3 5.6-13.5 11.6-17.1 3.6 4.8 8.3 8.7 13.7 11.3.4 2 .9 3.9 1.4 5.8zM63.7 41.6h56v31h-56v-31zm45.6 46.1v15.7H74V87.7h35.3zm-70 81.5H88c4.1 0 7.5-3.4 7.5-7.5s-3.4-7.5-7.5-7.5H39.3v-15.4c0-11.3 9.1-20.4 20.3-20.4h64c11.2 0 20.3 9.2 20.3 20.4v15.4h-14c-4.1 0-7.5 3.4-7.5 7.5s3.4 7.5 7.5 7.5h14v6.7c-8.6 8.4-13.1 20.8-10.9 33.5v.1c-12 8.3-18.4 22.9-15.9 37.7.1.9.3 1.7.5 2.5-3.7 2.1-7.1 4.7-10 7.9H39.3v-88.4zm0 103.3h59.8c-.8 2.5-1.4 5.2-1.6 7.9h-1.3c-6.9 0-12.5 5.6-12.5 12.5 0 11.9 1.1 23.6 3.3 35-2.2-.2-4.4-.3-6.6-.3-9.1 0-17.7 1.4-24.3 4.1-10.1 4-12.9 9.7-13.5 13.6-1.1.5-2.1 1.1-3.2 1.7-.1 0-.1-74.5-.1-74.5zm95 92.1c2.7 2.2 4.4 4 5.3 5.3h-.3c-4.2 0-11.9-1.7-20.5-6.5-3.2-1.8-6.2-3.8-8.6-5.8-2.8-2.4-6.9-2.4-9.7 0-2.4 2-5.4 4.1-8.6 5.8-8.7 4.8-16.3 6.5-20.5 6.5h-.3c1-1.3 2.6-3.2 5.3-5.3 2.4-1.9 3.4-5 2.5-7.9-.8-2.9-3.3-5-6.3-5.4-7.3-.9-11.9-2.7-14.1-4.1 2.7-1.7 9.6-4.6 21.9-4.6 10.2 0 17.7 2.2 21.3 4.2 2.3 1.3 5.1 1.3 7.3 0 3.6-2 11.1-4.2 21.3-4.2 12.4 0 19.2 2.9 21.9 4.6-2.2 1.4-6.8 3.2-14.1 4.1-3 .4-5.5 2.5-6.3 5.4-.9 2.9.1 6 2.5 7.9zm-15 91.3l.3 1.4c.9 4.8 2.8 9.2 5.4 13.1H80.3c-36 0-65.3-26.7-65.3-59.4 0-22.4 13.7-41.9 33.8-52.1 2.3 1.7 5.2 3.2 8.6 4.4-1.4 2.3-2.3 4.8-2.5 7.4-.3 3.5.8 6.7 3 9.2 2.9 3.3 7.4 5 13.4 5 7.9 0 18.3-3.1 27.8-8.4 2.2-1.2 4.3-2.5 6.2-3.8 1.9 1.3 4 2.6 6.2 3.8 9.5 5.3 19.9 8.4 27.8 8.4 5.9 0 10.4-1.7 13.4-5 2.2-2.5 3.3-5.8 3-9.2-.2-2.6-1.2-5.1-2.5-7.4 3.4-1.2 6.3-2.7 8.6-4.4 16 8 27.9 22 32.1 38.6l-53 20.2c-15.6 5.8-24.7 21.9-21.6 38.2zm276.1 7.4c-3.7 4.4-9.1 7-14.9 7h-7.9l-4.9-26.6c-.8-4.1-4.7-6.8-8.7-6-4.1.8-6.8 4.7-6 8.7l4.4 23.8h-25.8l-3.3-18c-.8-4.1-4.7-6.8-8.7-6-4.1.8-6.8 4.7-6 8.7l2.8 15.2h-60l-4.5-24.4c-.8-4.1-4.7-6.8-8.7-6-4.1.8-6.8 4.7-6 8.7l4 21.7h-87.6c-9.4 0-17.4-6.6-19.1-15.8l-.3-1.4c-1.7-9.2 3.4-18.2 12.2-21.5l29.5-11.2 2.2 11.9c.7 3.6 3.8 6.1 7.4 6.1.5 0 .9 0 1.4-.1 4.1-.8 6.8-4.7 6-8.7l-2.7-14.5 43.8-16.6c3.9-1.5 5.8-5.8 4.3-9.7-1.5-3.9-5.8-5.8-9.7-4.3l-20.4 7.7c-5.7-20.2-20.4-37.1-39.8-46.8-.6-3.9-3.4-9.6-13.5-13.6-6.6-2.6-15.3-4.1-24.3-4.1-6.2 0-12.2.7-17.5 1.9v-4.5c0-4.1-3.4-7.5-7.5-7.5-1.8 0-3.4.6-4.6 1.6-1.2-7.8-1.8-15.8-2-23.8h244c4.1 0 7.5-3.4 7.5-7.5s-3.4-7.5-7.5-7.5h-3.1c4.8-9.8 7.5-20.9 7.5-32.5 0-6.6-5.1-12.1-11.5-12.7 2.8-2.6 6.3-4.4 10.2-5.1 1.1-.2 2.3-.3 3.5-.3 9.7 0 17.9 6.9 19.6 16.5.2 1.1.3 2.2.3 3.4 0 3.9 3 7.1 6.8 7.5 9 .8 16.3 7.5 17.8 16.4.4 2.4.4 4.7-.1 6.9h-8c-4.1 0-7.5 3.4-7.5 7.5s3.4 7.5 7.5 7.5h58.3c-.2 13.8-2 27.2-5.3 40.2l-40.6 24c-2.5-8.7-8.3-16-16.2-20.4-8.9-5-19.5-5.8-29.1-2.1l-83.7 31.8c-3.9 1.5-5.8 5.8-4.3 9.7 1.5 3.9 5.8 5.8 9.7 4.3l11-4.2 3.4 18.5c.7 3.6 3.8 6.1 7.4 6.1.5 0 .9 0 1.4-.1 4.1-.8 6.8-4.7 6-8.7l-3.9-21.2 58.4-22.2c5.4-2.1 11.4-1.6 16.5 1.2 5 2.8 8.5 7.7 9.6 13.3l15.2 81.9c.8 5.7-.7 11.5-4.4 15.9zm26.8-58.7c-3.5.6-6.1 3.7-6.1 7.2-.1 3.6 2.4 6.7 5.8 7.5l55.8 12.8-1.4 9.4-64.7-11.6-10.1-54.6 56.4-33.3 4.7 8.3L415 382c-3 2-4.1 5.8-2.8 9.1 1.3 3.3 4.8 5.2 8.3 4.6l74.7-13.7 1.7 9-74.7 13.6z"/></svg>