<svg data-name="Layer 1" xmlns="http://www.w3.org/2000/svg" viewBox="0 0 1913.19 1877.78"><path d="M234.84 330.56a2.34 2.34 0 0 0 2.79-1.21c8.55-17.54 17.66-38.18 28.15-58.12 13.71-26 34.75-40.87 58.71-53.12 56.27-28.78 115-33.42 175.64-14.75 37.37 11.52 74.39 25.05 112.54 33 75.22 15.6 105-7 134.18-62.1 17.75-33.49 33-68.29 51-101.68C828.04 16.33 892.7-11.07 955.3 4.24c67.54 16.52 115.23 53.7 132.85 124.08 20.75 83-25.92 160.85-111.42 180.37-11.23 2.56-22.73 3.94-33.84 5.7a2.39 2.39 0 0 0-2 2.7c2.5 16.47 7.08 32.64 6.19 48.5-3.25 58.28 10.47 113.35 26.62 168.45 7.68 26.18 12.95 53.2 17.37 80.15 2.48 15.16-7.28 24-22.41 22.76-18.23-1.47-36.21-6.12-54.44-7.54-115.47-9-223.55 17.67-324.26 72.75-53.73 29.39-104.75 63.72-160.06 97.83a2.37 2.37 0 0 1-3.23-.74c-4.66-7.23-12.83-17.52-16.72-29.23-22.14-66.72-69.38-111.56-126.13-148.58-4.37-2.85-7.23-5.13-11.86-7.82a2.94 2.94 0 0 0-2.65 0c-109.47 62.76-231.78 15-265.29-101.75-15.26-53.13 14.97-129.63 60.52-162.28 33.4-23.94 69.33-41.37 111.32-36.06 20.09 2.55 39.43 11 58.98 17.03zm716.41 256a2.4 2.4 0 0 0 2.6-3c-7.56-29.76-15.83-56.74-20.67-84.31a1043.3 1043.3 0 0 1-13-105.4c-1.47-20.23 1.73-40.87 3.65-61.24 1.15-12.21-4.86-15.64-15.13-20.76-15.63-7.8-33.16-16.93-42.24-31.85-3.29-5.41-3.13-21.62 3.8-26.07 4.18-2.69 15.8-1.18 24.06-.21 16.2 1.91 33.47 9.62 48.22 6.13 42.41-10 81.85-28.73 94.55-75.23 10.52-38.53-5.13-73.51-29.2-104.88C984.4 49.19 945.1 34.52 907.6 43.45c-33.16 7.9-55.48 31.33-68.31 65.09-12.31 32.28-22.69 65.39-36.69 96.88-10.51 23.56-20.26 47.71-43.94 64-52.78 36.24-109.27 37.15-167.51 21-45.21-12.54-89-30.43-134.49-41.59-25.29-6.21-54.06-9.28-79-3.69-58.51 13.1-90.37 53.88-99.12 113.15-4.17 28.18-13.18 34-41.43 26.56-31-8.17-61.57-12.35-92.49 0-31.1 12.45-58.87 25.42-75.46 59.62-16.81 34.65-27.64 68.35-4.15 104.1 40.67 61.91 108.56 84.75 183.46 47.17 31.15-15.64 59.1-37.63 91.85-60.39a2.39 2.39 0 0 1 3.24 3.44l-50.75 64.63a2.38 2.38 0 0 0 1 3.67c68.53 28 116.92 80.9 147.86 151.58a2.38 2.38 0 0 0 4.12.44c58.66-81.42 146.51-110.34 231.77-141 87.48-31.53 178.85-42.47 273.69-31.52zm597.89 453.92a2.65 2.65 0 0 1 .44-4.49c32.23-15.81 62.88-29.62 92.15-45.9 39.39-21.91 55.08-62.47 72.66-100.55 15.24-33 36.79-59.08 66.38-80.67 25.21-18.39 47.87-40.83 69.07-63.86 6.77-7.37 9.84-23.93 6.56-33.54-6.52-19.13-25.76-18.26-40-11.25-31.38 15.46-61.29 33.89-91.74 51.23-4.56 2.59-8.9 5.57-15.08 9.63a2.65 2.65 0 0 1-4.08-2.52c2.38-19.78 15.36-31.32 24.54-43.93 19.28-26.51 40.69-51.47 60.73-77.45 5.54-7.18 10.69-15.26 13.54-23.76 2.52-7.49 5-19.17 1.24-23.45-4-4.58-16.1-5.17-23.52-3.21-42.68 11.29-72.17 40-98 74.46-12.1 16.15-27.5 29.83-43.81 46.63a2.64 2.64 0 0 1-4.42-1.11c-6.1-20.91-11.25-36.31-14.74-52.08-8.31-37.66-65-51.86-88.77-19.6-22.55 30.56-41 62.56-32 102.38 3.77 16.67 15.22 19.2 29.1 8.86 5.25-3.92 10.55-7.77 15.75-11.75 23.89-18.27 29.14-16.72 42.65 9.22 28.5 54.72-6.49 106.72-46.46 130-35.34 20.54-71.54 3-84.89-37.94-8.84-27.15-14.46-55.45-24.71-82-9.56-24.76-19.64-25.2-39-7.3-36 33.32-27 74.32-18.93 114.29 5.18 25.67 21.44 44.42 46.25 55.14 12 5.2 23.63 11.45 35.14 17.73 18.91 10.32 25.32 21.1 23.33 44.82a2.64 2.64 0 0 1-5 1c-23.56-45.67-70.88-56.66-107.75-81.42-43-28.89-58.53-103.3-33.17-148 16-28.25 38.85-45.68 68.45-55.13 28-8.94 51 5.75 54.69 34.78 2.58 20.24 3.58 40.74 4.11 61.15.74 28.7 14.38 44.82 44.45 50.55 15.5 3 40.18-13.34 46.56-33.62 5.27-16.71 7.93-34.25 11.61-52.67a2.63 2.63 0 0 0-4-2.77c-13.77 8.49-24.75 17.46-37.13 20.26-31.13 7.06-63.93-27.87-56.13-60.62 10.3-42.28 23.99-83.28 59.19-113.22 17.9-15.21 45.12-17.58 65.59-6.3 27.68 15.25 44.9 37.78 53.29 65.07a2.64 2.64 0 0 0 4.54.94c19.29-23 37.4-46.82 58.22-67.94 24.32-24.66 52.74-42.75 90.12-41.55 41.71 1.34 61.59 29.93 46 68.69-4 10.06-8.95 19.78-13.5 29.37a2.64 2.64 0 0 0 2.47 3.78c11.1-.38 22.5-1.88 33 .48 46.59 10.42 54.94 51.52 45.62 91.28-10.51 44.86-42.42 72.8-78 97.12-29.1 19.87-46.63 48-58.83 79.42-24.12 62.07-62.47 110.3-128.74 127.66-25 6.57-58.2 4.81-74.57 2.07-5.25-.89-15.51-4.7-20.47-8.41zm-1025.2 552.26c-16.06-37-23.42-71.79-9.14-109.23 25.61-67.16 70.78-118.88 125-164.51 47.32-39.8 97.26-75.54 153.55-100.78 41.5-18.6 84.91-33.14 128.11-47.57 11.83-4 19.56-7.43 22.59-20.24 4.1-17.27 15.61-29.74 33.4-31.07 14.41-1.07 23.69 9.26 32.49 21.24 5.43 7.38 18.72 13.19 28.15 12.74 72.23-3.44 139.79 12.1 202.55 47.42 57.26 32.23 107.22 73.46 148.86 124.67 53.25 65.49 98 135.64 123 217.07 8.25 26.86 1.49 50.55-17.39 55.59-38.35 10.25-56.94 3.28-66.75-29.37a598.38 598.38 0 0 0-88.33-178.4c-68.18-94.67-157.6-159.2-273.71-179.57-80.62-14.15-159.25-2.17-235 30.84-77.89 33.94-145.75 82.44-205.57 141.29-39.22 38.58-79.32 78.92-90.91 136.63-4.58 22.97-6.96 46.34-10.9 73.25zm782.92-782.89c-33.16 43.83-74.74 62-119.94 71.12-51.22 10.29-103.62 14.7-154.78 25.19-40.81 8.37-74.8 31.37-101.84 63.38-3.89 4.61-5.71 11.84-6.48 18.1-5.51 44.74-25.31 53-67.51 58.33a61.29 61.29 0 0 0-22.9 8.13c-35.78 21.25-54.47 20.24-80.78-.43-41.11-32.31-86.4-21.18-127.59-2-39.42 18.42-74.82 45.27-113 66.67-62.34 35-106.85 50.51-173.51 40.53 14.73-6.92 25-12.32 35.77-16.71 50.1-20.54 90.26-55 129.56-91 44.15-40.39 89.15-80.37 150.93-91 54-9.27 108.29-14.9 161.85 8.16 11-14.17 21.92-30.41 35-44.61 42.74-46.34 94.19-80 157.7-85.42 62.08-5.3 124.84-2.08 187.15-5.46 27-1.46 53.55-10 80.27-15.57 8.36-1.61 16.51-3.98 30.1-7.41zm-896.13 835.57c5.48-1.06 11.13 2.64 14.52 4.92 45.66 30.67 99.32 34.11 150.91 44.14 39.13 7.6 78.53 14 118 19.45 37.73 5.23 75.63 10.81 113.62 12.33 73.73 2.94 147.73 6.65 221.33 3.45 67.35-2.92 134.36-14.26 201.46-22.4 71.72-8.7 140.47-28.53 207-56.55 29.46-12.42 58.92-24.84 88.74-36.34 13.26-5.11 27.3-10.4 41.17-10.93 9.49-.36 23.32 4.88 27.82 12.18s3 22-1.47 30.41c-15.23 28.4-44.66 39.87-72.08 51.44-78.93 33.29-161.68 55-245.32 72-41 8.36-83.55 10.52-125.54 12.72-55 2.89-110.37 6.21-165.3 3.63-77.54-3.64-155.3-9.22-232.1-20.1-72.83-10.32-145.08-26.35-216.55-44-47.78-11.83-93.87-30.74-126.21-76.35zm987.93-645.46c18.7 61.43 71.12 80.14 123.49 97.32 22 7.24 46 9.13 69.15 12.52 15.64 2.28 27.92 10.74 28 25.39.11 14.33-8.41 25.14-27 27.2-67.82 7.54-126.87-9.65-175.46-58.2-30.18-30.2-36.91-70.78-18.18-104.23zM913.6 1842.74c-12.06-7.76-3.5-26.52 10.37-22.84 18.46 4.9 36.72 9.74 55 14.67 57.22 15.5 115.94 20.93 174.38 15.4 67.74-6.42 133.25-24.13 192.65-59.52 2.81-1.67 5.71-4 8.73-4.3l.79-.07c9.32-.67 16.41 8.8 12.69 17.38a8.07 8.07 0 0 1-2.67 3.56c-38.91 27-82 46.56-128.35 55-47.59 8.63-96.2 15.38-144.42 15.77-58.21.46-115.47-12.13-170.81-31.15a39 39 0 0 1-8.36-3.9zM657.89 843.88c-53.74-2.71-79.72 15.69-83.66 59.24-21.17-7.81-31.94-31.76-26.92-59.88 3.48-19.49 32.06-44.56 51.55-45.22 26.33-.89 52.66 19.57 59.03 45.86z"/><path d="M706.25 902.9a6.83 6.83 0 0 1 8.48-9c17.64 5.75 35.34 12.07 53.58 15.16 22.2 3.75 39.19-8 49.73-28.12 1.81-3.46 3.42-7.44 6.26-9.85a116.73 116.73 0 0 1 11.53-8.35 6.83 6.83 0 0 1 9.56 2.09c4.56 7.22 10 14.59 8.91 20.83-5.77 33.18-36.6 58.21-65.79 55.89-13-1-26.61-.31-39-3.73-24.28-6.65-35.99-16.43-43.26-34.92zm325.35-208.31c50.1-9.15 123.73 38.93 141 89.37 1.25 3.65 3.7 7.8 2.89 11-.46 1.84-1 3.66-1.64 5.47-3.25 9.43-15.82 11.67-21.87 3.74l-.12-.15c-14.46-19.29-26.17-41.05-42.68-58.26-17.27-18-40.56-28.16-66.52-28.33-10.89-.07-21.88-1.6-21.66-13.87.09-3.5 6.16-8.16 10.6-8.97zM446.37 908.07c-41.89 29-48.08 85.11-46.25 135.62 6.27 31.49 12.66 35.4 15.52 37.12 1.63 1 3.31 1.87 5 2.71 9 4.37 19.45-2.94 18.12-12.82a1.2 1.2 0 0 0 0-.2c-6.1-22-9.61-28.38-9.61-70.46 0-22.45 7.36-49.51 25.6-68 7.64-7.75 14.33-16.6 5.5-25.12-2.54-2.44-10.13-1.44-13.88 1.15zm410.77-127.83c-21.67-26.58-13.63-50.82 1-67.08 16.52-18.42 40.73-20.76 62.46-7.42 22.34 13.73 29.46 38.51 18.71 65.15-33-31.52-50.24-29.56-82.17 9.35zm-49.64 328.2c36.07 7.93 64-4.46 91-22.33 1.59 24.9-6.84 40.42-24 46.52-20.55 7.34-50.18-2.25-67-24.19z"/></svg>