<svg version="1.1" id="Capa_1" xmlns="http://www.w3.org/2000/svg" x="0" y="0" viewBox="0 0 204.1 204.1" xml:space="preserve"><style>.st0{fill:#ea5f3d}</style><path class="st0" d="M151 52.2c4.9-6.2 5.7-14 2.5-22.6-2.3-6.1-6-10.5-6.1-10.7-1.2-1.4-3.3-1.6-4.8-.4-1.4 1.2-1.6 3.3-.4 4.8.2.2 11.7 14.4 3.5 24.9-11.8 15 .8 34.9 1.3 35.7.6 1 1.7 1.5 2.8 1.5.6 0 1.3-.2 1.8-.5 1.6-1 2-3.1 1-4.7 0-.3-10.4-16.8-1.6-28zm22.7 0c4.9-6.2 5.7-14 2.5-22.6-2.3-6.1-6-10.5-6.1-10.7-1.2-1.4-3.3-1.6-4.8-.4-1.4 1.2-1.6 3.3-.4 4.7.1.1 11.7 14.4 3.5 24.9-11.8 15 .8 34.9 1.3 35.7.6 1 1.7 1.5 2.8 1.5.6 0 1.3-.2 1.8-.5 1.6-1 2-3.1 1-4.7 0-.2-10.4-16.7-1.6-27.9zM32 53.8c4.9-6.2 5.7-14 2.5-22.6-2.3-6.1-6-10.5-6.1-10.7-1.3-1.5-3.4-1.7-4.8-.5s-1.6 3.3-.4 4.7c.1.1 11.7 14.4 3.5 24.9-11.8 15 .8 34.9 1.3 35.7.6 1 1.7 1.5 2.8 1.5.6 0 1.3-.2 1.8-.5 1.6-1 2-3.1 1-4.7-.1-.1-10.4-16.6-1.6-27.8zm22.6 0c4.9-6.2 5.7-14 2.5-22.6-2.3-6.1-6-10.5-6.1-10.7-1.2-1.4-3.3-1.6-4.8-.4-1.4 1.2-1.6 3.3-.4 4.7.1.1 11.7 14.4 3.5 24.9-11.8 15 .8 34.9 1.3 35.7.6 1 1.7 1.5 2.8 1.5.6 0 1.3-.2 1.8-.5 1.6-1 2-3.1 1-4.7 0-.2-10.4-16.7-1.6-27.9z"/><path class="st0" d="M192.9 159.8h-7.2c-1.7-42.1-34.7-76.3-76.2-79.9v-3.4c4.2-2.5 6.8-7.1 6.8-12.1 0-7.8-6.3-14.1-14.1-14.1h-.3c-7.8 0-14.1 6.3-14.1 14.1 0 5 2.6 9.6 6.8 12.1v3.4C53 83.5 20 117.7 18.4 159.8h-7.2C5 159.8 0 164.8 0 171v4.2c0 6.2 5 11.2 11.2 11.2h181.7c6.2 0 11.2-5 11.2-11.2V171c0-6.2-5-11.2-11.2-11.2zM94.5 64.4c0-4.1 3.3-7.4 7.4-7.4h.3c4.1 0 7.4 3.3 7.4 7.4 0 3-1.8 5.7-4.7 6.9-1.3.5-2.1 1.8-2.1 3.1v5.2h-1.4v-5.2c0-1.4-.8-2.6-2.1-3.1-2.9-1.2-4.8-3.9-4.8-6.9zm98.4 115.3H11.2c-2.5 0-4.5-2-4.5-4.5V171c0-2.5 2-4.5 4.5-4.5H138c1.9 0 3.4-1.5 3.4-3.4s-1.5-3.4-3.4-3.4H25.1c1.8-40.7 35.4-73.3 76.5-73.5h.9c41.1.2 74.7 32.8 76.5 73.5h-19.1c-1.9 0-3.4 1.5-3.4 3.4s1.5 3.4 3.4 3.4h33c2.5 0 4.5 2 4.5 4.5v4.2c-.1 2.5-2.1 4.5-4.5 4.5z"/></svg>