<svg id="Layer_1" data-name="Layer 1" xmlns="http://www.w3.org/2000/svg" viewBox="0 0 1422.02 626.78"><defs><style>.cls-1{fill:#231f20}</style></defs><path d="M409.81 506.43a.78.78 0 0 0 .93-.41c2.86-5.85 5.9-12.74 9.4-19.4 4.58-8.69 11.6-13.64 19.59-17.73 18.79-9.6 38.4-11.15 58.63-4.92 12.48 3.85 24.83 8.36 37.57 11 25.1 5.21 35-2.34 44.78-20.73 5.93-11.17 11-22.79 17-33.94 10.08-18.77 31.66-27.92 52.55-22.81 22.55 5.52 38.47 17.93 44.35 41.42 6.93 27.69-8.65 53.69-37.19 60.2-3.75.86-7.59 1.32-11.3 1.91a.8.8 0 0 0-.66.9c.84 5.5 2.37 10.89 2.07 16.19-1.09 19.45 3.49 37.83 8.88 56.23a220.78 220.78 0 0 1 5.8 26.75c.83 5.06-2.43 8-7.48 7.59-6.08-.49-12.08-2-18.17-2.51-38.54-3-74.62 5.9-108.24 24.28-17.93 9.81-35 21.27-53.42 32.65a.79.79 0 0 1-1.08-.24c-1.55-2.42-4.28-5.85-5.58-9.76-7.39-22.27-23.16-37.24-42.1-49.59-1.46-1-2.41-1.72-4-2.61a1 1 0 0 0-.88 0c-36.54 21-77.37 5-88.55-34-5.09-17.71 5-43.25 20.21-54.15 11.15-8 23.14-13.81 37.16-12 6.75.84 13.21 3.67 19.73 5.68zm239.13 85.46a.8.8 0 0 0 .87-1c-2.53-9.94-5.28-18.94-6.9-28.15a349.06 349.06 0 0 1-4.34-35.18c-.49-6.75.58-13.64 1.22-20.44.38-4.07-1.63-5.22-5-6.93-5.22-2.6-11.07-5.65-14.1-10.63-1.1-1.8-1-7.22 1.27-8.7 1.39-.9 5.27-.39 8-.07 5.41.64 11.17 3.21 16.09 2.05 14.16-3.35 27.32-9.59 31.56-25.12 3.51-12.86-1.71-24.53-9.75-35a32.78 32.78 0 0 0-33.48-12.13c-11.07 2.63-18.52 10.45-22.8 21.72-4.1 10.78-7.56 21.83-12.25 32.34-3.5 7.86-6.76 15.92-14.66 21.35-17.62 12.1-36.48 12.4-55.91 7-15.09-4.19-29.71-10.16-44.89-13.89-8.45-2.07-18.05-3.09-26.38-1.23-19.53 4.37-30.16 18-33.08 37.77-1.39 9.41-4.4 11.35-13.83 8.87-10.35-2.73-20.55-4.13-30.87 0S360 533 354.5 544.45s-9.23 22.81-1.39 34.75c13.58 20.66 36.24 28.28 61.24 15.74 10.4-5.22 19.73-12.56 30.66-20.16a.8.8 0 0 1 1.08 1.15l-16.94 21.57a.8.8 0 0 0 .33 1.23c22.87 9.36 39 27 49.36 50.59a.79.79 0 0 0 1.37.15c19.58-27.18 48.9-36.83 77.36-47.07a199.09 199.09 0 0 1 91.37-10.51zm199.57 151.5a.89.89 0 0 1 .14-1.5c10.76-5.27 21-9.88 30.76-15.32 13.15-7.31 18.39-20.85 24.26-33.56a67.44 67.44 0 0 1 22.15-26.93c8.42-6.14 16-13.63 23.06-21.31 2.26-2.46 3.28-8 2.19-11.2-2.18-6.38-8.6-6.09-13.35-3.75-10.47 5.16-20.46 11.31-30.62 17.09-1.52.87-3 1.87-5 3.22a.88.88 0 0 1-1.36-.84c.8-6.6 5.13-10.45 8.19-14.66 6.44-8.85 13.59-17.18 20.27-25.85a28.29 28.29 0 0 0 4.53-7.94c.84-2.5 1.67-6.39.41-7.82s-5.38-1.73-7.85-1.07c-14.25 3.76-24.09 13.36-32.7 24.85-4 5.39-9.18 10-14.62 15.56a.88.88 0 0 1-1.48-.37c-2-7-3.75-12.12-4.91-17.38-2.78-12.57-21.69-17.31-29.64-6.54-7.52 10.2-13.66 20.88-10.66 34.17 1.26 5.57 5.08 6.41 9.71 3 1.76-1.31 3.52-2.6 5.26-3.92 8-6.1 9.73-5.58 14.24 3.07 9.51 18.27-2.17 35.63-15.51 43.38-11.8 6.85-23.88 1-28.34-12.66-3-9.07-4.82-18.51-8.24-27.38-3.19-8.26-6.56-8.41-13-2.44-12 11.13-9 24.81-6.32 38.15 1.74 8.57 7.16 14.83 15.44 18.41 4 1.73 7.89 3.82 11.73 5.92 6.31 3.44 8.46 7 7.79 15a.88.88 0 0 1-1.65.33c-7.87-15.25-23.66-18.91-36-27.18-14.37-9.64-19.54-34.48-11.07-49.4A38.55 38.55 0 0 1 799.15 628c9.35-3 17 1.92 18.25 11.61a201.56 201.56 0 0 1 1.37 20.41c.25 9.58 4.8 15 14.84 16.87 5.17 1 13.41-4.45 15.54-11.22 1.76-5.58 2.65-11.43 3.88-17.58a.88.88 0 0 0-1.32-.92c-4.6 2.83-8.26 5.82-12.4 6.76-10.39 2.35-21.34-9.3-18.73-20.24 3.35-14.08 7.92-27.78 19.67-37.77a19.83 19.83 0 0 1 21.89-2.1 36.29 36.29 0 0 1 17.79 21.72.88.88 0 0 0 1.52.31c6.44-7.68 12.48-15.62 19.43-22.67C909 585 918.48 579 931 579.35c13.92.44 20.56 10 15.37 22.92-1.35 3.36-3 6.61-4.51 9.81a.88.88 0 0 0 .82 1.26c3.71-.12 7.51-.63 11 .16C969.22 617 972 630.7 968.9 644c-3.51 15-14.16 24.3-26 32.42-9.71 6.63-15.56 16-19.63 26.51-8.05 20.71-20.86 36.81-43 42.61-8.35 2.19-19.42 1.6-24.89.69a20.24 20.24 0 0 1-6.87-2.84zm-342.2 184.35c-5.36-12.36-7.82-24-3.05-36.46 8.55-22.42 23.62-39.68 41.74-54.91 15.79-13.28 32.46-25.21 51.25-33.64 13.85-6.21 28.34-11.06 42.76-15.88 4-1.32 6.53-2.48 7.55-6.75 1.36-5.77 5.2-9.93 11.14-10.37 4.81-.36 7.91 3.09 10.85 7.09 1.81 2.46 6.25 4.4 9.39 4.25a123.16 123.16 0 0 1 67.61 15.83 172.33 172.33 0 0 1 49.69 41.61c17.77 21.86 32.7 45.27 41 72.46 2.75 9 .5 16.87-5.8 18.55-12.81 3.42-19 1.1-22.29-9.8a199.65 199.65 0 0 0-29.48-59.55c-22.76-31.6-52.6-53.14-91.36-59.94-26.91-4.72-53.16-.72-78.44 10.3-26 11.32-48.65 27.51-68.62 47.16-13.04 12.87-26.43 26.31-30.25 45.6-1.58 7.65-2.37 15.46-3.69 24.45zm261.33-261.33c-11.07 14.63-24.95 20.71-40 23.74-17.09 3.43-34.58 4.91-51.66 8.41-13.62 2.79-25 10.47-34 21.15a12 12 0 0 0-2.17 6c-1.84 14.94-8.44 17.7-22.53 19.47a20.6 20.6 0 0 0-7.64 2.72c-12 7.09-18.18 6.75-27-.15-13.72-10.78-28.84-7.07-42.58-.65-13.16 6.15-25 15.11-37.71 22.26-20.81 11.67-35.66 16.86-57.92 13.53 4.92-2.31 8.36-4.12 11.95-5.58C473.1 770.49 486.5 759 499.62 747c14.74-13.48 29.76-26.82 50.38-30.36 18-3.1 36.14-5 54 2.72 3.68-4.73 7.32-10.15 11.69-14.89 14.27-15.47 31.44-26.7 52.64-28.51 20.73-1.77 41.67-.69 62.47-1.82 9-.49 17.88-3.35 26.8-5.2 2.78-.6 5.5-1.39 10.04-2.53zm-299.12 278.9c1.83-.35 3.71.88 4.85 1.64 15.24 10.24 33.15 11.39 50.37 14.74 13.06 2.54 26.21 4.66 39.39 6.49 12.6 1.75 25.25 3.61 37.93 4.12 24.61 1 49.31 2.22 73.88 1.15 22.48-1 44.84-4.76 67.24-7.48 23.94-2.9 46.89-9.52 69.08-18.88 9.84-4.14 19.67-8.29 29.63-12.12 4.42-1.71 9.11-3.48 13.74-3.65 3.16-.12 7.78 1.63 9.28 4.06s1 7.34-.49 10.15c-5.08 9.48-14.91 13.31-24.06 17.17-26.34 11.11-54 18.35-81.88 24-13.69 2.79-27.89 3.51-41.91 4.25-18.37 1-36.83 2.07-55.17 1.21-25.88-1.22-51.84-3.08-77.47-6.71-24.31-3.45-48.43-8.8-72.28-14.7-15.95-3.9-31.33-10.21-42.13-25.44zm329.76-215.44c6.24 20.5 23.74 26.75 41.22 32.48 7.36 2.42 15.34 3 23.08 4.18 5.22.76 9.32 3.59 9.36 8.48s-2.81 8.39-9 9.07c-22.64 2.52-42.35-3.22-58.56-19.42-10.1-10.08-12.38-23.66-6.1-34.79zm-161.89 281.31c-4-2.59-1.17-8.85 3.46-7.62 6.16 1.63 12.26 3.25 18.34 4.9a163.25 163.25 0 0 0 58.21 5.13c22.61-2.14 44.47-8.05 64.3-19.86a8 8 0 0 1 2.92-1.44h.26a4.23 4.23 0 0 1 4.24 5.8 2.75 2.75 0 0 1-.89 1.19c-13 9-27.39 15.54-42.85 18.34-15.88 2.88-32.11 5.14-48.2 5.27-19.43.15-38.54-4-57-10.4a13.05 13.05 0 0 1-2.79-1.31zM551 677.77c-17.94-.91-26.61 5.24-27.92 19.77-7.07-2.6-10.67-10.6-9-20 1.16-6.5 10.7-14.87 17.21-15.09 8.81-.29 17.6 6.55 19.71 15.32z" transform="translate(-331.43 -396.09)"/><path d="M567.16 697.47a2.28 2.28 0 0 1 2.83-3c5.89 1.92 11.8 4 17.89 5.06 7.41 1.25 13.08-2.66 16.6-9.38a10.45 10.45 0 0 1 2.09-3.29 38.14 38.14 0 0 1 3.85-2.79 2.28 2.28 0 0 1 3.19.7c1.52 2.41 3.33 4.87 3 7-1.93 11.07-12.22 19.43-22 18.66-4.36-.35-8.88-.11-13-1.25-8.11-2.28-12.02-5.54-14.45-11.71zm108.61-69.53c16.73-3.06 41.3 13 47.06 29.83.42 1.22 1.24 2.6 1 3.68a22.7 22.7 0 0 1-.55 1.83 4.21 4.21 0 0 1-7.3 1.25c-4.83-6.44-8.74-13.71-14.25-19.45a30.6 30.6 0 0 0-22.2-9.46c-3.64 0-7.3-.53-7.23-4.63-.05-1.23 1.98-2.78 3.47-3.05zm-195.35 71.25c-14 9.67-16.05 28.41-15.44 45.27 2.09 10.51 4.22 11.82 5.18 12.39.54.33 1.11.63 1.68.91a4.22 4.22 0 0 0 6.05-4.28.17.17 0 0 1 0-.07c-2-7.36-3.21-9.47-3.21-23.52 0-7.49 2.46-16.52 8.54-22.69 2.56-2.58 4.79-5.54 1.84-8.38-.86-.82-3.39-.49-4.64.37zm137.11-42.66c-7.24-8.88-4.55-17 .31-22.39 5.54-6.17 13.62-6.93 20.87-2.47 7.46 4.58 9.84 12.85 6.25 21.74-11.02-10.53-16.77-9.87-27.43 3.12zM601 766.08c12 2.64 21.37-1.49 30.37-7.46.53 8.31-2.29 13.49-8 15.53-6.91 2.45-16.8-.75-22.37-8.07z" transform="translate(-331.43 -396.09)"/><path class="cls-1" d="M1031.55 843.26q4.5-6.48 8.72-13.23A69.35 69.35 0 0 0 1047 816a50.07 50.07 0 0 0 1.55-6.19 6.21 6.21 0 0 0-1.55-5.91 9 9 0 0 1 5.77 2.54 6.09 6.09 0 0 1 2.39 5.9l6.76-8.72q7.59-9.84 16-20.12a110.35 110.35 0 0 0 14.07-21.8q4.5-9.28-3.94-14.63a122.83 122.83 0 0 0-34.47-5.21 153 153 0 0 0-35 3.8 34.2 34.2 0 0 1 3.38 7 50.05 50.05 0 0 1 3 16 74 74 0 0 1-1.54 16.32 108.3 108.3 0 0 1-4.65 16 134.3 134.3 0 0 1-6.61 14.91 181.72 181.72 0 0 1-18.85 28.42 223.71 223.71 0 0 1-23.35 24.76 304.63 304.63 0 0 1-26.45 21.53 143.18 143.18 0 0 1-29.55 16.46 116.87 116.87 0 0 1-14.96 5.41 71.28 71.28 0 0 1-15.9 2.68 51.35 51.35 0 0 1-15.62-1.55 32.34 32.34 0 0 1-13.78-7.6 29.14 29.14 0 0 1-8.87-12.8 44 44 0 0 1-2.25-14.77 52.4 52.4 0 0 1 2.68-15.34 92.52 92.52 0 0 1 5.91-14.21 105.89 105.89 0 0 1 17.72-24.62 247.71 247.71 0 0 1 22.51-20.68q3.09-2.54 6.33-4.92t6.33-4.64a66.74 66.74 0 0 1 7-25.89 87.31 87.31 0 0 1 15.47-22 90.45 90.45 0 0 1 11.82-10.41 78.06 78.06 0 0 1 13.79-8.16 62.59 62.59 0 0 1 15-4.78 50.05 50.05 0 0 1 15.9-.28 52.76 52.76 0 0 1 18.15 6.19 47.31 47.31 0 0 1 14.49 12.38 192.15 192.15 0 0 1 26.45-4.93 173.07 173.07 0 0 1 27-1 147.72 147.72 0 0 1 18.57 2.25q9 1.68 18.29 3.66 9.86 2.25 19.84 4.22t20.12 3.37c3.75.76 8.48 1.55 14.21 2.4a72.17 72.17 0 0 0 16.74.56 30.47 30.47 0 0 0 14.07-4.5q5.91-3.81 6.47-12.81a9.18 9.18 0 0 1 2.25 5.77 13.62 13.62 0 0 1-1.41 5.91 19.07 19.07 0 0 1-3.8 5.35 44.46 44.46 0 0 1-4.64 4.08 46.44 46.44 0 0 1-16 6.61 83.35 83.35 0 0 1-17.16 1.83 105.46 105.46 0 0 1-27.15-3 189.07 189.07 0 0 1-26-8.3q4.5 3.66 4.5 7.88a19 19 0 0 1-1.41 5.49 34.39 34.39 0 0 1-2.53 4.92 129.93 129.93 0 0 1-16 23.08q-9.28 10.69-18.29 21.38-15.46 18.3-30.38 36.44T1011 889.68q-4.51 6.48-9.29 13.65t-9 14.77a139.58 139.58 0 0 0-7.46 15.62 59.18 59.18 0 0 0-4.08 16.18 32.41 32.41 0 0 1-.84-16.46 87.88 87.88 0 0 1 5.2-17 126.29 126.29 0 0 1 8.16-16.18q4.65-7.72 8.58-13.92 6.76-11 14.07-21.67t15.21-21.41zm-88.07 2.53a25.58 25.58 0 0 1-14.07-2.79 42 42 0 0 1-11.54-8.86 51.7 51.7 0 0 1-8.44-12.38 49.42 49.42 0 0 1-4.5-13.65q-9 7.89-17.17 16.18t-15.47 17.31q-4.5 5.63-10 12.8a80 80 0 0 0-9.14 15 42.91 42.91 0 0 0-4.08 16q-.44 8.17 5.48 15.2a26 26 0 0 0 12 8.86 39 39 0 0 0 14.35 2.11 63.32 63.32 0 0 0 14.91-2.39 110.35 110.35 0 0 0 13.93-4.93 167.53 167.53 0 0 0 45.58-30.81 238.18 238.18 0 0 0 35.68-42 204.22 204.22 0 0 0 10.69-18.57 121.71 121.71 0 0 0 8.58-21.53 72.66 72.66 0 0 0 3-22.23 40.73 40.73 0 0 0-5.91-20.4q-6.48 2-12.94 4.37t-12.67 5.2a314.2 314.2 0 0 0-70.62 44.46 36.55 36.55 0 0 0 .84 8.16 53.41 53.41 0 0 0 3.8 11.53 47.61 47.61 0 0 0 6.75 10.84 41 41 0 0 0 9.29 8.3 27.72 27.72 0 0 0 11.67 4.22zm-30.39-58a318.16 318.16 0 0 1 44.31-25.19 362 362 0 0 1 47.14-18.15l-3.1-3.66A43.6 43.6 0 0 0 979.77 729a45.58 45.58 0 0 0-24.48 1.69 96.19 96.19 0 0 0-11.39 5.2 54.37 54.37 0 0 0-10.27 7.18c-1.13.94-2.39 2.06-3.8 3.37s-2.77 2.68-4.08 4.08a44.34 44.34 0 0 0-3.66 4.5 10.51 10.51 0 0 0-2 4.65 8.43 8.43 0 0 0 0 3.09c.19.94.38 1.79.56 2.54a7.4 7.4 0 0 1 .15 2.53 9.18 9.18 0 0 1-1 3.09 44 44 0 0 0-3 5.91q-1.27 3.1-2.39 6.19a23.28 23.28 0 0 0-.85 2.39c-.1.68-.29 1.48-.47 2.42z" transform="translate(-331.43 -396.09)"/><path class="cls-1" d="M1130 810.05q3.38 3.94 1.26 14.49t-13.08 25.75l-5.63 7.6a8.18 8.18 0 0 0 6.33-.28 14.47 14.47 0 0 0 5.21-4.36 22.49 22.49 0 0 0 3.52-7.18 32.36 32.36 0 0 0 1.26-9.29q5.07 3.66 4.93 8.73a15.57 15.57 0 0 1-3.24 9.14 17.31 17.31 0 0 1-8.58 5.91 14.82 14.82 0 0 1-11.12-.7q-3.37 4.21-7.45 8.58a115.4 115.4 0 0 1-8.44 8.16 61.4 61.4 0 0 1-9.15 6.61 34.33 34.33 0 0 1-9.57 3.94 9.56 9.56 0 0 1-6.75-.84q-3.37-1.69-4.22-6.76t2-14.07q2.82-9 11.54-23.35a98.33 98.33 0 0 1 14.91-18.85 72.57 72.57 0 0 1 15-11.54q7.18-3.93 13-4.22t8.27 2.53zm-52.9 73.44q5.63-3.65 12.8-12a205.35 205.35 0 0 0 13.93-18.14 13.22 13.22 0 0 1 .56-6.48 31.63 31.63 0 0 1 3.38-7.31 41.79 41.79 0 0 1 5.49-7 61.05 61.05 0 0 1 6.89-6.19q5.34-10.12 5.35-13.78c-.19-1.13-1.09-1.74-2.68-1.83s-3.52.89-5.77 3a76.6 76.6 0 0 0-10.69 11.4q-5.91 7.46-11.53 15.89t-10.42 16.89a137.16 137.16 0 0 0-7.41 14.86q-2.67 6.48-3 9.71t3.13.98z" transform="translate(-331.43 -396.09)"/><path class="cls-1" d="M1153.66 805.27q-1.41 2.54 2.25 3.1a33.45 33.45 0 0 0 9.15-.15q5.49-.69 10.69-1.68t6.89-1.27c2.07-.18 3.28 0 3.66.56a3.67 3.67 0 0 1 1.69 2.25 14.75 14.75 0 0 1 .7 3.52 7.87 7.87 0 0 1-.28 3.1c-.28.84-.61 1.26-1 1.26-1.13-.18-3 .8-5.63 3s-5.54 4.83-8.72 8-6.43 6.61-9.71 10.27-6.24 6.89-8.86 9.7q-9 10.43-17.31 19.7t-14.49 15.48a71.93 71.93 0 0 0 8.72-4.51c2.44-1.5 4.55-2.9 6.33-4.22a48.67 48.67 0 0 1 4.65-3.09 6.11 6.11 0 0 1 3.94-.85 3.94 3.94 0 0 1 3.23 2.68 7.4 7.4 0 0 1-.14 5.48q4.5-3.65 10.13-8.3a62.39 62.39 0 0 0 9.57-9.7 43.61 43.61 0 0 0 6.19-10.84 37.38 37.38 0 0 0 2.53-12q6.47 4.8 4.78 11.4t-7.87 13.37a44.59 44.59 0 0 1-8.45 7.45c-3.37 2.35-6.61 4.64-9.7 6.9a90.07 90.07 0 0 0-7.88 6.33q-3.24 3-3.24 5.48c-1.31 0-2.06-.37-2.25-1.12-.56-2.44-1.74-4-3.52-4.64a11.44 11.44 0 0 0-6.47-.15 58.33 58.33 0 0 0-8.44 2.68q-4.63 1.83-9.42 3.52a.86.86 0 0 1-.57.28q-3.64 1.68-6 .84T1107 886q2.27.84 6.76-3.52a139.08 139.08 0 0 0 10.27-11.4q5.76-7 12.52-15.9t13.5-17.44q6.76-8.58 13.23-15.9a79.27 79.27 0 0 1 11.82-11.25q-5.91 2.25-11.12 4.64c-3.47 1.6-6.52 3-9.14 4.08a66.68 66.68 0 0 1-6.75 2.53q-2.82.84-4.23-.28c-.94-.56-1.22-1.83-.84-3.8a20.88 20.88 0 0 1 2.25-6 20.56 20.56 0 0 1 3.94-5.2q2.2-2.13 4.45-1.29z" transform="translate(-331.43 -396.09)"/><path class="cls-1" d="M1204.31 810.62a9.58 9.58 0 0 0 1.4-3.38 8.22 8.22 0 0 0 .29-2c.56-.56 1.3-.28 2.25.84a22.44 22.44 0 0 1 2.67 4.22 21.36 21.36 0 0 1 1.83 5.49 6.2 6.2 0 0 1-.56 4.64q-5.36 7.32-13 18.43t-14.35 21.39q-6.75 10.28-11.11 17.44t-3 6.62a56 56 0 0 0 12.38-6.47 57.88 57.88 0 0 0 11.26-10.13 52.11 52.11 0 0 0 8.3-13.51 45.81 45.81 0 0 0 3.52-16.6q5.34 4.22 5.48 9.28a19.06 19.06 0 0 1-3.09 10.42 49 49 0 0 1-8.72 10.41 129.92 129.92 0 0 1-11.26 9.28 115.68 115.68 0 0 1-11 7.18q-5.21 3-7.46 4.08a8.39 8.39 0 0 1-4.36.56c-1.59-.19-2.58-.75-3-1.69q-1.11-2.25 1.27-8.86a140.37 140.37 0 0 1 7.74-16.74q5.34-10.14 13.5-23.08t19.02-27.82zm22.23-38a4.43 4.43 0 0 1 3.79 1.55 13.66 13.66 0 0 1 3 4.64 20.86 20.86 0 0 1 1.41 5.63 7.66 7.66 0 0 1-2.82 7.88q-2 2-4.5 4.22a60.1 60.1 0 0 0-4.92 4.92 20.36 20.36 0 0 0-3.52 5.21q-5.91-3.37-5.21-7.88a24.08 24.08 0 0 1 3.8-9.29q3.09-4.77 6.33-9.14t2.64-7.73z" transform="translate(-331.43 -396.09)"/><path class="cls-1" d="M1237.79 823.84c-.57.56-1.83 2-3.8 4.22s-4.27 5.07-6.9 8.44-5.44 7.09-8.44 11.12-5.81 8.11-8.44 12.24c-.18.38-.23.61-.14.7a.56.56 0 0 1 .14.42 232.49 232.49 0 0 1 15.62-20.82q8.3-9.84 15.62-17.44a137.69 137.69 0 0 1 12.94-12.1q5.63-4.5 7.6-4.51a3.42 3.42 0 0 1 2.39 1.55 14.27 14.27 0 0 1 2.11 3.66 14 14 0 0 1 1 4.36 5.16 5.16 0 0 1-1 3.66q-5.07 7.59-13.09 18.71t-15.33 21.39q-7.32 10.27-12 17.44t-3.24 6.61a82.54 82.54 0 0 0 12.67-6.61 60.07 60.07 0 0 0 12-10 54.66 54.66 0 0 0 9.14-13.5 40.81 40.81 0 0 0 3.94-16.61q5.34 4.23 5.34 9.29a18.32 18.32 0 0 1-3.51 10.27 58.41 58.41 0 0 1-9.29 10.41 120.53 120.53 0 0 1-11.82 9.43 130.92 130.92 0 0 1-11.39 7.17q-5.36 3-7.6 4.08a8.79 8.79 0 0 1-4.5.57c-1.69-.19-2.72-.75-3.1-1.69q-.56-2.53 1.83-8.3a105.24 105.24 0 0 1 6.62-13q4.21-7.17 9.14-14.91t9.15-14.07q4.21-6.33 6.75-10.41c1.69-2.72 2.34-4.08 2-4.08q-3.66 1.41-10.13 7.88t-13.65 15q-7.17 8.6-13.93 17.73t-11 15.9q-2.81 6.47-2 8.44c.38.75.28 1.17-.28 1.26a8.27 8.27 0 0 1-1.41.15c-3-.75-4.4-2.82-4.22-6.2a40.49 40.49 0 0 1 3.24-12.38 120.33 120.33 0 0 1 8-15.89q5.06-8.58 10.13-16.46t9.56-14.21q4.5-6.33 6.76-9.15a18 18 0 0 0 1.12-3.38 5.19 5.19 0 0 0 .28-1.68c.57-.57 1.27-.28 2.11.84a21.57 21.57 0 0 1 2.39 4.22 17.61 17.61 0 0 1 1.41 5.49 7 7 0 0 1-.79 4.75zm177.82 8.72a40.15 40.15 0 0 1 23.92 0q4.79-4.48 9-9.28c2.82-3.19 5.53-6.38 8.16-9.57a24.49 24.49 0 0 0 2.53-3.66q1.13-2 2.54-3.94l-.28-.28a70.93 70.93 0 0 1-21-13.92 68 68 0 0 1-15-20.41 42.8 42.8 0 0 1-4.08-14.77 32.87 32.87 0 0 1 1.69-14.35 27.71 27.71 0 0 1 7.74-11.39q5.34-4.79 14.35-6.19a31.07 31.07 0 0 1 16 1.26 28.17 28.17 0 0 1 11.68 8.16 35.56 35.56 0 0 1 6.89 13.09 40.37 40.37 0 0 1 1.41 15.75 98.18 98.18 0 0 1-4.5 20.83 130 130 0 0 1-8.44 19.69 42.25 42.25 0 0 0 10.83 1.41 74 74 0 0 0 11.12-.85v-1.82a8.58 8.58 0 0 1 .28-2.11 146.34 146.34 0 0 1 2.11-16.32 81.14 81.14 0 0 1 4.78-16.32 77.23 77.23 0 0 1 8-14.78 45.24 45.24 0 0 1 11.82-11.67 44.22 44.22 0 0 1 11.25-5.35 31.73 31.73 0 0 1 12-1.55 18.55 18.55 0 0 1 10.27 3.94q4.5 3.52 6.75 10.55a28.15 28.15 0 0 1 0 15.76 48.46 48.46 0 0 1-7 14.35 66.1 66.1 0 0 1-11.26 12.24 92.08 92.08 0 0 1-12.66 9.15 70.36 70.36 0 0 1-25.6 10.12q.56 8.17 1.69 15.76t2 14.91a178.27 178.27 0 0 1 .42 35.32 91.1 91.1 0 0 1-9.71 33.62 74.06 74.06 0 0 1-19.84 24.76 64.1 64.1 0 0 1-28.84 13.23 65.35 65.35 0 0 1-23.35.28 58.92 58.92 0 0 1-20.54-7.6 55.82 55.82 0 0 1-16-14.77 60.68 60.68 0 0 1-9.85-21.24 61.85 61.85 0 0 1 0-28.7l-3.66.84a98.11 98.11 0 0 1-25.18 1.83 45.2 45.2 0 0 1-23.49-8 37.83 37.83 0 0 1-15.2-19.27 40.82 40.82 0 0 1-.84-24.62 63.21 63.21 0 0 1 9.56-21 79.25 79.25 0 0 1 16-17 93.21 93.21 0 0 1 20.12-12.1 85.78 85.78 0 0 1 22.09-6.47 59.4 59.4 0 0 1 12.38-1 61.36 61.36 0 0 1 12.52 1.55 49.1 49.1 0 0 1 11.61 4.34 37.07 37.07 0 0 1 9.85 7.46 24.09 24.09 0 0 1 5.76 10.83 25.14 25.14 0 0 1-.14 11.54 35.53 35.53 0 0 1-4.78 11 50.92 50.92 0 0 1-7.88 9.43 81 81 0 0 0 6.89-12.66 23.32 23.32 0 0 0 1.55-14.07 18.73 18.73 0 0 0-7-11.68 37.47 37.47 0 0 0-12.1-6.33 43.38 43.38 0 0 0-15.48-1.69c-2.25 0-3.75-.46-4.5-1.41a11.77 11.77 0 0 0-4.22-2.81q-2.54-1.41-6.75-.28c-2.82.75-5.16 1.31-7 1.69q-4.22 1.13-8.44 2.53a45.71 45.71 0 0 0-8.16 3.66 84.31 84.31 0 0 0-12.66 8.16 80 80 0 0 0-11.25 10.55 63.37 63.37 0 0 0-8.59 12.52 59 59 0 0 0-5.2 14.07 30.09 30.09 0 0 0 0 15.33 32.64 32.64 0 0 0 6.47 12.24 36.6 36.6 0 0 0 11.25 8.87 45.14 45.14 0 0 0 14.35 4.64 83.14 83.14 0 0 0 17.45 1 85.56 85.56 0 0 0 17.44-2.67 61.05 61.05 0 0 1 14.07-21.24 53.46 53.46 0 0 1 21.88-13.12zm5.91 92a84.41 84.41 0 0 0 25-16.6 55.68 55.68 0 0 0 15.48-25.6 34.41 34.41 0 0 0 1.3-13.36 38.07 38.07 0 0 0-11.11-23.21 37.26 37.26 0 0 0-11-7.6 157.13 157.13 0 0 1-28.28 22.37 125.1 125.1 0 0 1-33.06 14.49 55.46 55.46 0 0 0-.85 24.2 59.22 59.22 0 0 0 9.6 22.75q9.84 14.91 25.89 19a56.42 56.42 0 0 0 32.64-1.54 55.39 55.39 0 0 0 24.62-16.32 75.06 75.06 0 0 0 14.49-25.89 95.79 95.79 0 0 0 3.37-14.07q1.13-7 1.69-14.35 0-4.22-.56-10.13a61.72 61.72 0 0 0-2.11-11.25 32.71 32.71 0 0 0-4.36-9.43 10.36 10.36 0 0 0-7.6-4.64 7.91 7.91 0 0 1 3.09-1.27 19.61 19.61 0 0 1 4.08-.42 13.5 13.5 0 0 1 3.94.56 6 6 0 0 1 3 2q-.29-5.62-.42-11.39c-.1-3.85-.14-7.65-.14-11.4a62.39 62.39 0 0 1-24.48-3.66 83 83 0 0 1-4.93 7.6q-2.67 3.66-5.48 7.32-5.07 6.46-10.42 12.09a50.91 50.91 0 0 1 20.22 17.19 46.34 46.34 0 0 1 8.73 25.32 48 48 0 0 1-3.94 19.42 59.22 59.22 0 0 1-11.4 18.15 41.24 41.24 0 0 1-16.88 11.11q-9.7 3.36-20.12-1.43zM1383 865.77a113.91 113.91 0 0 0 27.69-11.77 163.25 163.25 0 0 0 24.62-17.73 34.72 34.72 0 0 0-15.2-.56 44.78 44.78 0 0 0-14.21 5.2 55.68 55.68 0 0 0-12.1 9.43 59.06 59.06 0 0 0-9.14 12.1zm63-74a50.49 50.49 0 0 0 18.29 10.7 112 112 0 0 0 10-22.94 49.21 49.21 0 0 0 1.55-24 22.46 22.46 0 0 0-6.76-12.1 28.09 28.09 0 0 0-12.1-6.9 25.09 25.09 0 0 0-13.64.14 19.12 19.12 0 0 0-11.12 8.73 22.08 22.08 0 0 0-3.23 12.1 39.37 39.37 0 0 0 2.53 12.94 52.65 52.65 0 0 0 6.33 12.1 50.23 50.23 0 0 0 8.15 9.22zm68.66-42.2a51 51 0 0 0-12.53 24.43 119.34 119.34 0 0 0-2.11 27.85q5.07-2 8.73-3.65a142.51 142.51 0 0 0 12.66-7.6 87.64 87.64 0 0 0 12.66-10.27 71.72 71.72 0 0 0 10.13-12.24 31.58 31.58 0 0 0 5.06-13.79 17.19 17.19 0 0 0-1.12-8.58 10.18 10.18 0 0 0-5.91-6 13.83 13.83 0 0 0-7.46-1.27 26.51 26.51 0 0 0-7.45 2 30.64 30.64 0 0 0-6.9 4.08 61.87 61.87 0 0 0-5.76 5.03zm68.65 60.48q3.38 3.94 1.27 14.49t-13.09 25.75l-5.63 7.6a8.21 8.21 0 0 0 6.34-.28 14.35 14.35 0 0 0 5.2-4.36 22.49 22.49 0 0 0 3.52-7.18 32.36 32.36 0 0 0 1.26-9.29q5.07 3.66 4.93 8.73a15.57 15.57 0 0 1-3.24 9.14 17.27 17.27 0 0 1-8.58 5.91 14.79 14.79 0 0 1-11.11-.7q-3.39 4.21-7.46 8.58a115.4 115.4 0 0 1-8.44 8.16 60.89 60.89 0 0 1-9.15 6.61 34.4 34.4 0 0 1-9.56 3.94 9.59 9.59 0 0 1-6.76-.84c-2.25-1.13-3.65-3.38-4.22-6.76s.1-8.06 2-14.07 5.73-13.78 11.54-23.35a98.72 98.72 0 0 1 14.87-18.85 72.34 72.34 0 0 1 15.06-11.54q7.17-3.93 12.94-4.22t8.31 2.53zm-52.9 73.44q5.63-3.65 12.8-12a203.46 203.46 0 0 0 13.93-18.14 13.22 13.22 0 0 1 .56-6.48 32.05 32.05 0 0 1 3.38-7.31 41.79 41.79 0 0 1 5.49-7 61.05 61.05 0 0 1 6.89-6.19q5.34-10.12 5.35-13.78c-.19-1.13-1.08-1.74-2.68-1.83s-3.51.89-5.76 3a76.08 76.08 0 0 0-10.7 11.4q-5.91 7.46-11.53 15.89t-10.41 16.89a137.43 137.43 0 0 0-7.46 14.91q-2.67 6.48-3 9.71t3.14.93z" transform="translate(-331.43 -396.09)"/><path class="cls-1" d="M1592 884.06a46.4 46.4 0 0 1 0-10.27 64.2 64.2 0 0 1 1.83-9.85c.85-3.1 1.73-5.91 2.67-8.44a25.14 25.14 0 0 1 2.82-5.77l-9 4.5q-4.5 6.75-8 12.8t-5.62 10.55a24.26 24.26 0 0 0-2.4 7.32c-.18 1.88.29 3 1.41 3.38a6.68 6.68 0 0 1-5.06.28c-1.88-.56-3-1.31-3.38-2.25q-.55-3.09 2.53-10.7a155.67 155.67 0 0 1 8.87-17.72q5.76-10.14 13.36-22.37t15.9-24.62q8.29-12.37 16.46-24.34t15.19-22.09a9.49 9.49 0 0 0 1.41-3.38 5.19 5.19 0 0 0 .28-1.68c.56-.57 1.31-.33 2.25.7a17.38 17.38 0 0 1 2.68 4.22 24.1 24.1 0 0 1 1.83 5.49 5.87 5.87 0 0 1-.57 4.5l-9 12.24q-5.91 8-13.37 18t-15.47 21.24q-8 11.27-15.06 21.67a161 161 0 0 0 16.46-12 176.7 176.7 0 0 0 13.98-12.61 109.79 109.79 0 0 0 9.29-10.56c2.25-3 3.09-5.06 2.53-6.19.94-.56 2-.32 3.1.71a15.22 15.22 0 0 1 3 3.8 14.6 14.6 0 0 1 1.69 4.78 5.81 5.81 0 0 1-.42 3.94 22.47 22.47 0 0 1-4.22 4.22q-3.11 2.54-7.6 5.63t-9.85 6.61q-5.36 3.53-11 6.89a4.16 4.16 0 0 1 4.5 3.38q-3.66-1.41-6.75 2.25a32.66 32.66 0 0 0-5.35 9.57 59.91 59.91 0 0 0-3.24 12.66 44.67 44.67 0 0 0-.42 11.54q5.07-3.66 11-8.45a82.41 82.41 0 0 0 10.74-10.55 58.91 58.91 0 0 0 8.16-12.38 34.27 34.27 0 0 0 3.51-13.93q5.07 4.23 4.93 9a19.6 19.6 0 0 1-3.52 10 54.53 54.53 0 0 1-8.86 10.27 143.46 143.46 0 0 1-11.12 9.28q-5.62 4.23-10.27 7.6a37.85 37.85 0 0 0-6 5.07q-1.12 1.41-3.79-.15a5.21 5.21 0 0 1-3.04-3.79z" transform="translate(-331.43 -396.09)"/><path class="cls-1" d="M1688 810.62a19 19 0 0 0 1.41-3.38 8.69 8.69 0 0 0 .28-2c.37-.56 1.08-.28 2.11.84a18.54 18.54 0 0 1 2.81 4.22 21 21 0 0 1 1.83 5.49 6.15 6.15 0 0 1-.56 4.64q-5.35 7.32-12.94 18.43t-14.35 21.39q-6.77 10.28-11.12 17.44t-3 6.62a48.34 48.34 0 0 0 12-6.47 50.77 50.77 0 0 0 10.27-10.13 55.57 55.57 0 0 0 7.45-13.51 49.81 49.81 0 0 0 3.24-16.6q5.34 4.22 5.62 9.28a19.2 19.2 0 0 1-2.67 10.42 45.31 45.31 0 0 1-8.16 10.41 122.1 122.1 0 0 1-10.69 9.28 111.9 111.9 0 0 1-10.41 7.18q-4.93 3-7.18 4.08a8.4 8.4 0 0 1-4.36.56c-1.59-.19-2.58-.75-3-1.69q-1.69-2.53 2.25-11.54-4.78 3.95-9.29 7a56.23 56.23 0 0 1-8.16 4.78 10.74 10.74 0 0 1-3.23 1.27 7.71 7.71 0 0 1-3.24.14 3.36 3.36 0 0 1-2.25-1.69q-.84-1.41 0-4.5a126.67 126.67 0 0 1 7.88-24.06 195 195 0 0 1 11.82-22.93 138 138 0 0 1 13.4-18.59q6.9-8 12.81-11.54t10.12-1.27q4.23 2.26 5.35 12.1zm-20.54 30.67q3.09-5.07 6.61-10.41t7.46-11.26q-.84-7.87-5.21-6t-10.55 8.86a146.26 146.26 0 0 0-12.96 17.52q-6.75 10.54-12.1 20.4t-8.3 16.74q-3 6.9-1.27 6.9c1.32 0 3.66-1.6 7-4.79a97.33 97.33 0 0 0 10.41-11.82 89 89 0 0 0 9.28-15.19q3.95-8.16 3.66-14.63a18.74 18.74 0 0 1 5.95 3.68z" transform="translate(-331.43 -396.09)"/><path class="cls-1" d="M1697.26 884.06a47.65 47.65 0 0 1 0-10.27 64.2 64.2 0 0 1 1.83-9.85q1.28-4.65 2.68-8.44a24.77 24.77 0 0 1 2.81-5.77l-9 4.5q-4.51 6.75-8 12.8t-5.63 10.55a24.18 24.18 0 0 0-2.39 7.32c-.19 1.88.28 3 1.4 3.38a6.67 6.67 0 0 1-5.06.28c-1.87-.56-3-1.31-3.38-2.25q-.55-3.09 2.54-10.7a155.41 155.41 0 0 1 8.86-17.72q5.77-10.14 13.36-22.37t15.9-24.62q8.29-12.37 16.46-24.34t15.2-22.09a9.5 9.5 0 0 0 1.4-3.38 5.19 5.19 0 0 0 .28-1.68c.57-.57 1.31-.33 2.26.7a17.69 17.69 0 0 1 2.67 4.22 24.1 24.1 0 0 1 1.83 5.49 5.92 5.92 0 0 1-.56 4.5l-9 12.24q-5.91 8-13.36 18t-15.48 21.24q-8 11.27-15 21.67a163.18 163.18 0 0 0 16.46-12 176.43 176.43 0 0 0 13.92-12.66 109.79 109.79 0 0 0 9.29-10.56c2.25-3 3.1-5.06 2.53-6.19.94-.56 2-.32 3.1.71a15.22 15.22 0 0 1 3 3.8 14.38 14.38 0 0 1 1.69 4.78 5.81 5.81 0 0 1-.42 3.94 22.16 22.16 0 0 1-4.22 4.22q-3.11 2.54-7.6 5.63t-9.85 6.61q-5.34 3.53-11 6.89a4.16 4.16 0 0 1 4.5 3.38q-3.66-1.41-6.75 2.25a32.66 32.66 0 0 0-5.35 9.57 59.31 59.31 0 0 0-3.23 12.66 45.18 45.18 0 0 0-.43 11.54q5.07-3.66 11-8.45a81.2 81.2 0 0 0 10.83-10.55 58.91 58.91 0 0 0 8.16-12.38 34.44 34.44 0 0 0 3.52-13.93q5.05 4.23 4.92 9a19.42 19.42 0 0 1-3.52 10 54.53 54.53 0 0 1-8.86 10.27 143.35 143.35 0 0 1-11.11 9.28q-5.64 4.23-10.27 7.6a36.92 36.92 0 0 0-6 5.07q-1.12 1.41-3.8-.15a5.21 5.21 0 0 1-3.13-3.74z" transform="translate(-331.43 -396.09)"/></svg>
