<svg version="1.1" id="Layer_1" xmlns="http://www.w3.org/2000/svg" x="0" y="0" viewBox="0 0 512 512" xml:space="preserve"><style>.st0{fill:#fff}</style><path class="st0" d="M432.2 0H79.5C75.4 0 72 3.4 72 7.5v120.6c0 4.2 3.4 7.5 7.5 7.5s7.5-3.4 7.5-7.5V15h305.6v377.7H87V163.5c0-4.1-3.4-7.5-7.5-7.5-4.2 0-7.5 3.4-7.5 7.5v341c0 4.2 3.4 7.5 7.5 7.5h32.1c4.1 0 7.5-3.4 7.5-7.5v-56.6h241.5v56.6c0 4.2 3.4 7.5 7.5 7.5h64.1c4.2 0 7.5-3.4 7.5-7.5V7.5c0-4.1-3.3-7.5-7.5-7.5zm-64.1 432.8H111.6c-4.2 0-7.5 3.4-7.5 7.5V497H87v-89.2h305.6V497h-17v-56.6c0-4.2-3.4-7.6-7.5-7.6zm56.6 64.2h-17V15h17v482z"/><path class="st0" d="M159.7 183.4c4.2 0 7.5-3.4 7.5-7.5v-64.1c0-3.2-2.2-6.2-5.2-7.2-3.3-1-6.9.3-8.7 3.3l-17.6 29.3-17.7-29.3c-1.7-2.9-5.2-4.3-8.5-3.4-3.3.9-5.5 3.9-5.5 7.2v64.1c0 4.2 3.4 7.5 7.5 7.5s7.5-3.4 7.5-7.5v-37l10.1 16.8c2.9 4.8 10 4.8 12.9 0l10.1-16.8v37c.1 4.2 3.4 7.6 7.6 7.6zm64.1-64.2c4.2 0 7.5-3.4 7.5-7.5s-3.4-7.5-7.5-7.5h-40.1c-4.2 0-7.5 3.4-7.5 7.5v64.1c0 4.2 3.4 7.5 7.5 7.5h40.1c4.2 0 7.5-3.4 7.5-7.5s-3.4-7.5-7.5-7.5h-32.6v-17h16.5c4.2 0 7.5-3.4 7.5-7.5s-3.4-7.5-7.5-7.5h-16.5v-17h32.6zm21.7-14.6c-3.1 1-5.1 3.9-5.1 7.1v64.1c0 4.2 3.4 7.5 7.5 7.5s7.5-3.4 7.5-7.5v-41.6l34.6 46.1c2 2.7 5.8 3.7 8.9 2.4 2.8-1.2 4.6-3.9 4.6-6.9v-64.1c0-4.2-3.4-7.5-7.5-7.5s-7.5 3.4-7.5 7.5v41.6l-34.6-46.1c-2-2.6-5.4-3.6-8.4-2.6zm74.5-.4c-4.2 0-7.5 3.4-7.5 7.5v40.1c0 17.4 14.2 31.6 31.6 31.6s31.6-14.2 31.6-31.6v-40.1c0-4.2-3.4-7.5-7.5-7.5s-7.5 3.4-7.5 7.5v40.1c0 9.1-7.4 16.5-16.5 16.5s-16.5-7.4-16.5-16.5v-40.1c-.2-4.1-3.6-7.5-7.7-7.5zm63.6-32.6c0-4.2-3.4-7.5-7.5-7.5s-7.5 3.4-7.5 7.5c0 1.3 0 3.1-1.2 4.5-2.1 2.5-7.7 4-15.3 4-13.5 0-21.8-8.4-31.3-18-10.2-10.3-21.8-22-40.8-22-23.2 0-31.6 18.9-31.6 31.6 0 4.2 3.4 7.5 7.5 7.5s7.5-3.3 7.5-7.5c0-2.8 1-16.6 16.5-16.6 12.8 0 20.8 8.1 30.1 17.6 10.4 10.5 22.2 22.5 42 22.5 27.5 0 31.6-14.8 31.6-23.6zM199.8 40.1c-19.1 0-30.6 11.7-40.8 22-9.6 9.7-17.8 18-31.3 18-7.6 0-13.2-1.5-15.3-4-1.2-1.4-1.2-3.2-1.2-4.5 0-4.2-3.4-7.5-7.5-7.5-4.2 0-7.5 3.4-7.5 7.5 0 8.8 4.1 23.5 31.6 23.5 19.8 0 31.6-12 42-22.5 9.3-9.4 17.4-17.6 30.1-17.6 15.5 0 16.5 13.8 16.5 16.6 0 4.2 3.4 7.5 7.5 7.5s7.5-3.4 7.5-7.5c-.1-12.6-8.5-31.5-31.6-31.5zm-95.7 167.8c0 4.2 3.4 7.5 7.5 7.5h256.5c4.2 0 7.5-3.4 7.5-7.5s-3.4-7.5-7.5-7.5H111.6c-4.2 0-7.5 3.4-7.5 7.5zm264 16.5H111.6c-4.2 0-7.5 3.4-7.5 7.5s3.4 7.5 7.5 7.5h256.5c4.2 0 7.5-3.4 7.5-7.5s-3.4-7.5-7.5-7.5zm-152.3 48.1H111.6c-4.2 0-7.5 3.4-7.5 7.5s3.4 7.5 7.5 7.5h104.2c4.2 0 7.5-3.4 7.5-7.5s-3.4-7.5-7.5-7.5zm-104.2 55.1h32.1c4.2 0 7.5-3.4 7.5-7.5s-3.4-7.5-7.5-7.5h-32.1c-4.2 0-7.5 3.4-7.5 7.5s3.3 7.5 7.5 7.5zm0 40.1h104.2c4.2 0 7.5-3.4 7.5-7.5s-3.4-7.5-7.5-7.5H111.6c-4.2 0-7.5 3.4-7.5 7.5s3.3 7.5 7.5 7.5zm104.2-55.1h-48.1c-4.2 0-7.5 3.4-7.5 7.5s3.4 7.5 7.5 7.5h48.1c4.2 0 7.5-3.4 7.5-7.5s-3.4-7.5-7.5-7.5zm48.1-25H320c4.2 0 7.5-3.4 7.5-7.5s-3.4-7.5-7.5-7.5h-56.1c-4.2 0-7.5 3.4-7.5 7.5s3.3 7.5 7.5 7.5zm104.2 25H263.9c-4.2 0-7.5 3.4-7.5 7.5s3.4 7.5 7.5 7.5h104.2c4.2 0 7.5-3.4 7.5-7.5s-3.4-7.5-7.5-7.5zm0 40.1H263.9c-4.2 0-7.5 3.4-7.5 7.5s3.4 7.5 7.5 7.5h104.2c4.2 0 7.5-3.4 7.5-7.5s-3.4-7.5-7.5-7.5zm0-80.2h-24c-4.2 0-7.5 3.4-7.5 7.5s3.4 7.5 7.5 7.5h24c4.2 0 7.5-3.4 7.5-7.5s-3.4-7.5-7.5-7.5z"/></svg>