<svg version="1.1" id="Layer_1" xmlns="http://www.w3.org/2000/svg" x="0" y="0" viewBox="0 0 512 512" xml:space="preserve"><style>.st0{fill:#fff}</style><path class="st0" d="M177.7 380.7c-1 1.8-2.5 2.3-4 2.3s-2.9-.5-3.9-2.3l-10.3-19.4v39.4c0 2.4-3 3.7-5.8 3.7-3 0-5.8-1.3-5.8-3.7v-56.2c0-4.3 2.9-5.8 5.8-5.8 4.2 0 6.1.9 9.1 6.2l11.1 20.1 11.1-20.1c3-5.3 4.9-6.2 9.2-6.2 3 0 5.8 1.5 5.8 5.8v56.2c0 2.4-3 3.7-5.8 3.7-3 0-5.8-1.3-5.8-3.7V362l-10.7 18.7zm54.8-13.8h13.7c2.3 0 3.7 2.3 3.7 4.7 0 2.1-1.2 4.5-3.7 4.5h-13.7v18.1h25.4c2.3 0 3.7 2.4 3.7 5.2 0 2.4-1.2 5-3.7 5h-32c-2.6 0-5.1-1.3-5.1-3.7v-58.3c0-2.4 2.5-3.7 5.1-3.7h32c2.5 0 3.7 2.6 3.7 5 0 2.8-1.3 5.2-3.7 5.2h-25.4v18zm77 33.8l-19.3-36.1v36.1c0 2.4-3 3.7-5.8 3.7-3 0-5.8-1.3-5.8-3.7v-58.3c0-2.5 2.9-3.7 5.8-3.7 4.2 0 5.9.9 8.7 6.2l17.3 33.5v-36.1c0-2.5 2.9-3.6 5.8-3.6s5.8 1.1 5.8 3.6v58.4c0 2.4-3 3.7-5.8 3.7-2.7 0-5.2-.9-6.7-3.7zm64.6-58.5c0-2.5 2.9-3.6 5.8-3.6s5.8 1.1 5.8 3.6v42.1c0 15-9.5 20.6-21.6 20.6-12.1 0-21.6-5.6-21.6-20.6v-42.1c0-2.5 2.9-3.6 5.8-3.6s5.8 1.1 5.8 3.6v42.1c0 7 3.7 10.3 9.9 10.3s9.9-3.3 9.9-10.3l.2-42.1zm23.2 79.9h-42.7c-4.2 0-7.6 3.4-7.6 7.6 0 4.2 3.4 7.6 7.6 7.6h42.7c4.2 0 7.6-3.4 7.6-7.6-.1-4.2-3.4-7.6-7.6-7.6zm-78.1 0H146.3c-4.2 0-7.6 3.4-7.6 7.6 0 4.2 3.4 7.6 7.6 7.6h172.9c4.2 0 7.6-3.4 7.6-7.6 0-4.2-3.4-7.6-7.6-7.6zm78.1-115.9h-251c-4.2 0-7.6 3.4-7.6 7.6s3.4 7.6 7.6 7.6h251c4.2 0 7.6-3.4 7.6-7.6s-3.4-7.6-7.6-7.6zm-4.3-94.1h-7.4c-2.8-52.3-41.1-95.3-91.1-105.5l1.5-14c.5-4.6-1-9.1-4.1-12.6-3.1-3.4-7.5-5.4-12.1-5.4h-16.2c-4.6 0-9 2-12.1 5.4-3.1 3.4-4.6 8-4.1 12.6l1.5 14c-50 10.2-88.3 53.2-91.1 105.5h-7.4c-6.5 0-11.8 5.3-11.8 11.8v15.7c0 6.5 5.3 11.8 11.8 11.8H393c6.5 0 11.8-5.3 11.8-11.8v-15.7c0-6.5-5.2-11.8-11.8-11.8zM262.9 90.2c.2-.2.5-.3.8-.3h16.2c.3 0 .6.1.8.3.2.2.3.5.3.8l-1.4 13.6a99.08 99.08 0 0 0-15.4 0L262.6 91c0-.3.1-.6.3-.8zm126.8 146H153.9v-8.9h32c4.2 0 7.6-3.4 7.6-7.6s-3.4-7.6-7.6-7.6h-12.8c3.2-51.6 46.3-92.6 98.7-92.6 52.4 0 95.5 41 98.7 92.6H221.2c-4.2 0-7.6 3.4-7.6 7.6s3.4 7.6 7.6 7.6h168.5v8.9z"/><path class="st0" d="M451.5 0H92C81.4 0 72.7 8.7 72.7 19.3V33h-7.1C52.6 33 42 43.6 42 56.7s10.6 23.6 23.6 23.6h7.1v32.5h-7.1c-13 0-23.6 10.6-23.6 23.6 0 13 10.6 23.6 23.6 23.6h7.1v32.5h-7.1c-13 0-23.6 10.6-23.6 23.6 0 13 10.6 23.6 23.6 23.6h7.1v32.5h-7.1c-13 0-23.6 10.6-23.6 23.6 0 13 10.6 23.6 23.6 23.6h7.1V352h-7.1c-13 0-23.6 10.6-23.6 23.6 0 13 10.6 23.6 23.6 23.6h7.1v32.5h-7.1c-13 0-23.6 10.6-23.6 23.6S52.6 479 65.6 479h7.1v13.7c0 10.7 8.7 19.3 19.3 19.3h359.4c10.7 0 19.3-8.7 19.3-19.3V19.3C470.8 8.7 462.1 0 451.5 0zM72.7 65.1h-7.1c-4.7 0-8.5-3.8-8.5-8.5s3.8-8.5 8.5-8.5h7.1v17zm0 79.8h-7.1c-4.7 0-8.5-3.8-8.5-8.5s3.8-8.5 8.5-8.5h7.1v17zm0 79.7h-7.1c-4.7 0-8.5-3.8-8.5-8.5s3.8-8.5 8.5-8.5h7.1v17zm0 79.7h-7.1c-4.7 0-8.5-3.8-8.5-8.5s3.8-8.5 8.5-8.5h7.1v17zm0 79.7h-7.1c-4.7 0-8.5-3.8-8.5-8.5s3.8-8.5 8.5-8.5h7.1v17zm0 79.8h-7.1c-4.7 0-8.5-3.8-8.5-8.5s3.8-8.5 8.5-8.5h7.1v17zm382.9 28.9c0 2.3-1.9 4.2-4.1 4.2H92c-2.3 0-4.1-1.9-4.1-4.2V19.3c0-2.3 1.9-4.1 4.1-4.1h359.4c2.3 0 4.1 1.9 4.1 4.1v473.4z"/></svg>